{
.appVersion = "3130";
.formatVersion = 3;
DisplayStrings = (
"Have fun with 
the Basteleur 
:-)"
);
axes = (
{
name = Weight;
tag = wght;
}
);
classes = (
{
automatic = 1;
code = "A Aacute Abreve Acaron Acircumflex Adieresis Agrave Amacron Aogonek Aring Atilde AE B C Cacute Ccaron Ccedilla Cdotaccent D Eth Dcaron Dcroat E Eacute Ecaron Ecircumflex Edieresis Edotaccent Egrave Emacron Eogonek F G Gbreve Gcommaaccent Gdotaccent H Hbar I Iacute Icaron Icircumflex Idieresis Idotaccent Igrave Imacron Iogonek J K Kcommaaccent L Lacute Lcaron Lcommaaccent Lslash M N Nacute Ncaron Ncommaaccent Eng Ntilde O Oacute Ocaron Ocircumflex Odieresis Ograve Ohungarumlaut Omacron Oslash Otilde OE P Thorn Q R Racute Rcaron Rcommaaccent S Sacute Scaron Scedilla Scommaaccent T Tbar Tcaron Tcedilla Tcommaaccent U Uacute Ucaron Ucircumflex Udieresis Udieresisacute Udieresiscaron Udieresisgrave Udieresismacron Ugrave Uhungarumlaut Umacron Uogonek Uring V W Wacute Wcircumflex Wdieresis Wgrave X Y Yacute Ycircumflex Ydieresis Ygrave Z Zacute Zcaron Zdotaccent E.ss01";
name = Uppercase;
}
);
date = "2018-07-24 10:33:28 +0000";
familyName = Basteleur;
featurePrefixes = (
{
automatic = 1;
code = "languagesystem DFLT dflt;

languagesystem latn dflt;
languagesystem latn AZE;
languagesystem latn CRT;
languagesystem latn KAZ;
languagesystem latn TAT;
languagesystem latn TRK;
languagesystem latn ROM;
languagesystem latn MOL;
";
name = Languagesystems;
}
);
features = (
{
automatic = 1;
code = "feature locl;
feature sups;
feature ordn;
feature case;
feature ss01;
";
tag = aalt;
},
{
automatic = 1;
code = "lookup ccmp_Other_1 {
	@CombiningTopAccents = [acutecomb brevecomb caroncomb circumflexcomb commaturnedabovecomb dieresiscomb dotaccentcomb gravecomb hungarumlautcomb macroncomb ringcomb tildecomb];
	@CombiningNonTopAccents = [cedillacomb ogonekcomb];
	sub [i]' @CombiningTopAccents by [idotless];
	sub [i]' @CombiningNonTopAccents @CombiningTopAccents by [idotless];

glyphs = (
{
color = 4;
glyphname = A;
kernLeft = A;
kernRight = A;
lastChange = "2019-12-04 10:07:11 +0000";
layers = (
{
anchors = (
{
name = bottom;
pos = (420,0);
},
{
name = ogonek;
pos = (780,10);
},
{
name = top;
pos = (420,745);
}
);
layerId = "A22087AE-1668-478C-9B8B-D37A40788B8E";
shapes = (
{
closed = 1;
nodes = (
(771,0,o),
(800,40,o),
(800,74,cs),
(800,108,o),
(740,149,o),
(683,280,cs),
(632,396,o),
(654,491,o),
(697,561,cs),
(742,634,o),
(785,674,o),
(740,715,cs),
(705,747,o),
(635,713,o),
(559,666,cs),
(548,659,o),
(543,659,o),
(532,668,cs),
(461,730,o),
(388,753,o),
(269,753,cs),
(136,753,o),
(88,701,o),
(87,667,cs),
(86,635,o),
(123,616,o),
(169,625,cs),
(236,639,o),
(340,631,o),
(392,601,cs),
(408,592,o),
(408,582,o),
(392,573,cs),
(129,421,o),
(-51,100,o),
(78,5,cs),
(175,-66,o),
(439,52,o),
(524,243,cs),
(531,259,o),
(541,258,o),
(543,243,cs),
(562,89,o),
(621,0,o),
(714,0,cs)
);
},
{
closed = 1;
nodes = (
(183,185,o),
(210,266,o),
(294,371,cs),
(357,449,o),
(419,492,o),
(455,515,cs),
(469,524,o),
(475,523,o),
(482,510,cs),
(508,456,o),
(489,375,o),
(416,276,cs),
(345,180,o),
(257,133,o),
(220,159,cs)
);
}
);
width = 830;
},
{
associatedMasterId = "A22087AE-1668-478C-9B8B-D37A40788B8E";
layerId = "6D80ED8F-5EB9-4299-88A2-65213D2B2729";
name = "Jul 24 18, 12:53";
shapes = (
{
closed = 1;
nodes = (
(630,0,o),
(663,0,o),
(687,0,cs),
(744,0,o),
(783,0,o),
(783,44,cs),
(783,88,o),
(724,124,o),
(673,252,cs),
(648,316,o),
(618,579,o),
(497,675,cs),
(405,748,o),
(275,744,o),
(200,744,cs),
(127,744,o),
(93,730,o),
(90,696,cs),
(87,661,o),
(106,640,o),
(152,633,cs),
(263,616,o),
(360,598,o),
(410,540,cs),
(457,485,o),
(506,330,o),
(521,239,cs),
(542,114,o),
(501,98,o),
(510,46,cs),
(516,7,o),
(545,0,o),
(598,0,cs)
);
},
{
closed = 1;
nodes = (
(118,-72,o),
(461,110,o),
(557,268,c),
(534,377,l),
(422,240,o),
(255,109,o),
(203,159,cs),
(151,209,o),
(367,414,o),
(484,489,c),
(452,548,l),
(203,403,o),
(-56,98,o),
(31,13,cs)
);
}
);
width = 810;
},
{
associatedMasterId = "A22087AE-1668-478C-9B8B-D37A40788B8E";
layerId = "B47EC973-765D-43FE-B5F7-B9A2C047E988";
name = "Jul 24 18, 12:57";
shapes = (
{
closed = 1;
nodes = (
(658,316,o),
(638,579,o),
(517,675,cs),
(425,748,o),
(275,744,o),
(200,744,cs),
(127,744,o),
(93,730,o),
(90,696,cs),
(87,661,o),
(106,630,o),
(152,623,cs),
(263,606,o),
(360,598,o),
(410,540,c),
(168,411,o),
(-62,79,o),
(45,3,cs),
(167,-83,o),
(438,58,o),
(502,303,c),
(527,170,o),
(501,96,o),
(510,46,cs),
(516,7,o),
(545,0,o),
(598,0,cs),
(687,0,ls),
(744,0,o),
(783,0,o),
(783,44,cs),
(783,88,o),
(734,124,o),
(683,252,cs)
);
},
{
closed = 1;
nodes = (
(168,159,o),
(200,244,o),
(270,324,cs),
(334,397,o),
(426,467,o),
(452,467,cs),
(473,467,o),
(463,367,o),
(400,282,cs),
(334,194,o),
(252,159,o),
(203,159,cs)
);
}
);
width = 810;
},
{
associatedMasterId = "A22087AE-1668-478C-9B8B-D37A40788B8E";
layerId = "9B1F7CB0-0951-4B6C-9946-C60563C482E1";
name = "Jul 31 18, 11:47";
shapes = (
{
closed = 1;
nodes = (
(195,-71,o),
(424,66,o),
(535,247,c),
(567,72,o),
(605,0,o),
(730,0,cs),
(787,0,o),
(826,0,o),
(826,44,cs),
(826,88,o),
(738,123,o),
(706,252,cs),
(670,399,o),
(661,579,o),
(540,675,cs),
(448,748,o),
(298,744,o),
(223,744,cs),
(150,744,o),
(116,730,o),
(113,696,cs),
(110,661,o),
(129,626,o),
(175,623,cs),
(256,617,o),
(343,608,o),
(399,579,c),
(161,440,o),
(-53,63,o),
(88,-13,cs)
);
},
{
closed = 1;
nodes = (
(214,212,o),
(255,302,o),
(310,371,cs),
(357,429,o),
(444,516,o),
(483,493,cs),
(525,468,o),
(494,370,o),
(432,286,cs),
(382,219,o),
(292,169,o),
(256,189,cs)
);
},
{
closed = 1;
nodes = (
(670,412,o),
(661,492,o),
(713,561,cs),
(765,629,o),
(801,674,o),
(756,715,cs),
(713,754,o),
(620,696,o),
(522,632,c),
(698,269,l)
);
}
);
width = 836;
},
{
associatedMasterId = "A22087AE-1668-478C-9B8B-D37A40788B8E";
layerId = "EB2CC201-A060-4FB9-9572-D33861F925FD";
name = "Jul 31 18, 11:52";
shapes = (
{
closed = 1;
nodes = (
(658,406,o),
(670,491,o),
(713,561,cs),
(758,634,o),
(801,674,o),
(756,715,cs),
(719,749,o),
(644,710,o),
(561,657,c),
(483,728,o),
(409,753,o),
(285,753,cs),
(152,753,o),
(106,701,o),
(103,667,cs),
(100,632,o),
(130,615,o),
(175,623,cs),
(256,637,o),
(353,638,o),
(429,587,c),
(151,430,o),
(-43,83,o),
(88,-13,cs),
(186,-85,o),
(464,56,o),
(555,277,c),
(577,92,o),
(635,0,o),
(730,0,cs),
(787,0,o),
(826,0,o),
(826,44,cs),
(826,88,o),
(743,144,o),
(699,280,cs)
);
},
{
closed = 1;
nodes = (
(382,219,o),
(292,169,o),
(256,189,cs),
(214,212,o),
(255,302,o),
(310,371,cs),
(357,429,o),
(444,516,o),
(483,493,cs),
(525,468,o),
(494,370,o),
(432,286,cs)
);
}
);
width = 836;
},
{
associatedMasterId = "A22087AE-1668-478C-9B8B-D37A40788B8E";
layerId = "46957ACD-BE37-4D48-AEC8-C58FDFA15142";
name = "Jul 31 18, 11:54";
shapes = (
{
closed = 1;
nodes = (
(658,406,o),
(670,491,o),
(713,561,cs),
(758,634,o),
(801,674,o),
(756,715,cs),
(719,749,o),
(644,710,o),
(561,657,c),
(483,728,o),
(409,753,o),
(285,753,cs),
(152,753,o),
(104,701,o),
(103,667,cs),
(102,635,o),
(130,616,o),
(175,623,cs),
(246,634,o),
(353,638,o),
(433,587,c),
(151,430,o),
(-43,83,o),
(88,-13,cs),
(186,-85,o),
(464,56,o),
(555,277,c),
(577,92,o),
(635,0,o),
(730,0,cs),
(787,0,o),
(826,0,o),
(826,44,cs),
(826,88,o),
(743,144,o),
(699,280,cs)
);
},
{
closed = 1;
nodes = (
(361,180,o),
(273,133,o),
(236,159,cs),
(199,185,o),
(226,266,o),
(310,371,cs),
(373,449,o),
(435,493,o),
(489,527,c),
(525,463,o),
(508,379,o),
(432,276,cs)
);
}
);
width = 836;
},
{
anchors = (
{
name = bottom;
pos = (420,0);
},
{
name = ogonek;
pos = (780,10);
},
{
name = top;
pos = (420,745);
}
);
associatedMasterId = "A22087AE-1668-478C-9B8B-D37A40788B8E";
layerId = "898EC6FB-E777-4EC7-9B4D-356C5AC0D264";
name = "Oct 8 19, 11:38";
shapes = (
{
closed = 1;
nodes = (
(632,396,o),
(654,491,o),
(697,561,cs),
(742,634,o),
(785,674,o),
(740,715,cs),
(705,747,o),
(635,713,o),
(559,666,cs),
(548,659,o),
(543,659,o),
(532,668,cs),
(461,730,o),
(388,753,o),
(269,753,cs),
(136,753,o),
(88,701,o),
(87,667,cs),
(86,635,o),
(123,616,o),
(169,625,cs),
(236,639,o),
(340,631,o),
(392,601,cs),
(408,592,o),
(408,582,o),
(392,573,cs),
(129,421,o),
(-51,100,o),
(78,5,cs),
(175,-66,o),
(439,52,o),
(524,243,cs),
(531,259,o),
(541,258,o),
(543,243,cs),
(562,89,o),
(621,0,o),
(714,0,cs),
(771,0,o),
(800,40,o),
(800,74,cs),
(800,108,o),
(740,149,o),
(683,280,cs)
);
},
{
closed = 1;
nodes = (
(345,180,o),
(257,133,o),
(220,159,cs),
(183,185,o),
(210,266,o),
(294,371,cs),
(357,449,o),
(419,492,o),
(455,515,cs),
(469,524,o),
(475,523,o),
(482,510,cs),
(508,456,o),
(489,375,o),
(416,276,cs)
);
}
);
width = 830;
}
);
unicode = 65;
},
{
glyphname = Aogonek;
kernLeft = A;
kernRight = A;
lastChange = "2019-12-04 10:07:11 +0000";
layers = (
{
layerId = "A22087AE-1668-478C-9B8B-D37A40788B8E";
shapes = (
{
closed = 1;
nodes = (
(714,-209,o),
(775,-161,o),
(797,-136,cs),
(804,-128,o),
(810,-120,o),
(807,-116,cs),
(803,-110,o),
(794,-110,o),
(781,-113,cs),
(756,-119,o),
(733,-121,o),
(714,-117,cs),
(684,-111,o),
(668,-88,o),
(674,-63,cs),
(682,-30,o),
(728,-5,o),
(762,12,c),
(635,27,l),
(649,16,o),
(656,9,o),
(645,3,cs),
(608,-19,o),
(582,-46,o),
(573,-86,cs),
(563,-131,o),
(589,-182,o),
(645,-194,cs)
);
},
{
ref = A;
}
);
width = 838;
}
);
metricLeft = A;
metricRight = A;
unicode = 260;
},
{
color = 4;
glyphname = AE;
kernLeft = A;
kernRight = E;
lastChange = "2021-02-22 16:53:55 +0000";
layers = (
{
anchors = (
{
name = bottom;
pos = (1259,0);
},
{
name = ogonek;
pos = (1569,10);
},
{
name = top;
pos = (1259,745);
},
{
name = topleft;
pos = (890,745);
}
);
background = {
shapes = (
{
closed = 1;
nodes = (
(1211,262,o),
(1210,288,o),
(1196,295,cs),
(1173,306,o),
(1159,290,o),
(1135,256,cs),
(1090,192,o),
(1019,142,o),
(925,142,cs),
(763,142,o),
(640,273,o),
(640,437,cs),
(640,560,o),
(721,660,o),
(840,660,cs),
(932,660,o),
(993,610,o),
(1045,527,cs),
(1080,471,o),
(1114,474,o),
(1137,504,cs),
(1156,529,o),
(1175,664,o),
(1173,695,cs),
(1170,738,o),
(1147,740,o),
(1081,730,cs),
(1012,720,o),
(989,760,o),
(867,760,cs),
(664,760,o),
(490,586,o),
(490,373,cs),
(490,160,o),
(654,-14,o),
(867,-14,cs),
(1047,-14,o),
(1146,101,o),
(1198,230,cs)
);
},
{
closed = 1;
nodes = (
(1024,251,o),
(1030,309,o),
(1020,391,cs),
(1012,457,o),
(983,519,o),
(930,519,cs),
(867,519,o),
(899,435,o),
(724,448,cs),
(668,452,o),
(632,453,o),
(657,532,c),
(537,371,l),
(682,279,l),
(642,349,o),
(686,349,o),
(734,352,cs),
(845,359,o),
(887,339,o),
(909,299,cs),
(930,260,o),
(957,231,o),
(994,242,cs)
);
},
{
closed = 1;
nodes = (
(622,396,o),
(572,506,o),
(632,568,cs),
(686,623,o),
(642,646,o),
(639,617,c),
(611,572,o),
(596,594,o),
(545,657,cs),
(467,728,o),
(393,753,o),
(269,753,cs),
(136,753,o),
(88,701,o),
(87,667,cs),
(86,635,o),
(114,616,o),
(159,623,cs),
(230,634,o),
(337,638,o),
(417,587,c),
(135,430,o),
(-59,83,o),
(72,-13,cs),
(170,-85,o),
(448,56,o),
(539,277,c),
(561,92,o),
(668,56,o),
(763,56,cs),
(820,56,o),
(810,0,o),
(810,44,cs),
(810,88,o),
(730,149,o),
(673,280,cs)
);
},
{
closed = 1;
nodes = (
(345,180,o),
(257,133,o),
(220,159,cs),
(183,185,o),
(210,266,o),
(294,371,cs),
(357,449,o),
(419,493,o),
(473,527,c),
(509,463,o),
(492,379,o),
(416,276,cs)
);
}
);
};
layerId = "A22087AE-1668-478C-9B8B-D37A40788B8E";
shapes = (
{
closed = 1;
nodes = (
(1056,-14,o),
(1155,101,o),
(1207,230,cs),
(1220,262,o),
(1219,288,o),
(1205,295,cs),
(1182,306,o),
(1168,290,o),
(1144,256,cs),
(1099,192,o),
(1028,142,o),
(934,142,cs),
(822,142,o),
(723,202,o),
(682,298,cs),
(660,349,o),
(700,349,o),
(743,352,cs),
(854,360,o),
(896,339,o),
(918,299,cs),
(939,260,o),
(966,231,o),
(1003,242,cs),
(1033,251,o),
(1039,309,o),
(1029,391,cs),
(1021,457,o),
(992,519,o),
(939,519,cs),
(876,519,o),
(908,435,o),
(733,448,cs),
(679,452,o),
(647,462,o),
(664,524,cs),
(686,605,o),
(760,660,o),
(849,660,cs),
(941,660,o),
(1002,610,o),
(1054,527,cs),
(1089,471,o),
(1123,474,o),
(1146,504,cs),
(1165,529,o),
(1184,664,o),
(1182,695,cs),
(1179,738,o),
(1156,740,o),
(1090,730,cs),
(1021,720,o),
(998,760,o),
(876,760,cs),
(784,760,o),
(683,723,o),
(594,627,cs),
(582,614,o),
(576,614,o),
(567,628,cs),
(515,712,o),
(397,753,o),
(269,753,cs),
(136,753,o),
(88,701,o),
(87,667,cs),
(86,635,o),
(123,617,o),
(169,625,cs),
(236,636,o),
(340,630,o),
(392,601,cs),
(408,592,o),
(408,582,o),
(392,573,cs),
(127,424,o),
(-51,100,o),
(78,5,cs),
(171,-63,o),
(413,40,o),
(507,210,cs),
(517,229,o),
(522,229,o),
(532,209,cs),
(605,69,o),
(728.992,-14,o),
(876,-14,cs)
);
},
{
closed = 1;
nodes = (
(183,185,o),
(210,266,o),
(294,371,cs),
(357,449,o),
(419,492,o),
(455,515,cs),
(469,524,o),
(475,523,o),
(482,510,cs),
(510,457,o),
(489,375,o),
(416,276,cs),
(345,180,o),
(257,133,o),
(220,159,cs)
);
}
);
width = 1236;
},
{
anchors = (
{
name = bottom;
pos = (1289,0);
},
{
name = ogonek;
pos = (1599,10);
},
{
name = top;
pos = (1289,745);
},
{
name = topleft;
pos = (920,745);
}
);
associatedMasterId = "A22087AE-1668-478C-9B8B-D37A40788B8E";
background = {
shapes = (
{
closed = 1;
nodes = (
(652,396,o),
(684,491,o),
(727,561,cs),
(772,634,o),
(815,674,o),
(770,715,cs),
(733,749,o),
(658,710,o),
(575,657,c),
(497,728,o),
(423,753,o),
(299,753,cs),
(166,753,o),
(118,701,o),
(117,667,cs),
(116,635,o),
(144,616,o),
(189,623,cs),
(260,634,o),
(367,638,o),
(447,587,c),
(165,430,o),
(-29,83,o),
(102,-13,cs),
(200,-85,o),
(478,56,o),
(569,277,c),
(591,92,o),
(649,0,o),
(744,0,cs),
(801,0,o),
(840,0,o),
(840,44,cs),
(840,88,o),
(760,149,o),
(703,280,cs)
);
}
);
};
layerId = "A3E92814-389D-4999-9418-CAB553F56E77";
name = "Aug 7 18, 12:55";
shapes = (
{
closed = 1;
nodes = (
(1241,262,o),
(1240,288,o),
(1226,295,cs),
(1203,306,o),
(1189,290,o),
(1165,256,cs),
(1120,192,o),
(1049,142,o),
(955,142,cs),
(793,142,o),
(670,273,o),
(670,437,cs),
(670,560,o),
(751,660,o),
(870,660,cs),
(962,660,o),
(1023,610,o),
(1075,527,cs),
(1110,471,o),
(1144,474,o),
(1167,504,cs),
(1186,529,o),
(1205,664,o),
(1203,695,cs),
(1200,738,o),
(1177,740,o),
(1111,730,cs),
(1042,720,o),
(1019,760,o),
(897,760,cs),
(694,760,o),
(520,586,o),
(520,373,cs),
(520,160,o),
(684,-14,o),
(897,-14,cs),
(1077,-14,o),
(1176,101,o),
(1228,230,cs)
);
},
{
closed = 1;
nodes = (
(1054,251,o),
(1060,309,o),
(1050,391,cs),
(1042,457,o),
(1013,519,o),
(960,519,cs),
(897,519,o),
(929,435,o),
(754,448,cs),
(698,452,o),
(662,453,o),
(687,532,c),
(567,371,l),
(712,279,l),
(672,349,o),
(716,349,o),
(764,352,cs),
(875,359,o),
(917,339,o),
(939,299,cs),
(960,260,o),
(987,231,o),
(1024,242,cs)
);
},
{
closed = 1;
nodes = (
(652,396,o),
(602,506,o),
(662,568,cs),
(716,623,o),
(672,646,o),
(669,617,c),
(641,572,o),
(626,594,o),
(575,657,cs),
(497,728,o),
(423,753,o),
(299,753,cs),
(166,753,o),
(118,701,o),
(117,667,cs),
(116,635,o),
(144,616,o),
(189,623,cs),
(260,634,o),
(367,638,o),
(447,587,c),
(165,430,o),
(-29,83,o),
(102,-13,cs),
(200,-85,o),
(478,56,o),
(569,277,c),
(591,92,o),
(698,56,o),
(793,56,cs),
(850,56,o),
(840,0,o),
(840,44,cs),
(840,88,o),
(760,149,o),
(703,280,cs)
);
},
{
closed = 1;
nodes = (
(375,180,o),
(287,133,o),
(250,159,cs),
(213,185,o),
(240,266,o),
(324,371,cs),
(387,449,o),
(449,493,o),
(503,527,c),
(539,463,o),
(522,379,o),
(446,276,cs)
);
}
);
width = 1677;
},
{
anchors = (
{
name = bottom;
pos = (1259,0);
},
{
name = ogonek;
pos = (1569,10);
},
{
name = top;
pos = (1259,745);
},
{
name = topleft;
pos = (890,745);
}
);
associatedMasterId = "A22087AE-1668-478C-9B8B-D37A40788B8E";
background = {
shapes = (
{
closed = 1;
nodes = (
(622,396,o),
(654,491,o),
(697,561,cs),
(742,634,o),
(785,674,o),
(740,715,cs),
(703,749,o),
(628,710,o),
(545,657,c),
(467,728,o),
(393,753,o),
(269,753,cs),
(136,753,o),
(88,701,o),
(87,667,cs),
(86,635,o),
(114,616,o),
(159,623,cs),
(230,634,o),
(337,638,o),
(417,587,c),
(135,430,o),
(-59,83,o),
(72,-13,cs),
(170,-85,o),
(448,56,o),
(539,277,c),
(561,92,o),
(619,0,o),
(714,0,cs),
(771,0,o),
(810,0,o),
(810,44,cs),
(810,88,o),
(730,149,o),
(673,280,cs)
);
}
);
};
layerId = "0EDC8789-34F4-4711-9A04-8B7F384EAA67";
name = "Aug 25 19, 11:02";
shapes = (
{
closed = 1;
nodes = (
(1211,262,o),
(1210,288,o),
(1196,295,cs),
(1173,306,o),
(1159,290,o),
(1135,256,cs),
(1090,192,o),
(1019,142,o),
(925,142,cs),
(763,142,o),
(640,273,o),
(640,437,cs),
(640,560,o),
(721,660,o),
(840,660,cs),
(932,660,o),
(993,610,o),
(1045,527,cs),
(1080,471,o),
(1114,474,o),
(1137,504,cs),
(1156,529,o),
(1175,664,o),
(1173,695,cs),
(1170,738,o),
(1147,740,o),
(1081,730,cs),
(1012,720,o),
(989,760,o),
(867,760,cs),
(664,760,o),
(490,586,o),
(490,373,cs),
(490,160,o),
(654,-14,o),
(867,-14,cs),
(1047,-14,o),
(1146,101,o),
(1198,230,cs)
);
},
{
closed = 1;
nodes = (
(1024,251,o),
(1030,309,o),
(1020,391,cs),
(1012,457,o),
(983,519,o),
(930,519,cs),
(867,519,o),
(899,435,o),
(724,448,cs),
(668,452,o),
(632,453,o),
(657,532,c),
(537,371,l),
(682,279,l),
(642,349,o),
(686,349,o),
(734,352,cs),
(845,359,o),
(887,339,o),
(909,299,cs),
(930,260,o),
(957,231,o),
(994,242,cs)
);
},
{
closed = 1;
nodes = (
(622,396,o),
(572,506,o),
(632,568,cs),
(686,623,o),
(642,646,o),
(639,617,c),
(611,572,o),
(596,594,o),
(545,657,cs),
(467,728,o),
(393,753,o),
(269,753,cs),
(136,753,o),
(88,701,o),
(87,667,cs),
(86,635,o),
(114,616,o),
(159,623,cs),
(230,634,o),
(337,638,o),
(417,587,c),
(135,430,o),
(-59,83,o),
(72,-13,cs),
(170,-85,o),
(448,56,o),
(539,277,c),
(561,92,o),
(668,56,o),
(763,56,cs),
(820,56,o),
(810,0,o),
(810,44,cs),
(810,88,o),
(730,149,o),
(673,280,cs)
);
},
{
closed = 1;
nodes = (
(345,180,o),
(257,133,o),
(220,159,cs),
(183,185,o),
(210,266,o),
(294,371,cs),
(357,449,o),
(419,493,o),
(473,527,c),
(509,463,o),
(492,379,o),
(416,276,cs)
);
}
);
width = 1227;
},
{
anchors = (
{
name = bottom;
pos = (1259,0);
},
{
name = ogonek;
pos = (1569,10);
},
{
name = top;
pos = (1259,745);
},
{
name = topleft;
pos = (890,745);
}
);
associatedMasterId = "A22087AE-1668-478C-9B8B-D37A40788B8E";
background = {
shapes = (
{
closed = 1;
nodes = (
(1211,262,o),
(1210,288,o),
(1196,295,cs),
(1173,306,o),
(1159,290,o),
(1135,256,cs),
(1090,192,o),
(1019,142,o),
(925,142,cs),
(763,142,o),
(640,273,o),
(640,437,cs),
(640,560,o),
(721,660,o),
(840,660,cs),
(932,660,o),
(993,610,o),
(1045,527,cs),
(1080,471,o),
(1114,474,o),
(1137,504,cs),
(1156,529,o),
(1175,664,o),
(1173,695,cs),
(1170,738,o),
(1147,740,o),
(1081,730,cs),
(1012,720,o),
(989,760,o),
(867,760,cs),
(664,760,o),
(490,586,o),
(490,373,cs),
(490,160,o),
(654,-14,o),
(867,-14,cs),
(1047,-14,o),
(1146,101,o),
(1198,230,cs)
);
},
{
closed = 1;
nodes = (
(1024,251,o),
(1030,309,o),
(1020,391,cs),
(1012,457,o),
(983,519,o),
(930,519,cs),
(867,519,o),
(899,435,o),
(724,448,cs),
(668,452,o),
(632,453,o),
(657,532,c),
(537,371,l),
(682,279,l),
(642,349,o),
(686,349,o),
(734,352,cs),
(845,359,o),
(887,339,o),
(909,299,cs),
(930,260,o),
(957,231,o),
(994,242,cs)
);
},
{
closed = 1;
nodes = (
(622,396,o),
(572,506,o),
(632,568,cs),
(686,623,o),
(642,646,o),
(639,617,c),
(611,572,o),
(596,594,o),
(545,657,cs),
(467,728,o),
(393,753,o),
(269,753,cs),
(136,753,o),
(88,701,o),
(87,667,cs),
(86,635,o),
(114,616,o),
(159,623,cs),
(230,634,o),
(337,638,o),
(417,587,c),
(135,430,o),
(-59,83,o),
(72,-13,cs),
(170,-85,o),
(448,56,o),
(539,277,c),
(561,92,o),
(668,56,o),
(763,56,cs),
(820,56,o),
(810,0,o),
(810,44,cs),
(810,88,o),
(730,149,o),
(673,280,cs)
);
},
{
closed = 1;
nodes = (
(345,180,o),
(257,133,o),
(220,159,cs),
(183,185,o),
(210,266,o),
(294,371,cs),
(357,449,o),
(419,493,o),
(473,527,c),
(509,463,o),
(492,379,o),
(416,276,cs)
);
}
);
};
layerId = "54AD1FEB-04FD-4B02-AD91-03B999D7AC93";
name = "Oct 8 19, 11:49";
shapes = (
{
closed = 1;
nodes = (
(1182,306,o),
(1168,290,o),
(1144,256,cs),
(1099,192,o),
(1028,142,o),
(934,142,cs),
(822,142,o),
(723,202,o),
(682,298,cs),
(660,349,o),
(700,349,o),
(743,352,cs),
(854,360,o),
(896,339,o),
(918,299,cs),
(939,260,o),
(966,231,o),
(1003,242,cs),
(1033,251,o),
(1039,309,o),
(1029,391,cs),
(1021,457,o),
(992,519,o),
(939,519,cs),
(876,519,o),
(908,435,o),
(733,448,cs),
(679,452,o),
(647,462,o),
(664,524,cs),
(686,605,o),
(760,660,o),
(849,660,cs),
(941,660,o),
(1002,610,o),
(1054,527,cs),
(1089,471,o),
(1123,474,o),
(1146,504,cs),
(1165,529,o),
(1184,664,o),
(1182,695,cs),
(1179,738,o),
(1156,740,o),
(1090,730,cs),
(1021,720,o),
(998,760,o),
(876,760,cs),
(770,760,o),
(652,714,o),
(557,580,c),
(519,237,l),
(592,78,o),
(721,-14,o),
(876,-14,cs),
(1056,-14,o),
(1155,101,o),
(1207,230,cs),
(1220,262,o),
(1219,288,o),
(1205,295,cs)
);
},
{
closed = 1;
nodes = (
(529,254,o),
(599,404,o),
(600,526,cs),
(600,584,o),
(564,641,o),
(532,668,cs),
(459,728,o),
(388,753,o),
(269,753,cs),
(136,753,o),
(88,701,o),
(87,667,cs),
(86,635,o),
(123,616,o),
(169,625,cs),
(236,638,o),
(340,630,o),
(392,601,cs),
(408,592,o),
(408,582,o),
(392,573,cs),
(127,424,o),
(-51,100,o),
(78,5,cs),
(175,-66,o),
(440,51,o),
(524,243,cs)
);
},
{
closed = 1;
nodes = (
(345,180,o),
(257,133,o),
(220,159,cs),
(183,185,o),
(210,266,o),
(294,371,cs),
(357,449,o),
(419,492,o),
(455,515,cs),
(469,524,o),
(475,523,o),
(482,510,cs),
(510,457,o),
(489,375,o),
(416,276,cs)
);
}
);
width = 1227;
}
);
metricLeft = A;
metricRight = E;
unicode = 198;
},
{
color = 4;
glyphname = B;
kernLeft = B;
kernRight = B;
lastChange = "2019-12-04 10:07:11 +0000";
layers = (
{
background = {
shapes = (
{
closed = 1;
nodes = (
(320,165,o),
(314,240,o),
(314,324,cs),
(314,421,ls),
(314,505,o),
(320,580,o),
(345,613,cs),
(386,667,o),
(422,659,o),
(422,706,cs),
(422,732,o),
(398,750,o),
(361,750,cs),
(310,750,o),
(284,742,o),
(241,742,cs),
(199,742,o),
(161,750,o),
(121,750,cs),
(84,750,o),
(60,732,o),
(60,706,cs),
(60,659,o),
(96,667,o),
(137,613,cs),
(162,580,o),
(168,505,o),
(168,421,cs),
(168,324,ls),
(168,240,o),
(162,165,o),
(137,132,cs),
(96,78,o),
(60,86,o),
(60,39,cs),
(60,13,o),
(84,-5,o),
(121,-5,cs),
(172,-5,o),
(199,3,o),
(241,3,cs),
(284,3,o),
(321,-5,o),
(361,-5,cs),
(398,-5,o),
(422,13,o),
(422,39,cs),
(422,86,o),
(386,78,o),
(345,132,cs)
);
}
);
};
layerId = "A22087AE-1668-478C-9B8B-D37A40788B8E";
shapes = (
{
closed = 1;
nodes = (
(635,-6,o),
(752,89,o),
(752,231,cs),
(752,339,o),
(687,406,o),
(600,409,cs),
(588,409,o),
(588,415,o),
(597,420,cs),
(666,456,o),
(728,503,o),
(728,611,cs),
(728,703,o),
(657,764,o),
(550,764,cs),
(463,764,o),
(409,723,o),
(327,723,cs),
(245,723,o),
(153,750,o),
(121,750,cs),
(84,750,o),
(60,733,o),
(60,706,cs),
(60,659,o),
(96,667,o),
(137,613,cs),
(162,580,o),
(168,505,o),
(168,421,cs),
(168,324,ls),
(168,240,o),
(162,165,o),
(137,132,cs),
(96,78,o),
(60,86,o),
(60,39,cs),
(60,11,o),
(84,-5,o),
(121,-5,cs),
(172,-5,o),
(199,3,o),
(241,3,cs),
(311,3,o),
(372,-6,o),
(460,-6,cs)
);
},
{
closed = 1;
nodes = (
(292,147,o),
(278,252,o),
(353,301,cs),
(424,346,o),
(507,354,o),
(557,325,cs),
(613,292,o),
(613,205,o),
(535,128,cs),
(473,68,o),
(360,61,o),
(324,106,cs)
);
},
{
closed = 1;
nodes = (
(300,406,o),
(289,466,o),
(308,532,cs),
(326,595,o),
(382,636,o),
(449,648,cs),
(517,660,o),
(576,633,o),
(576,578,cs),
(576,468,o),
(386,367,o),
(329,393,cs)
);
}
);
width = 786;
},
{
associatedMasterId = "A22087AE-1668-478C-9B8B-D37A40788B8E";
background = {
shapes = (
{
closed = 1;
nodes = (
(276,165,o),
(270,240,o),
(270,324,cs),
(270,421,ls),
(270,505,o),
(276,580,o),
(301,613,cs),
(342,667,o),
(378,659,o),
(378,706,cs),
(378,732,o),
(354,750,o),
(317,750,cs),
(266,750,o),
(240,742,o),
(197,742,cs),
(155,742,o),
(117,750,o),
(77,750,cs),
(40,750,o),
(16,732,o),
(16,706,cs),
(16,659,o),
(52,667,o),
(93,613,cs),
(118,580,o),
(124,505,o),
(124,421,cs),
(124,324,ls),
(124,240,o),
(118,165,o),
(93,132,cs),
(52,78,o),
(16,86,o),
(16,39,cs),
(16,13,o),
(40,-5,o),
(77,-5,cs),
(128,-5,o),
(155,3,o),
(197,3,cs),
(240,3,o),
(277,-5,o),
(317,-5,cs),
(354,-5,o),
(378,13,o),
(378,39,cs),
(378,86,o),
(342,78,o),
(301,132,cs)
);
}
);
};
layerId = "181B986A-0E3D-4142-B76D-F68BD458A972";
name = "Jul 31 18, 10:34";
shapes = (
{
closed = 1;
nodes = (
(606,446,o),
(684,490,o),
(684,611,cs),
(684,700,o),
(593,764,o),
(506,764,cs),
(419,764,o),
(365,713,o),
(283,713,cs),
(201,713,o),
(113,751,o),
(81,751,cs),
(59,751,o),
(40,727,o),
(40,700,cs),
(40,670,o),
(48,653,o),
(67,641,cs),
(96,623,o),
(123,604,o),
(123,465,cs),
(123,286,ls),
(123,190,o),
(108,147,o),
(95,124,cs),
(82,101,o),
(55,86,o),
(55,49,cs),
(55,2,o),
(103,-5,o),
(176,0,cs),
(246,5,o),
(328,-6,o),
(416,-6,cs),
(592,-6,o),
(708,119,o),
(708,231,cs),
(708,350,o),
(629,417,o),
(531,408,c)
);
},
{
closed = 1;
nodes = (
(473,660,o),
(532,633,o),
(532,578,cs),
(532,468,o),
(352,367,o),
(295,393,cs),
(266,406,o),
(270,466,o),
(286,541,cs),
(298,595,o),
(338,636,o),
(405,648,cs)
);
},
{
closed = 1;
nodes = (
(316,61,o),
(280,106,cs),
(248,147,o),
(238,259,o),
(313,308,cs),
(384,353,o),
(463,364,o),
(506,339,cs),
(569,302,o),
(569,205,o),
(491,128,cs),
(429,68,o)
);
}
);
width = 733;
},
{
associatedMasterId = "A22087AE-1668-478C-9B8B-D37A40788B8E";
background = {
shapes = (
{
closed = 1;
nodes = (
(320,165,o),
(314,240,o),
(314,324,cs),
(314,421,ls),
(314,505,o),
(320,580,o),
(345,613,cs),
(386,667,o),
(422,659,o),
(422,706,cs),
(422,732,o),
(398,750,o),
(361,750,cs),
(310,750,o),
(284,742,o),
(241,742,cs),
(199,742,o),
(161,750,o),
(121,750,cs),
(84,750,o),
(60,732,o),
(60,706,cs),
(60,659,o),
(96,667,o),
(137,613,cs),
(162,580,o),
(168,505,o),
(168,421,cs),
(168,324,ls),
(168,240,o),
(162,165,o),
(137,132,cs),
(96,78,o),
(60,86,o),
(60,39,cs),
(60,13,o),
(84,-5,o),
(121,-5,cs),
(172,-5,o),
(199,3,o),
(241,3,cs),
(284,3,o),
(321,-5,o),
(361,-5,cs),
(398,-5,o),
(422,13,o),
(422,39,cs),
(422,86,o),
(386,78,o),
(345,132,cs)
);
}
);
};
layerId = "1FC0770F-6D09-41B4-8DD8-4AAAAC8BE48F";
name = "Jul 10 19, 16:48";
shapes = (
{
closed = 1;
nodes = (
(650,446,o),
(728,490,o),
(728,611,cs),
(728,700,o),
(637,764,o),
(550,764,cs),
(463,764,o),
(409,723,o),
(327,723,cs),
(245,723,o),
(153,750,o),
(121,750,cs),
(84,750,o),
(60,733,o),
(60,706,cs),
(60,659,o),
(96,667,o),
(137,613,cs),
(162,580,o),
(168,505,o),
(168,421,cs),
(168,324,ls),
(168,240,o),
(162,165,o),
(137,132,cs),
(96,78,o),
(60,86,o),
(60,39,cs),
(60,11,o),
(84,-5,o),
(121,-5,cs),
(172,-5,o),
(199,3,o),
(241,3,cs),
(311,3,o),
(372,-6,o),
(460,-6,cs),
(636,-6,o),
(752,119,o),
(752,231,cs),
(752,350,o),
(673,417,o),
(575,408,c)
);
},
{
closed = 1;
nodes = (
(517,660,o),
(576,633,o),
(576,578,cs),
(576,468,o),
(386,367,o),
(329,393,cs),
(300,406,o),
(289,466,o),
(308,532,cs),
(326,595,o),
(382,636,o),
(449,648,cs)
);
},
{
closed = 1;
nodes = (
(360,61,o),
(324,106,cs),
(292,147,o),
(278,252,o),
(353,301,cs),
(424,346,o),
(507,354,o),
(557,325,cs),
(613,292,o),
(613,205,o),
(535,128,cs),
(473,68,o)
);
}
);
width = 787;
}
);
unicode = 66;
},
{
color = 4;
glyphname = C;
kernLeft = C;
kernRight = C;
lastChange = "2019-12-04 10:07:11 +0000";
layers = (
{
anchors = (
{
name = bottom;
pos = (379,0);
},
{
name = top;
pos = (406,745);
}
);
layerId = "A22087AE-1668-478C-9B8B-D37A40788B8E";
shapes = (
{
closed = 1;
nodes = (
(587,-14,o),
(686,101,o),
(738,230,cs),
(751,262,o),
(750,288,o),
(736,295,cs),
(713,306,o),
(699,290,o),
(675,256,cs),
(630,192,o),
(559,142,o),
(465,142,cs),
(303,142,o),
(180,273,o),
(180,437,cs),
(180,560,o),
(261,660,o),
(380,660,cs),
(472,660,o),
(533,610,o),
(585,527,cs),
(620,471,o),
(654,474,o),
(677,504,cs),
(696,529,o),
(715,664,o),
(713,695,cs),
(710,738,o),
(687,740,o),
(621,730,cs),
(552,720,o),
(529,760,o),
(407,760,cs),
(204,760,o),
(30,586,o),
(30,373,cs),
(30,160,o),
(194,-14,o),
(407,-14,cs)
);
}
);
width = 767;
},
{
associatedMasterId = "A22087AE-1668-478C-9B8B-D37A40788B8E";
layerId = "DB8B0514-1C8A-4C1B-80EF-FB9D35945C7F";
name = "Aug 1 18, 18:29";
shapes = (
{
closed = 1;
nodes = (
(753,262,o),
(752,288,o),
(738,295,cs),
(724,303,o),
(701,290,o),
(682,263,cs),
(631,192,o),
(551,142,o),
(447,142,cs),
(285,142,o),
(162,273,o),
(162,437,cs),
(162,560,o),
(243,660,o),
(362,660,cs),
(454,660,o),
(535,610,o),
(587,527,cs),
(622,471,o),
(656,474,o),
(679,504,cs),
(698,529,o),
(717,664,o),
(715,695,cs),
(712,738,o),
(689,740,o),
(623,730,cs),
(554,720,o),
(511,760,o),
(389,760,cs),
(186,760,o),
(12,586,o),
(12,373,cs),
(12,160,o),
(176,-14,o),
(399,-14,cs),
(569,-14,o),
(688,101,o),
(740,230,cs)
);
}
);
width = 800;
}
);
metricLeft = O;
unicode = 67;
},
{
color = 4;
glyphname = D;
kernLeft = D;
kernRight = D;
lastChange = "2019-12-04 10:07:11 +0000";
layers = (
{
anchors = (
{
name = bottom;
pos = (471,0);
},
{
name = center;
pos = (471,373);
},
{
name = top;
pos = (471,745);
}
);
background = {
shapes = (
{
closed = 1;
nodes = (
(735,-29,o),
(914,151,o),
(914,373,cs),
(914,605,o),
(735,775,o),
(513,775,cs),
(291,775,o),
(112,595,o),
(112,373,cs),
(112,141,o),
(291,-29,o),
(513,-29,cs)
);
},
{
closed = 1;
nodes = (
(664,97,o),
(548,97,cs),
(387,97,o),
(283,283,o),
(283,454,cs),
(283,577,o),
(362,669,o),
(478,669,cs),
(639,669,o),
(743,484,o),
(743,313,cs),
(743,190,o)
);
}
);
};
layerId = "A22087AE-1668-478C-9B8B-D37A40788B8E";
shapes = (
{
closed = 1;
nodes = (
(172,-5,o),
(211,30,o),
(396,6,cs),
(647,-26,o),
(912,52,o),
(912,373,cs),
(912,605,o),
(743,765,o),
(521,765,cs),
(415,765,o),
(351,742,o),
(251,742,cs),
(209,742,o),
(161,750,o),
(131,750,cs),
(94,750,o),
(70,732,o),
(70,702,cs),
(70,669,o),
(96,667,o),
(137,613,cs),
(162,580,o),
(168,505,o),
(168,421,cs),
(168,324,ls),
(168,240,o),
(162,165,o),
(137,132,cs),
(96,78,o),
(60,86,o),
(60,39,cs),
(60,13,o),
(84,-5,o),
(121,-5,cs)
);
},
{
closed = 1;
nodes = (
(357,110,o),
(311,219,o),
(311,451,cs),
(311,612,o),
(364,669,o),
(466,669,cs),
(639,669,o),
(743,484,o),
(743,312,cs),
(743,179,o),
(647,68,o),
(486,91,cs)
);
}
);
width = 942;
},
{
associatedMasterId = "A22087AE-1668-478C-9B8B-D37A40788B8E";
layerId = "9F321956-73EB-4CA3-8979-8BA437104688";
name = "Aug 2 18, 13:01";
shapes = (
{
closed = 1;
nodes = (
(773,-29,o),
(952,151,o),
(952,373,cs),
(952,605,o),
(773,775,o),
(551,775,cs),
(329,775,o),
(220,595,o),
(220,373,cs),
(220,141,o),
(329,-29,o),
(551,-29,cs)
);
},
{
closed = 1;
nodes = (
(702,97,o),
(586,97,cs),
(425,97,o),
(321,283,o),
(321,454,cs),
(321,577,o),
(400,669,o),
(516,669,cs),
(677,669,o),
(781,484,o),
(781,313,cs),
(781,190,o)
);
},
{
closed = 1;
nodes = (
(340,165,o),
(314,240,o),
(314,324,cs),
(314,421,ls),
(314,505,o),
(340,580,o),
(365,613,cs),
(406,667,o),
(432,669,o),
(432,702,cs),
(432,732,o),
(408,750,o),
(371,750,cs),
(330,750,o),
(304,742,o),
(261,742,cs),
(219,742,o),
(181,750,o),
(151,750,cs),
(114,750,o),
(90,732,o),
(90,702,cs),
(90,669,o),
(116,667,o),
(157,613,cs),
(182,580,o),
(188,505,o),
(188,421,cs),
(188,324,ls),
(188,240,o),
(182,165,o),
(157,132,cs),
(116,78,o),
(80,86,o),
(80,39,cs),
(80,13,o),
(104,-5,o),
(141,-5,cs),
(192,-5,o),
(219,3,o),
(261,3,cs),
(304,3,o),
(341,-5,o),
(381,-5,cs),
(418,-5,o),
(442,13,o),
(442,39,cs),
(442,86,o),
(406,78,o),
(365,132,cs)
);
}
);
width = 1000;
},
{
associatedMasterId = "A22087AE-1668-478C-9B8B-D37A40788B8E";
layerId = "1F1DA237-ADC3-48F9-BD20-4F4DA2A7C28C";
name = "Aug 2 18, 13:05";
shapes = (
{
closed = 1;
nodes = (
(435,765,o),
(361,742,o),
(261,742,cs),
(219,742,o),
(171,750,o),
(141,750,cs),
(104,750,o),
(80,732,o),
(80,702,cs),
(80,669,o),
(106,667,o),
(147,613,cs),
(172,580,o),
(178,505,o),
(178,421,cs),
(178,324,ls),
(178,240,o),
(172,165,o),
(147,132,cs),
(106,78,o),
(70,86,o),
(70,39,cs),
(70,13,o),
(94,-5,o),
(131,-5,cs),
(182,-5,o),
(219,13,o),
(446,3,cs),
(667,-7,o),
(942,52,o),
(942,373,cs),
(942,605,o),
(773,765,o),
(551,765,cs)
);
},
{
closed = 1;
nodes = (
(368,110,o),
(321,163,o),
(321,384,cs),
(321,607,o),
(368,659,o),
(476,669,cs),
(690,689,o),
(771,544,o),
(771,363,cs),
(771,190,o),
(660,83,o),
(476,100,cs)
);
}
);
width = 1000;
},
{
associatedMasterId = "A22087AE-1668-478C-9B8B-D37A40788B8E";
layerId = "72C95480-DA81-4485-9666-DD3BF1904C09";
name = "Aug 2 18, 13:08";
shapes = (
{
closed = 1;
nodes = (
(360,100,o),
(375,81,o),
(402,62,cs),
(622,-98,o),
(911,23,o),
(938,333,cs),
(962,605,o),
(773,765,o),
(551,765,cs),
(435,765,o),
(361,742,o),
(261,742,cs),
(219,742,o),
(171,750,o),
(141,750,cs),
(104,750,o),
(80,732,o),
(80,702,cs),
(80,669,o),
(106,667,o),
(147,613,cs),
(172,580,o),
(178,505,o),
(178,421,cs),
(178,324,ls),
(178,240,o),
(172,165,o),
(147,132,cs),
(106,78,o),
(70,86,o),
(70,39,cs),
(70,13,o),
(94,-5,o),
(131,-5,cs),
(169,-5,o),
(189,-1,o),
(242,-1,cs),
(297,0,o),
(321,35,o),
(321,97,cs),
(321,139,o),
(321,269,o),
(321,384,cs),
(321,607,o),
(368,659,o),
(476,669,cs),
(690,689,o),
(792,543,o),
(767,323,cs),
(752,191,o),
(611,63,o),
(446,130,cs),
(414,143,o),
(387,150,o),
(373,124,cs)
);
}
);
width = 1000;
},
{
associatedMasterId = "A22087AE-1668-478C-9B8B-D37A40788B8E";
background = {
shapes = (
{
closed = 1;
nodes = (
(745,-29,o),
(924,151,o),
(924,373,cs),
(924,605,o),
(745,775,o),
(523,775,cs),
(301,775,o),
(122,595,o),
(122,373,cs),
(122,141,o),
(301,-29,o),
(523,-29,cs)
);
},
{
closed = 1;
nodes = (
(674,97,o),
(558,97,cs),
(397,97,o),
(293,283,o),
(293,454,cs),
(293,577,o),
(372,669,o),
(488,669,cs),
(649,669,o),
(753,484,o),
(753,313,cs),
(753,190,o)
);
}
);
};
layerId = "FF7853E3-DAA7-4BA8-AE85-3274367278C8";
name = "Aug 2 18, 13:15";
shapes = (
{
closed = 1;
nodes = (
(425,765,o),
(361,742,o),
(261,742,cs),
(219,742,o),
(171,750,o),
(141,750,cs),
(104,750,o),
(80,732,o),
(80,702,cs),
(80,669,o),
(106,667,o),
(147,613,cs),
(172,580,o),
(178,505,o),
(178,421,cs),
(178,324,ls),
(178,240,o),
(172,165,o),
(147,132,cs),
(106,78,o),
(70,86,o),
(70,39,cs),
(70,13,o),
(94,-5,o),
(131,-5,cs),
(182,-5,o),
(221,30,o),
(406,6,cs),
(657,-26,o),
(922,52,o),
(922,373,cs),
(922,605,o),
(753,765,o),
(531,765,cs)
);
},
{
closed = 1;
nodes = (
(359,111,o),
(321,153,o),
(321,234,cs),
(321,501,ls),
(321,612,o),
(374,660,o),
(476,669,cs),
(670,686,o),
(751,544,o),
(751,363,cs),
(751,190,o),
(630,72,o),
(456,97,cs)
);
}
);
width = 952;
},
{
associatedMasterId = "A22087AE-1668-478C-9B8B-D37A40788B8E";
background = {
shapes = (
{
closed = 1;
nodes = (
(735,-29,o),
(914,151,o),
(914,373,cs),
(914,605,o),
(735,775,o),
(513,775,cs),
(291,775,o),
(112,595,o),
(112,373,cs),
(112,141,o),
(291,-29,o),
(513,-29,cs)
);
},
{
closed = 1;
nodes = (
(664,97,o),
(548,97,cs),
(387,97,o),
(283,283,o),
(283,454,cs),
(283,577,o),
(362,669,o),
(478,669,cs),
(639,669,o),
(743,484,o),
(743,313,cs),
(743,190,o)
);
}
);
};
layerId = "DE90DC1E-A9B1-4506-B2BC-E791BA67443F";
name = "Jul 10 19, 16:54";
shapes = (
{
closed = 1;
nodes = (
(415,765,o),
(351,742,o),
(251,742,cs),
(209,742,o),
(161,750,o),
(131,750,cs),
(94,750,o),
(70,732,o),
(70,702,cs),
(70,669,o),
(96,667,o),
(137,613,cs),
(162,580,o),
(168,505,o),
(168,421,cs),
(168,324,ls),
(168,240,o),
(162,165,o),
(137,132,cs),
(96,78,o),
(60,86,o),
(60,39,cs),
(60,13,o),
(84,-5,o),
(121,-5,cs),
(172,-5,o),
(211,30,o),
(396,6,cs),
(647,-26,o),
(912,52,o),
(912,373,cs),
(912,605,o),
(743,765,o),
(521,765,cs)
);
},
{
closed = 1;
nodes = (
(349,111,o),
(311,153,o),
(311,264,cs),
(311,501,ls),
(311,612,o),
(364,669,o),
(466,669,cs),
(639,669,o),
(743,484,o),
(743,312,cs),
(743,179,o),
(647,68,o),
(446,97,cs)
);
}
);
width = 942;
}
);
metricRight = O;
unicode = 68;
},
{
glyphname = Eth;
kernLeft = D;
kernRight = D;
lastChange = "2019-12-04 10:07:11 +0000";
layers = (
{
layerId = "A22087AE-1668-478C-9B8B-D37A40788B8E";
shapes = (
{
closed = 1;
nodes = (
(316,327,o),
(327,337,o),
(359,336,cs),
(399,334,o),
(440,332,o),
(481,333,cs),
(513,334,o),
(532,353,o),
(533,384,cs),
(534,413,o),
(512,431,o),
(480,431,cs),
(439,431,o),
(398,429,o),
(354,427,cs),
(323,426,o),
(310,435,o),
(311,477,c),
(285,424,o),
(279,424,o),
(274,424,cs),
(236,423,o),
(212,425,o),
(167,475,c),
(168,442,o),
(154,428,o),
(112,428,cs),
(80,428,o),
(60,407,o),
(61,379,cs),
(62,349,o),
(80,329,o),
(114,330,cs),
(159,331,o),
(168,324,o),
(168,298,c),
(217,335,o),
(240,337,o),
(275,337,cs),
(283,337,o),
(302,317,o),
(321,294,c)
);
},
{
ref = D;
}
);
width = 942;
}
);
unicode = 208;
},
{
color = 4;
glyphname = E;
kernLeft = E;
kernRight = E;
lastChange = "2019-12-04 10:07:11 +0000";
layers = (
{
anchors = (
{
name = bottom;
pos = (389,0);
},
{
name = ogonek;
pos = (699,10);
},
{
name = top;
pos = (389,745);
},
{
name = topleft;
pos = (20,745);
}
);
annotations = (
{
pos = (451,-111);
text = "Faire alternate";
type = Text;
}
);
layerId = "A22087AE-1668-478C-9B8B-D37A40788B8E";
shapes = (
{
closed = 1;
nodes = (
(587,-14,o),
(686,101,o),
(738,230,cs),
(751,262,o),
(750,288,o),
(736,295,cs),
(713,306,o),
(699,290,o),
(675,256,cs),
(630,192,o),
(559,142,o),
(465,142,cs),
(353,142,o),
(250,196,o),
(216,275,cs),
(184,349,o),
(231,349,o),
(274,352,cs),
(385,358,o),
(427,339,o),
(449,299,cs),
(470,260,o),
(497,231,o),
(534,242,cs),
(564,251,o),
(570,309,o),
(560,391,cs),
(552,457,o),
(523,519,o),
(470,519,cs),
(407,519,o),
(439,434,o),
(264,448,cs),
(210,452,o),
(175,453,o),
(195,524,cs),
(223,604,o),
(291,660,o),
(380,660,cs),
(472,660,o),
(533,610,o),
(585,527,cs),
(620,471,o),
(654,474,o),
(677,504,cs),
(696,529,o),
(715,664,o),
(713,695,cs),
(710,738,o),
(687,740,o),
(621,730,cs),
(552,720,o),
(529,760,o),
(407,760,cs),
(204,760,o),
(30,586,o),
(30,373,cs),
(30,160,o),
(194,-14,o),
(407,-14,cs)
);
}
);
width = 767;
},
{
associatedMasterId = "A22087AE-1668-478C-9B8B-D37A40788B8E";
layerId = "65977641-F7D1-4ADB-9ABE-DDEBCD41DE3D";
name = "Jul 31 18, 10:54";
shapes = (
{
closed = 1;
nodes = (
(730,-6,o),
(770,25,o),
(770,122,cs),
(770,210,o),
(769,280,o),
(734,287,cs),
(701,294,o),
(681,261,o),
(649,208,cs),
(611,145,o),
(551,90,o),
(471,90,cs),
(416,90,o),
(375,102,o),
(353,133,cs),
(335,159,o),
(334,226,o),
(334,324,cs),
(334,421,ls),
(334,529,o),
(335,593,o),
(358,625,cs),
(377,652,o),
(414,663,o),
(469,663,cs),
(539,663,o),
(595,619,o),
(629,555,cs),
(657,502,o),
(668,476,o),
(701,479,cs),
(739,482,o),
(740,553,o),
(730,641,cs),
(719,737,o),
(690,769,o),
(637,769,cs),
(584,769,o),
(435,735,o),
(314,735,cs),
(242,735,o),
(181,750,o),
(151,750,cs),
(114,750,o),
(90,732,o),
(90,702,cs),
(90,669,o),
(116,667,o),
(157,613,cs),
(182,580,o),
(188,505,o),
(188,421,cs),
(188,324,ls),
(188,240,o),
(182,165,o),
(157,132,cs),
(116,78,o),
(80,86,o),
(80,39,cs),
(80,13,o),
(104,-5,o),
(141,-5,cs),
(192,-5,o),
(219,3,o),
(261,3,cs),
(382,3,o),
(624,-6,o),
(677,-6,cs)
);
},
{
closed = 1;
nodes = (
(594,251,o),
(600,309,o),
(590,391,cs),
(582,457,o),
(553,519,o),
(500,519,cs),
(437,519,o),
(468,425,o),
(324,445,c),
(324,353,l),
(414,363,o),
(457,339,o),
(479,299,cs),
(500,260,o),
(527,231,o),
(564,242,cs)
);
}
);
width = 835;
},
{
annotations = (
{
pos = (451,-111);
text = "Faire alternate";
type = Text;
}
);
associatedMasterId = "A22087AE-1668-478C-9B8B-D37A40788B8E";
layerId = "92CE618F-ECEE-4EBB-B68D-E75034A04D63";
name = "Aug 2 18, 14:06";
shapes = (
{
closed = 1;
nodes = (
(730,-6,o),
(770,25,o),
(770,122,cs),
(770,210,o),
(769,280,o),
(734,287,cs),
(701,294,o),
(681,261,o),
(649,208,cs),
(611,145,o),
(551,90,o),
(471,90,cs),
(416,90,o),
(375,102,o),
(353,133,cs),
(335,159,o),
(334,226,o),
(334,324,cs),
(334,421,ls),
(334,529,o),
(335,593,o),
(358,625,cs),
(377,652,o),
(414,663,o),
(469,663,cs),
(539,663,o),
(595,619,o),
(629,555,cs),
(657,502,o),
(668,476,o),
(701,479,cs),
(739,482,o),
(740,553,o),
(730,641,cs),
(719,737,o),
(690,769,o),
(637,769,cs),
(584,769,o),
(435,735,o),
(314,735,cs),
(242,735,o),
(181,750,o),
(151,750,cs),
(114,750,o),
(90,732,o),
(90,702,cs),
(90,669,o),
(116,667,o),
(157,613,cs),
(182,580,o),
(188,505,o),
(188,421,cs),
(188,324,ls),
(188,240,o),
(182,165,o),
(157,132,cs),
(116,78,o),
(80,86,o),
(80,39,cs),
(80,13,o),
(104,-5,o),
(141,-5,cs),
(192,-5,o),
(219,3,o),
(261,3,cs),
(382,3,o),
(624,-6,o),
(677,-6,cs)
);
},
{
closed = 1;
nodes = (
(594,251,o),
(600,309,o),
(590,391,cs),
(582,457,o),
(553,519,o),
(500,519,cs),
(437,519,o),
(468,425,o),
(324,445,c),
(324,353,l),
(414,363,o),
(457,339,o),
(479,299,cs),
(500,260,o),
(527,231,o),
(564,242,cs)
);
}
);
width = 835;
},
{
annotations = (
{
pos = (451,-111);
text = "Faire alternate";
type = Text;
}
);
associatedMasterId = "A22087AE-1668-478C-9B8B-D37A40788B8E";
layerId = "067D3F08-8656-4837-9BD8-95177795847F";
name = "Aug 7 18, 11:04";
shapes = (
{
closed = 1;
nodes = (
(730,-6,o),
(770,25,o),
(770,122,cs),
(770,210,o),
(769,280,o),
(734,287,cs),
(701,294,o),
(681,261,o),
(649,208,cs),
(611,145,o),
(551,90,o),
(471,90,cs),
(416,90,o),
(375,102,o),
(353,133,cs),
(335,159,o),
(334,226,o),
(334,324,cs),
(334,421,ls),
(334,529,o),
(335,593,o),
(358,625,cs),
(377,652,o),
(414,663,o),
(469,663,cs),
(539,663,o),
(595,619,o),
(629,555,cs),
(657,502,o),
(668,476,o),
(701,479,cs),
(739,482,o),
(740,553,o),
(730,641,cs),
(719,737,o),
(690,769,o),
(637,769,cs),
(584,769,o),
(435,735,o),
(314,735,cs),
(242,735,o),
(181,750,o),
(151,750,cs),
(114,750,o),
(90,732,o),
(90,702,cs),
(90,669,o),
(116,667,o),
(157,613,cs),
(182,580,o),
(188,505,o),
(188,421,cs),
(188,324,ls),
(188,240,o),
(182,165,o),
(157,132,cs),
(116,78,o),
(80,86,o),
(80,39,cs),
(80,13,o),
(104,-5,o),
(141,-5,cs),
(192,-5,o),
(219,3,o),
(261,3,cs),
(382,3,o),
(624,-6,o),
(677,-6,cs)
);
},
{
closed = 1;
nodes = (
(594,251,o),
(600,309,o),
(590,391,cs),
(582,457,o),
(553,519,o),
(500,519,cs),
(437,519,o),
(468,425,o),
(324,445,c),
(324,353,l),
(414,363,o),
(457,339,o),
(479,299,cs),
(500,260,o),
(527,231,o),
(564,242,cs)
);
}
);
width = 835;
},
{
anchors = (
{
name = bottom;
pos = (389,0);
},
{
name = ogonek;
pos = (699,10);
},
{
name = top;
pos = (389,745);
},
{
name = topleft;
pos = (20,745);
}
);
annotations = (
{
pos = (451,-111);
text = "Faire alternate";
type = Text;
}
);
associatedMasterId = "A22087AE-1668-478C-9B8B-D37A40788B8E";
layerId = "D8571D51-65D7-4838-AAF5-FD7EE1FA0D05";
name = "Aug 14 18, 12:46";
shapes = (
{
closed = 1;
nodes = (
(751,262,o),
(750,288,o),
(736,295,cs),
(713,306,o),
(699,290,o),
(675,256,cs),
(630,192,o),
(559,142,o),
(465,142,cs),
(303,142,o),
(180,273,o),
(180,437,cs),
(180,560,o),
(261,660,o),
(380,660,cs),
(472,660,o),
(533,610,o),
(585,527,cs),
(620,471,o),
(654,474,o),
(677,504,cs),
(696,529,o),
(715,664,o),
(713,695,cs),
(710,738,o),
(687,740,o),
(621,730,cs),
(552,720,o),
(529,760,o),
(407,760,cs),
(204,760,o),
(30,586,o),
(30,373,cs),
(30,160,o),
(194,-14,o),
(407,-14,cs),
(587,-14,o),
(686,101,o),
(738,230,cs)
);
},
{
closed = 1;
nodes = (
(564,251,o),
(570,309,o),
(560,391,cs),
(552,457,o),
(523,519,o),
(470,519,cs),
(407,519,o),
(439,434,o),
(264,448,cs),
(208,452,o),
(172,453,o),
(197,532,c),
(77,371,l),
(222,279,l),
(182,349,o),
(226,349,o),
(274,352,cs),
(385,358,o),
(427,339,o),
(449,299,cs),
(470,260,o),
(497,231,o),
(534,242,cs)
);
}
);
width = 777;
}
);
metricLeft = O;
unicode = 69;
},
{
glyphname = Eogonek;
kernLeft = E;
kernRight = E;
lastChange = "2019-12-04 10:07:11 +0000";
layers = (
{
layerId = "A22087AE-1668-478C-9B8B-D37A40788B8E";
shapes = (
{
closed = 1;
nodes = (
(684,-175,o),
(724,-108,o),
(736,-77,cs),
(740,-67,o),
(743,-58,o),
(739,-55,cs),
(733,-51,o),
(725,-54,o),
(713,-61,cs),
(691,-74,o),
(671,-86,o),
(652,-88,cs),
(622,-91,o),
(599,-77,o),
(596,-52,cs),
(592,-18,o),
(615,44,o),
(686,133,c),
(509,0,l),
(533,8,o),
(540,6,o),
(529,-15,cs),
(512,-46,o),
(505,-78,o),
(509,-108,cs),
(515,-154,o),
(557,-193,o),
(614,-185,cs)
);
},
{
ref = E;
}
);
width = 767;
}
);
unicode = 280;
},
{
color = 4;
glyphname = F;
kernLeft = F;
kernRight = F;
lastChange = "2019-12-04 10:07:11 +0000";
layers = (
{
layerId = "A22087AE-1668-478C-9B8B-D37A40788B8E";
shapes = (
{
closed = 1;
nodes = (
(192,-5,o),
(219,3,o),
(261,3,cs),
(304,3,o),
(341,-5,o),
(381,-5,cs),
(418,-5,o),
(442,13,o),
(442,39,cs),
(442,86,o),
(406,78,o),
(365,132,cs),
(340,165,o),
(334,240,o),
(334,324,cs),
(334,421,ls),
(334,529,o),
(335,593,o),
(358,625,cs),
(377,652,o),
(414,663,o),
(469,663,cs),
(549,663,o),
(602,636,o),
(627,564,cs),
(646,509,o),
(665,481,o),
(688,479,cs),
(725,476,o),
(747,523,o),
(760,641,cs),
(771,737,o),
(730,769,o),
(677,769,cs),
(624,769,o),
(435,735,o),
(314,735,cs),
(242,735,o),
(151,750,o),
(121,750,cs),
(84,750,o),
(60,732,o),
(60,702,cs),
(60,669,o),
(96,667,o),
(137,613,cs),
(162,580,o),
(188,505,o),
(188,421,cs),
(188,324,ls),
(188,240,o),
(182,165,o),
(157,132,cs),
(116,78,o),
(80,86,o),
(80,39,cs),
(80,13,o),
(104,-5,o),
(141,-5,cs)
);
},
{
closed = 1;
nodes = (
(594,231,o),
(600,289,o),
(590,371,cs),
(582,437,o),
(553,499,o),
(500,499,cs),
(442,499,o),
(464,420,o),
(365,422,cs),
(344,423,o),
(334,430,o),
(334,456,c),
(323,386,l),
(334,314,l),
(334,334,o),
(344,335,o),
(365,335,cs),
(423,335,o),
(459,314,o),
(479,279,cs),
(500,240,o),
(527,211,o),
(564,222,cs)
);
}
);
width = 777;
},
{
associatedMasterId = "A22087AE-1668-478C-9B8B-D37A40788B8E";
layerId = "C2A32C58-466F-41A1-9D39-3B67EE464A81";
name = "Aug 2 18, 13:22";
shapes = (
{
closed = 1;
nodes = (
(594,231,o),
(600,289,o),
(590,371,cs),
(582,437,o),
(553,499,o),
(500,499,cs),
(437,499,o),
(468,405,o),
(324,425,c),
(324,333,l),
(414,343,o),
(457,319,o),
(479,279,cs),
(500,240,o),
(527,211,o),
(564,222,cs)
);
},
{
closed = 1;
nodes = (
(729,737,o),
(700,769,o),
(647,769,cs),
(594,769,o),
(435,735,o),
(314,735,cs),
(242,735,o),
(151,750,o),
(121,750,cs),
(84,750,o),
(60,732,o),
(60,702,cs),
(60,669,o),
(96,667,o),
(137,613,cs),
(162,580,o),
(188,505,o),
(188,421,cs),
(188,324,ls),
(188,240,o),
(182,165,o),
(157,132,cs),
(116,78,o),
(80,86,o),
(80,39,cs),
(80,13,o),
(104,-5,o),
(141,-5,cs),
(192,-5,o),
(219,3,o),
(261,3,cs),
(304,3,o),
(341,-5,o),
(381,-5,cs),
(418,-5,o),
(442,13,o),
(442,39,cs),
(442,86,o),
(406,78,o),
(365,132,cs),
(340,165,o),
(334,240,o),
(334,324,cs),
(334,421,ls),
(334,529,o),
(335,593,o),
(358,625,cs),
(377,652,o),
(414,663,o),
(469,663,cs),
(539,663,o),
(605,619,o),
(639,555,cs),
(667,502,o),
(678,476,o),
(711,479,cs),
(749,482,o),
(750,553,o),
(740,641,cs)
);
}
);
width = 800;
}
);
unicode = 70;
},
{
color = 4;
glyphname = G;
kernLeft = G;
kernRight = G;
lastChange = "2019-12-04 10:07:11 +0000";
layers = (
{
anchors = (
{
name = bottom;
pos = (411,-14);
},
{
name = top;
pos = (400,745);
}
);
layerId = "A22087AE-1668-478C-9B8B-D37A40788B8E";
shapes = (
{
closed = 1;
nodes = (
(511,-40,o),
(560,86,o),
(618,91,cs),
(680,97,o),
(709,-26,o),
(763,2,cs),
(807,25,o),
(768,94,o),
(759,154,cs),
(746,243,o),
(781,315,o),
(782,366,cs),
(783,405,o),
(759,417,o),
(722,416,cs),
(644,414,o),
(610,411,o),
(511,410,cs),
(457,409,o),
(432,387,o),
(430,358,cs),
(428,323,o),
(454,305,o),
(511,307,cs),
(619,311,o),
(638,299,o),
(638,246,cs),
(638,186,o),
(564,142,o),
(470,142,cs),
(308,142,o),
(165,253,o),
(165,437,cs),
(165,570,o),
(266,660,o),
(385,660,cs),
(477,660,o),
(558,610,o),
(610,527,cs),
(645,471,o),
(684,471,o),
(702,504,cs),
(721,539,o),
(758,664,o),
(768,705,cs),
(781,756,o),
(732,760,o),
(646,730,cs),
(580,707,o),
(534,760,o),
(412,760,cs),
(209,760,o),
(15,606,o),
(15,373,cs),
(15,160,o),
(141,20,o),
(312,-8,cs)
);
}
);
width = 814;
},
{
associatedMasterId = "A22087AE-1668-478C-9B8B-D37A40788B8E";
layerId = "693591CE-2A1B-48A4-8280-22FBC9EB5714";
name = "Aug 2 18, 13:35";
shapes = (
{
closed = 1;
nodes = (
(767,335,o),
(767,386,cs),
(767,435,o),
(744,436,o),
(707,436,cs),
(663,436,o),
(514,407,o),
(443,390,cs),
(413,383,o),
(402,372,o),
(405,353,cs),
(411,317,o),
(446,307,o),
(506,307,cs),
(548,307,o),
(653,319,o),
(653,266,cs),
(653,196,o),
(549,142,o),
(455,142,cs),
(293,142,o),
(170,273,o),
(170,437,cs),
(170,560,o),
(251,660,o),
(370,660,cs),
(462,660,o),
(523,610,o),
(575,527,cs),
(610,471,o),
(644,474,o),
(667,504,cs),
(686,529,o),
(705,664,o),
(703,695,cs),
(700,738,o),
(677,740,o),
(611,730,cs),
(542,720,o),
(519,760,o),
(397,760,cs),
(194,760,o),
(20,586,o),
(20,373,cs),
(20,160,o),
(184,-14,o),
(397,-14,cs),
(526,-14,o),
(553,53,o),
(613,53,cs),
(658,53,o),
(697,-36,o),
(748,2,cs),
(790,33,o),
(741,100,o),
(741,140,cs),
(741,298,o)
);
}
);
width = 757;
},
{
associatedMasterId = "A22087AE-1668-478C-9B8B-D37A40788B8E";
layerId = "D3368F84-81AE-4CE5-9C89-099A94ADF857";
name = "Aug 2 18, 13:37";
shapes = (
{
closed = 1;
nodes = (
(767,325,o),
(767,376,cs),
(767,425,o),
(744,426,o),
(707,426,cs),
(663,426,o),
(537,420,o),
(453,420,cs),
(422,420,o),
(407,397,o),
(405,368,cs),
(402,333,o),
(419,315,o),
(476,317,cs),
(614,321,o),
(653,309,o),
(653,256,cs),
(653,186,o),
(549,142,o),
(455,142,cs),
(293,142,o),
(170,273,o),
(170,437,cs),
(170,560,o),
(251,660,o),
(370,660,cs),
(462,660,o),
(523,620,o),
(575,537,cs),
(610,481,o),
(644,484,o),
(667,514,cs),
(686,539,o),
(705,664,o),
(703,695,cs),
(700,738,o),
(677,740,o),
(611,730,cs),
(542,720,o),
(519,760,o),
(397,760,cs),
(194,760,o),
(20,586,o),
(20,373,cs),
(20,160,o),
(184,-14,o),
(397,-14,cs),
(526,-14,o),
(543,53,o),
(613,53,cs),
(668,53,o),
(697,-36,o),
(748,2,cs),
(790,33,o),
(741,100,o),
(741,140,cs),
(741,288,o)
);
}
);
width = 757;
},
{
associatedMasterId = "A22087AE-1668-478C-9B8B-D37A40788B8E";
layerId = "A2965ED3-192F-4E0B-814B-E07874E16753";
name = "Jul 10 19, 17:01";
shapes = (
{
closed = 1;
nodes = (
(777,315,o),
(777,366,cs),
(777,415,o),
(754,416,o),
(717,416,cs),
(673,416,o),
(617,410,o),
(533,410,cs),
(502,410,o),
(477,387,o),
(475,358,cs),
(473,323,o),
(499,305,o),
(556,308,cs),
(614,311,o),
(633,299,o),
(633,246,cs),
(633,186,o),
(559,142,o),
(465,142,cs),
(303,142,o),
(180,273,o),
(180,437,cs),
(180,560,o),
(261,660,o),
(380,660,cs),
(472,660,o),
(533,620,o),
(585,537,cs),
(620,481,o),
(654,484,o),
(677,514,cs),
(696,539,o),
(715,664,o),
(713,695,cs),
(710,738,o),
(687,740,o),
(621,730,cs),
(552,720,o),
(529,760,o),
(407,760,cs),
(204,760,o),
(30,586,o),
(30,373,cs),
(30,160,o),
(194,-14,o),
(407,-14,cs),
(536,-14,o),
(553,53,o),
(623,53,cs),
(678,53,o),
(707,-36,o),
(758,2,cs),
(800,33,o),
(751,100,o),
(751,140,cs),
(751,278,o)
);
}
);
width = 797;
},
{
associatedMasterId = "A22087AE-1668-478C-9B8B-D37A40788B8E";
layerId = "4CA0FAA0-FAF0-4374-ABDF-5D7CA1607B00";
name = "Jul 10 19, 17:02";
shapes = (
{
closed = 1;
nodes = (
(796,315,o),
(797,366,cs),
(798,405,o),
(774,417,o),
(737,416,cs),
(659,414,o),
(625,411,o),
(526,410,cs),
(472,409,o),
(447,387,o),
(445,358,cs),
(443,323,o),
(469,305,o),
(526,307,cs),
(634,311,o),
(653,299,o),
(653,246,cs),
(653,186,o),
(579,142,o),
(485,142,cs),
(323,142,o),
(180,253,o),
(180,437,cs),
(180,570,o),
(281,660,o),
(400,660,cs),
(492,660,o),
(573,610,o),
(625,527,cs),
(660,471,o),
(694,474,o),
(717,504,cs),
(736,529,o),
(773,674,o),
(773,705,cs),
(773,758,o),
(727,750,o),
(661,730,cs),
(594,710,o),
(549,760,o),
(427,760,cs),
(224,760,o),
(30,606,o),
(30,373,cs),
(30,160,o),
(164,-14,o),
(367,-14,cs),
(526,-14,o),
(573,83,o),
(633,83,cs),
(688,83,o),
(724,-26,o),
(778,2,cs),
(822,25,o),
(783,94,o),
(774,154,cs),
(761,243,o)
);
}
);
width = 827;
}
);
unicode = 71;
},
{
color = 4;
glyphname = H;
kernLeft = H;
kernRight = H;
lastChange = "2019-12-04 10:07:11 +0000";
layers = (
{
layerId = "A22087AE-1668-478C-9B8B-D37A40788B8E";
shapes = (
{
closed = 1;
nodes = (
(709,-5,o),
(736,3,o),
(778,3,cs),
(821,3,o),
(858,-5,o),
(898,-5,cs),
(935,-5,o),
(959,13,o),
(959,39,cs),
(959,86,o),
(923,78,o),
(882,132,cs),
(857,165,o),
(851,240,o),
(851,324,cs),
(851,421,ls),
(851,505,o),
(857,580,o),
(882,613,cs),
(923,667,o),
(949,669,o),
(949,702,cs),
(949,732,o),
(925,750,o),
(888,750,cs),
(847,750,o),
(821,742,o),
(778,742,cs),
(736,742,o),
(698,750,o),
(668,750,cs),
(631,750,o),
(607,732,o),
(607,702,cs),
(607,669,o),
(633,667,o),
(674,613,cs),
(699,580,o),
(705,535,o),
(705,421,cs),
(705,324,ls),
(705,210,o),
(699,165,o),
(674,132,cs),
(633,78,o),
(597,86,o),
(597,39,cs),
(597,13,o),
(621,-5,o),
(658,-5,cs)
);
},
{
closed = 1;
nodes = (
(172,-5,o),
(199,3,o),
(241,3,cs),
(284,3,o),
(321,-5,o),
(361,-5,cs),
(398,-5,o),
(422,13,o),
(422,39,cs),
(422,86,o),
(386,78,o),
(345,132,cs),
(320,165,o),
(314,210,o),
(314,324,cs),
(314,421,ls),
(314,538,o),
(320,580,o),
(345,613,cs),
(386,667,o),
(412,669,o),
(412,702,cs),
(412,732,o),
(388,750,o),
(351,750,cs),
(310,750,o),
(284,742,o),
(241,742,cs),
(199,742,o),
(161,750,o),
(131,750,cs),
(94,750,o),
(70,732,o),
(70,702,cs),
(70,669,o),
(96,667,o),
(137,613,cs),
(162,580,o),
(168,505,o),
(168,421,cs),
(168,324,ls),
(168,240,o),
(162,165,o),
(137,132,cs),
(96,78,o),
(60,86,o),
(60,39,cs),
(60,13,o),
(84,-5,o),
(121,-5,cs)
);
},
{
closed = 1;
nodes = (
(313,297,o),
(325,323,o),
(386,323,cs),
(638,323,ls),
(693,323,o),
(707,304,o),
(704,247,c),
(778,341,l),
(703,502,l),
(705,442,o),
(693,419,o),
(637,419,cs),
(386,419,ls),
(326,419,o),
(312,436,o),
(315,496,c),
(298,382,l),
(316,241,l)
);
}
);
width = 1019;
}
);
unicode = 72;
},
{
glyphname = Hbar;
kernLeft = H;
kernRight = H;
lastChange = "2019-12-04 10:07:11 +0000";
layers = (
{
layerId = "A22087AE-1668-478C-9B8B-D37A40788B8E";
shapes = (
{
closed = 1;
nodes = (
(709,-5,o),
(736,3,o),
(778,3,cs),
(821,3,o),
(858,-5,o),
(898,-5,cs),
(935,-5,o),
(959,13,o),
(959,39,cs),
(959,86,o),
(923,78,o),
(882,132,cs),
(857,165,o),
(851,240,o),
(851,324,cs),
(851,421,ls),
(851,505,o),
(857,580,o),
(882,613,cs),
(923,667,o),
(949,669,o),
(949,702,cs),
(949,732,o),
(925,750,o),
(888,750,cs),
(847,750,o),
(821,742,o),
(778,742,cs),
(736,742,o),
(698,750,o),
(668,750,cs),
(631,750,o),
(607,732,o),
(607,702,cs),
(607,669,o),
(633,667,o),
(674,613,cs),
(699,580,o),
(705,535,o),
(705,421,cs),
(705,324,ls),
(705,210,o),
(699,165,o),
(674,132,cs),
(633,78,o),
(597,86,o),
(597,39,cs),
(597,13,o),
(621,-5,o),
(658,-5,cs)
);
},
{
closed = 1;
nodes = (
(172,-5,o),
(199,3,o),
(241,3,cs),
(284,3,o),
(321,-5,o),
(361,-5,cs),
(398,-5,o),
(422,13,o),
(422,39,cs),
(422,86,o),
(386,78,o),
(345,132,cs),
(320,165,o),
(314,210,o),
(314,324,cs),
(314,421,ls),
(314,538,o),
(320,580,o),
(345,613,cs),
(386,667,o),
(412,669,o),
(412,702,cs),
(412,732,o),
(388,750,o),
(351,750,cs),
(310,750,o),
(284,742,o),
(241,742,cs),
(199,742,o),
(161,750,o),
(131,750,cs),
(94,750,o),
(70,732,o),
(70,702,cs),
(70,669,o),
(96,667,o),
(137,613,cs),
(162,580,o),
(168,505,o),
(168,421,cs),
(168,324,ls),
(168,240,o),
(162,165,o),
(137,132,cs),
(96,78,o),
(60,86,o),
(60,39,cs),
(60,13,o),
(84,-5,o),
(121,-5,cs)
);
},
{
closed = 1;
nodes = (
(313,297,o),
(325,323,o),
(386,323,cs),
(638,323,ls),
(693,323,o),
(707,304,o),
(704,247,c),
(778,341,l),
(703,502,l),
(705,442,o),
(693,419,o),
(637,419,cs),
(386,419,ls),
(326,419,o),
(312,436,o),
(315,496,c),
(298,382,l),
(316,241,l)
);
},
{
closed = 1;
nodes = (
(193,455,o),
(345,460,o),
(510,460,cs),
(676,460,o),
(830,454,o),
(896,456,cs),
(928,457,o),
(947,476,o),
(948,507,cs),
(949,536,o),
(927,554,o),
(895,554,cs),
(830,554,o),
(675,547,o),
(509,547,cs),
(344,547,o),
(192,551,o),
(127,551,cs),
(95,551,o),
(75,530,o),
(76,502,cs),
(77,472,o),
(95,452,o),
(129,453,cs)
);
}
);
width = 1019;
}
);
metricLeft = H;
metricRight = H;
unicode = 294;
},
{
color = 4;
glyphname = I;
kernLeft = I;
kernRight = I;
lastChange = "2019-12-04 10:07:11 +0000";
layers = (
{
anchors = (
{
name = bottom;
pos = (261,0);
},
{
name = ogonek;
pos = (470,10);
},
{
name = top;
pos = (261,745);
},
{
name = topleft;
pos = (20,745);
}
);
layerId = "A22087AE-1668-478C-9B8B-D37A40788B8E";
shapes = (
{
closed = 1;
nodes = (
(192,-5,o),
(219,3,o),
(261,3,cs),
(304,3,o),
(341,-5,o),
(381,-5,cs),
(418,-5,o),
(442,13,o),
(442,39,cs),
(442,86,o),
(406,78,o),
(365,132,cs),
(340,165,o),
(334,240,o),
(334,324,cs),
(334,421,ls),
(334,505,o),
(340,580,o),
(365,613,cs),
(406,667,o),
(432,669,o),
(432,702,cs),
(432,732,o),
(408,750,o),
(371,750,cs),
(330,750,o),
(304,742,o),
(261,742,cs),
(219,742,o),
(181,750,o),
(151,750,cs),
(114,750,o),
(90,732,o),
(90,702,cs),
(90,669,o),
(116,667,o),
(157,613,cs),
(182,580,o),
(188,505,o),
(188,421,cs),
(188,324,ls),
(188,240,o),
(182,165,o),
(157,132,cs),
(116,78,o),
(80,86,o),
(80,39,cs),
(80,13,o),
(104,-5,o),
(141,-5,cs)
);
}
);
width = 522;
}
);
unicode = 73;
},
{
glyphname = Iogonek;
kernLeft = I;
kernRight = I;
lastChange = "2019-12-04 10:07:11 +0000";
layers = (
{
layerId = "A22087AE-1668-478C-9B8B-D37A40788B8E";
shapes = (
{
closed = 1;
nodes = (
(360,-220,o),
(421,-172,o),
(443,-147,cs),
(450,-139,o),
(456,-131,o),
(453,-127,cs),
(449,-121,o),
(440,-121,o),
(427,-124,cs),
(402,-130,o),
(379,-132,o),
(360,-128,cs),
(330,-122,o),
(314,-99,o),
(320,-74,cs),
(328,-41,o),
(374,-13,o),
(400,-3,c),
(346,19,l),
(282,-7,o),
(232,-39,o),
(219,-97,cs),
(209,-142,o),
(235,-193,o),
(291,-205,cs)
);
},
{
ref = I;
}
);
width = 522;
}
);
unicode = 302;
},
{
color = 4;
glyphname = J;
kernLeft = J;
kernRight = J;
lastChange = "2019-12-04 10:07:11 +0000";
layers = (
{
layerId = "A22087AE-1668-478C-9B8B-D37A40788B8E";
shapes = (
{
closed = 1;
nodes = (
(209,-125,o),
(334,-41,o),
(334,181,cs),
(334,421,ls),
(334,505,o),
(340,580,o),
(365,613,cs),
(406,667,o),
(432,669,o),
(432,702,cs),
(432,732,o),
(408,750,o),
(371,750,cs),
(330,750,o),
(304,742,o),
(261,742,cs),
(219,742,o),
(181,750,o),
(151,750,cs),
(114,750,o),
(90,732,o),
(90,702,cs),
(90,669,o),
(116,667,o),
(157,613,cs),
(182,580,o),
(188,505,o),
(188,421,cs),
(188,324,ls),
(188,142,o),
(157,35,o),
(56,-46,cs),
(29,-68,o),
(14,-95,o),
(22,-116,cs),
(30,-137,o),
(54,-151,o),
(91,-145,cs)
);
}
);
width = 492;
}
);
unicode = 74;
},
{
color = 4;
glyphname = K;
kernLeft = K;
kernRight = K;
lastChange = "2019-12-04 10:07:11 +0000";
layers = (
{
anchors = (
{
name = bottom;
pos = (491,0);
},
{
name = top;
pos = (461,745);
}
);
background = {
shapes = (
{
closed = 1;
nodes = (
(668,387,o),
(643,327,o),
(667,277,cs),
(713,183,o),
(741,94,o),
(703,82,cs),
(624,57,o),
(677,335,o),
(450,342,c),
(377,294,l),
(502,233,o),
(452,-15,o),
(673,-6,cs),
(786,-1,o),
(862,66,o),
(862,263,cs),
(862,345,o),
(820,387,o),
(753,387,cs)
);
}
);
};
layerId = "A22087AE-1668-478C-9B8B-D37A40788B8E";
shapes = (
{
closed = 1;
nodes = (
(816,-11,o),
(882,106,o),
(882,303,cs),
(882,385,o),
(840,427,o),
(773,427,cs),
(688,427,o),
(663,367,o),
(687,317,cs),
(732,223,o),
(771,84,o),
(733,72,cs),
(666,51,o),
(675,341,o),
(464,370,c),
(644,456,o),
(814,630,o),
(814,702,cs),
(814,732,o),
(800,750,o),
(763,750,cs),
(722,750,o),
(700,742,o),
(657,742,cs),
(615,742,o),
(593,750,o),
(563,750,cs),
(526,750,o),
(502,732,o),
(502,702,cs),
(502,669,o),
(558,654,o),
(569,613,cs),
(582,563,o),
(547,463,o),
(338,400,cs),
(321,395,o),
(314,402,o),
(314,420,cs),
(314,502,o),
(320,580,o),
(345,613,cs),
(386,667,o),
(412,669,o),
(412,702,cs),
(412,732,o),
(388,750,o),
(351,750,cs),
(310,750,o),
(284,742,o),
(241,742,cs),
(199,742,o),
(161,750,o),
(131,750,cs),
(94,750,o),
(70,732,o),
(70,702,cs),
(70,669,o),
(96,667,o),
(137,613,cs),
(162,580,o),
(168,505,o),
(168,421,cs),
(168,324,ls),
(168,240,o),
(162,165,o),
(137,132,cs),
(96,78,o),
(60,86,o),
(60,39,cs),
(60,13,o),
(84,-5,o),
(121,-5,cs),
(172,-5,o),
(199,3,o),
(241,3,cs),
(284,3,o),
(321,-5,o),
(361,-5,cs),
(398,-5,o),
(422,13,o),
(422,39,cs),
(422,86,o),
(386,78,o),
(345,132,cs),
(320,164,o),
(314,237,o),
(314,301,cs),
(314,315,o),
(321,318,o),
(335,316,cs),
(439,299,o),
(473,229,o),
(502,158,cs),
(537,69,o),
(564,-22,o),
(703,-16,cs)
);
}
);
width = 922;
},
{
associatedMasterId = "A22087AE-1668-478C-9B8B-D37A40788B8E";
layerId = "79995577-B690-419B-BCC8-21B4C62E1228";
name = "Aug 7 18, 11:54";
shapes = (
{
closed = 1;
nodes = (
(192,-5,o),
(219,3,o),
(261,3,cs),
(304,3,o),
(341,-5,o),
(381,-5,cs),
(418,-5,o),
(442,13,o),
(442,39,cs),
(442,86,o),
(406,78,o),
(365,132,cs),
(340,165,o),
(334,240,o),
(334,324,cs),
(334,421,ls),
(334,505,o),
(340,580,o),
(365,613,cs),
(406,667,o),
(432,669,o),
(432,702,cs),
(432,732,o),
(408,750,o),
(371,750,cs),
(330,750,o),
(304,742,o),
(261,742,cs),
(219,742,o),
(181,750,o),
(151,750,cs),
(114,750,o),
(90,732,o),
(90,702,cs),
(90,669,o),
(116,667,o),
(157,613,cs),
(182,580,o),
(188,505,o),
(188,421,cs),
(188,324,ls),
(188,240,o),
(182,165,o),
(157,132,cs),
(116,78,o),
(80,86,o),
(80,39,cs),
(80,13,o),
(104,-5,o),
(141,-5,cs)
);
},
{
closed = 1;
nodes = (
(592,432,o),
(734,549,o),
(797,601,cs),
(849,644,o),
(884,669,o),
(884,702,cs),
(884,732,o),
(870,750,o),
(833,750,cs),
(792,750,o),
(770,742,o),
(727,742,cs),
(685,742,o),
(653,750,o),
(623,750,cs),
(586,750,o),
(562,732,o),
(562,702,cs),
(562,669,o),
(628,654,o),
(639,613,cs),
(648,580,o),
(564,536,o),
(312,354,c),
(420,324,l)
);
},
{
closed = 1;
nodes = (
(493,149,o),
(601,-7,o),
(762,-7,cs),
(923,-7,o),
(987,120,o),
(987,350,cs),
(987,421,o),
(977,471,o),
(939,471,cs),
(893,471,o),
(890,416,o),
(890,361,cs),
(890,240,o),
(853,176,o),
(782,176,cs),
(711,176,o),
(651,266,o),
(513,428,c),
(301,357,l)
);
}
);
width = 1000;
},
{
associatedMasterId = "A22087AE-1668-478C-9B8B-D37A40788B8E";
background = {
shapes = (
{
closed = 1;
nodes = (
(688,387,o),
(663,327,o),
(687,277,cs),
(733,183,o),
(761,94,o),
(723,82,cs),
(644,57,o),
(697,335,o),
(470,342,c),
(397,294,l),
(522,233,o),
(472,-15,o),
(693,-6,cs),
(806,-1,o),
(882,66,o),
(882,263,cs),
(882,345,o),
(840,387,o),
(773,387,cs)
);
}
);
};
layerId = "336B5B07-640E-42FB-8D13-C3C9C8ECF8BF";
name = "Aug 7 18, 11:57";
shapes = (
{
closed = 1;
nodes = (
(192,-5,o),
(219,3,o),
(261,3,cs),
(304,3,o),
(341,-5,o),
(381,-5,cs),
(418,-5,o),
(442,13,o),
(442,39,cs),
(442,86,o),
(406,78,o),
(365,132,cs),
(340,165,o),
(334,240,o),
(334,324,cs),
(334,421,ls),
(334,505,o),
(340,580,o),
(365,613,cs),
(406,667,o),
(432,669,o),
(432,702,cs),
(432,732,o),
(408,750,o),
(371,750,cs),
(330,750,o),
(304,742,o),
(261,742,cs),
(219,742,o),
(181,750,o),
(151,750,cs),
(114,750,o),
(90,732,o),
(90,702,cs),
(90,669,o),
(116,667,o),
(157,613,cs),
(182,580,o),
(188,505,o),
(188,421,cs),
(188,324,ls),
(188,240,o),
(182,165,o),
(157,132,cs),
(116,78,o),
(80,86,o),
(80,39,cs),
(80,13,o),
(104,-5,o),
(141,-5,cs)
);
},
{
closed = 1;
nodes = (
(561,355,o),
(834,611,o),
(834,702,cs),
(834,732,o),
(820,750,o),
(783,750,cs),
(742,750,o),
(720,742,o),
(677,742,cs),
(635,742,o),
(613,750,o),
(583,750,cs),
(546,750,o),
(522,732,o),
(522,702,cs),
(522,669,o),
(578,654,o),
(589,613,cs),
(603,561,o),
(564,453,o),
(304,385,c),
(361,324,l)
);
},
{
closed = 1;
nodes = (
(708,427,o),
(683,367,o),
(707,317,cs),
(752,223,o),
(791,84,o),
(753,72,cs),
(674,47,o),
(697,364,o),
(470,372,cs),
(418,374,o),
(347,348,o),
(286,356,c),
(309,321,l),
(355,319,o),
(393,310,o),
(427,294,cs),
(552,234,o),
(502,-26,o),
(723,-16,cs),
(836,-11,o),
(902,106,o),
(902,303,cs),
(902,385,o),
(860,427,o),
(793,427,cs)
);
}
);
width = 962;
},
{
anchors = (
{
name = bottom;
pos = (491,0);
},
{
name = top;
pos = (461,745);
}
);
associatedMasterId = "A22087AE-1668-478C-9B8B-D37A40788B8E";
background = {
shapes = (
{
closed = 1;
nodes = (
(668,387,o),
(643,327,o),
(667,277,cs),
(713,183,o),
(741,94,o),
(703,82,cs),
(624,57,o),
(677,335,o),
(450,342,c),
(377,294,l),
(502,233,o),
(452,-15,o),
(673,-6,cs),
(786,-1,o),
(862,66,o),
(862,263,cs),
(862,345,o),
(820,387,o),
(753,387,cs)
);
}
);
};
layerId = "33E2247B-532E-4F49-A871-44984A7791C1";
name = "Oct 8 19, 11:40";
shapes = (
{
closed = 1;
nodes = (
(172,-5,o),
(199,3,o),
(241,3,cs),
(284,3,o),
(321,-5,o),
(361,-5,cs),
(398,-5,o),
(422,13,o),
(422,39,cs),
(422,86,o),
(386,78,o),
(345,132,cs),
(320,165,o),
(314,240,o),
(314,324,cs),
(314,421,ls),
(314,505,o),
(320,580,o),
(345,613,cs),
(386,667,o),
(412,669,o),
(412,702,cs),
(412,732,o),
(388,750,o),
(351,750,cs),
(310,750,o),
(284,742,o),
(241,742,cs),
(199,742,o),
(161,750,o),
(131,750,cs),
(94,750,o),
(70,732,o),
(70,702,cs),
(70,669,o),
(96,667,o),
(137,613,cs),
(162,580,o),
(168,505,o),
(168,421,cs),
(168,324,ls),
(168,240,o),
(162,165,o),
(137,132,cs),
(96,78,o),
(60,86,o),
(60,39,cs),
(60,13,o),
(84,-5,o),
(121,-5,cs)
);
},
{
closed = 1;
nodes = (
(541,355,o),
(814,611,o),
(814,702,cs),
(814,732,o),
(800,750,o),
(763,750,cs),
(722,750,o),
(700,742,o),
(657,742,cs),
(615,742,o),
(593,750,o),
(563,750,cs),
(526,750,o),
(502,732,o),
(502,702,cs),
(502,669,o),
(558,654,o),
(569,613,cs),
(583,561,o),
(544,453,o),
(284,385,c),
(341,324,l)
);
},
{
closed = 1;
nodes = (
(688,427,o),
(663,367,o),
(687,317,cs),
(732,223,o),
(771,84,o),
(733,72,cs),
(654,47,o),
(677,364,o),
(450,372,cs),
(398,374,o),
(327,348,o),
(266,356,c),
(289,321,l),
(335,319,o),
(373,310,o),
(407,294,cs),
(532,234,o),
(482,-26,o),
(703,-16,cs),
(816,-11,o),
(882,106,o),
(882,303,cs),
(882,385,o),
(840,427,o),
(773,427,cs)
);
}
);
width = 922;
}
);
unicode = 75;
},
{
color = 4;
glyphname = L;
kernLeft = L;
kernRight = L;
lastChange = "2019-12-04 10:07:11 +0000";
layers = (
{
anchors = (
{
name = bottom;
pos = (372,0);
},
{
name = center;
pos = (372,373);
},
{
name = top;
pos = (240,745);
},
{
name = topright;
pos = (724,745);
}
);
layerId = "A22087AE-1668-478C-9B8B-D37A40788B8E";
shapes = (
{
closed = 1;
nodes = (
(670,-6,o),
(710,25,o),
(720,122,cs),
(730,220,o),
(719,310,o),
(684,317,cs),
(651,324,o),
(630,291,o),
(599,238,cs),
(540,138,o),
(491,90,o),
(411,90,cs),
(319,90,o),
(314,165,o),
(314,264,cs),
(314,421,ls),
(314,505,o),
(320,580,o),
(345,613,cs),
(386,667,o),
(412,669,o),
(412,702,cs),
(412,732,o),
(388,750,o),
(351,750,cs),
(310,750,o),
(284,742,o),
(241,742,cs),
(199,742,o),
(161,750,o),
(131,750,cs),
(94,750,o),
(70,732,o),
(70,702,cs),
(70,669,o),
(96,667,o),
(137,613,cs),
(162,580,o),
(168,505,o),
(168,421,cs),
(168,324,ls),
(168,240,o),
(162,165,o),
(137,132,cs),
(96,78,o),
(60,86,o),
(60,39,cs),
(60,13,o),
(84,-5,o),
(121,-5,cs),
(172,-5,o),
(259,3,o),
(341,3,cs),
(422,3,o),
(564,-6,o),
(617,-6,cs)
);
}
);
width = 744;
}
);
unicode = 76;
},
{
glyphname = Lslash;
kernLeft = L;
kernRight = L;
lastChange = "2019-12-04 10:07:11 +0000";
layers = (
{
layerId = "A22087AE-1668-478C-9B8B-D37A40788B8E";
shapes = (
{
closed = 1;
nodes = (
(170,264,o),
(204,289,o),
(267,328,cs),
(332,368,o),
(397,406,o),
(453,441,cs),
(480,458,o),
(486,485,o),
(471,512,cs),
(457,537,o),
(428,541,o),
(401,524,cs),
(346,489,o),
(286,442,o),
(221,402,cs),
(158,363,o),
(119,345,o),
(64,312,cs),
(36,295,o),
(30,267,o),
(45,243,cs),
(61,217,o),
(87,210,o),
(116,229,cs)
);
},
{
ref = L;
}
);
width = 744;
}
);
unicode = 321;
},
{
color = 4;
glyphname = M;
kernLeft = M;
kernRight = M;
lastChange = "2019-12-04 10:07:11 +0000";
layers = (
{
background = {
shapes = (
{
closed = 1;
nodes = (
(314,165,o),
(308,240,o),
(308,324,cs),
(308,421,ls),
(308,505,o),
(314,580,o),
(339,613,cs),
(380,667,o),
(406,669,o),
(406,702,cs),
(406,732,o),
(382,750,o),
(345,750,cs),
(304,750,o),
(278,742,o),
(235,742,cs),
(193,742,o),
(155,750,o),
(125,750,cs),
(88,750,o),
(64,732,o),
(64,702,cs),
(64,669,o),
(90,667,o),
(131,613,cs),
(156,580,o),
(162,505,o),
(162,421,cs),
(162,324,ls),
(162,240,o),
(156,165,o),
(131,132,cs),
(90,78,o),
(54,86,o),
(54,39,cs),
(54,13,o),
(78,-5,o),
(115,-5,cs),
(166,-5,o),
(193,3,o),
(235,3,cs),
(278,3,o),
(315,-5,o),
(355,-5,cs),
(392,-5,o),
(416,13,o),
(416,39,cs),
(416,86,o),
(380,78,o),
(339,132,cs)
);
}
);
};
layerId = "A22087AE-1668-478C-9B8B-D37A40788B8E";
shapes = (
{
closed = 1;
nodes = (
(578,-11,o),
(589,7,o),
(599,33,cs),
(778,480,ls),
(797,526,o),
(805,524,o),
(819,468,cs),
(855,324,ls),
(875,241,o),
(901,165,o),
(876,132,cs),
(835,78,o),
(799,86,o),
(799,39,cs),
(799,13,o),
(823,-5,o),
(860,-5,cs),
(911,-5,o),
(938,3,o),
(980,3,cs),
(1023,3,o),
(1070,-5,o),
(1110,-5,cs),
(1147,-5,o),
(1171,13,o),
(1171,39,cs),
(1171,86,o),
(1135,78,o),
(1094,132,cs),
(1069,165,o),
(1034,241,o),
(1011,324,cs),
(984,421,ls),
(961,504,o),
(930,580,o),
(955,613,cs),
(996,667,o),
(1062,669,o),
(1062,712,cs),
(1062,737,o),
(1048,750,o),
(1007,750,cs),
(891,750,ls),
(691,750,o),
(753,717,o),
(694,549,cs),
(599,279,ls),
(590,255,o),
(582,255,o),
(573,278,cs),
(463,544,ls),
(398,702,o),
(423,742,o),
(306,742,cs),
(284,742,o),
(211,750,o),
(181,750,cs),
(144,750,o),
(120,732,o),
(120,702,cs),
(120,659,o),
(186,667,o),
(227,613,cs),
(252,580,o),
(231,502,o),
(207,421,cs),
(178,324,ls),
(154,243,o),
(122,165,o),
(97,132,cs),
(56,78,o),
(20,86,o),
(20,39,cs),
(20,13,o),
(44,-5,o),
(81,-5,cs),
(132,-5,o),
(154,3,o),
(176,3,cs),
(199,3,o),
(231,-5,o),
(271,-5,cs),
(308,-5,o),
(332,13,o),
(332,39,cs),
(332,86,o),
(296,78,o),
(255,132,cs),
(230,165,o),
(252,243,o),
(275,324,cs),
(315,465,ls),
(320,483,o),
(328,484,o),
(335,468,cs),
(518,33,l),
(529,11,o),
(538,-11,o),
(558,-11,cs)
);
}
);
width = 1181;
},
{
associatedMasterId = "A22087AE-1668-478C-9B8B-D37A40788B8E";
background = {
shapes = (
{
closed = 1;
nodes = (
(340,165,o),
(334,240,o),
(334,324,cs),
(334,421,ls),
(334,505,o),
(340,580,o),
(365,613,cs),
(406,667,o),
(432,669,o),
(432,702,cs),
(432,732,o),
(408,750,o),
(371,750,cs),
(330,750,o),
(304,742,o),
(261,742,cs),
(219,742,o),
(181,750,o),
(151,750,cs),
(114,750,o),
(90,732,o),
(90,702,cs),
(90,669,o),
(116,667,o),
(157,613,cs),
(182,580,o),
(188,505,o),
(188,421,cs),
(188,324,ls),
(188,240,o),
(182,165,o),
(157,132,cs),
(116,78,o),
(80,86,o),
(80,39,cs),
(80,13,o),
(104,-5,o),
(141,-5,cs),
(192,-5,o),
(219,3,o),
(261,3,cs),
(304,3,o),
(341,-5,o),
(381,-5,cs),
(418,-5,o),
(442,13,o),
(442,39,cs),
(442,86,o),
(406,78,o),
(365,132,cs)
);
}
);
};
layerId = "D61F9484-F727-41C3-9537-58489BFE7F0E";
name = "Aug 2 18, 12:15";
shapes = (
{
closed = 1;
nodes = (
(1085,165,o),
(1046,241,o),
(1027,324,cs),
(1005,421,ls),
(986,504,o),
(966,580,o),
(991,613,cs),
(1032,667,o),
(1058,669,o),
(1058,702,cs),
(1058,732,o),
(1034,750,o),
(997,750,cs),
(956,750,o),
(930,742,o),
(887,742,cs),
(845,742,o),
(807,750,o),
(777,750,cs),
(740,750,o),
(716,732,o),
(716,702,cs),
(716,669,o),
(742,667,o),
(783,613,cs),
(808,580,o),
(840,504,o),
(859,421,cs),
(881,324,ls),
(900,241,o),
(927,165,o),
(902,132,cs),
(861,78,o),
(825,86,o),
(825,39,cs),
(825,13,o),
(849,-5,o),
(886,-5,cs),
(937,-5,o),
(964,3,o),
(1006,3,cs),
(1049,3,o),
(1086,-5,o),
(1126,-5,cs),
(1163,-5,o),
(1187,13,o),
(1187,39,cs),
(1187,86,o),
(1151,78,o),
(1110,132,cs)
);
},
{
closed = 1;
nodes = (
(256,165,o),
(283,241,o),
(300,324,cs),
(320,421,ls),
(337,504,o),
(366,580,o),
(391,613,cs),
(432,667,o),
(458,669,o),
(458,702,cs),
(458,732,o),
(434,750,o),
(397,750,cs),
(356,750,o),
(335,742,o),
(312,742,cs),
(290,742,o),
(257,750,o),
(227,750,cs),
(190,750,o),
(166,732,o),
(166,702,cs),
(166,669,o),
(192,667,o),
(233,613,cs),
(258,580,o),
(241,504,o),
(224,421,cs),
(204,324,ls),
(187,241,o),
(148,165,o),
(123,132,cs),
(82,78,o),
(46,86,o),
(46,39,cs),
(46,13,o),
(70,-5,o),
(107,-5,cs),
(158,-5,o),
(180,3,o),
(202,3,cs),
(225,3,o),
(257,-5,o),
(297,-5,cs),
(334,-5,o),
(358,13,o),
(358,39,cs),
(358,86,o),
(322,78,o),
(281,132,cs)
);
}
);
width = 1200;
},
{
associatedMasterId = "A22087AE-1668-478C-9B8B-D37A40788B8E";
background = {
shapes = (
{
closed = 1;
nodes = (
(340,165,o),
(334,240,o),
(334,324,cs),
(334,421,ls),
(334,505,o),
(340,580,o),
(365,613,cs),
(406,667,o),
(432,669,o),
(432,702,cs),
(432,732,o),
(408,750,o),
(371,750,cs),
(330,750,o),
(304,742,o),
(261,742,cs),
(219,742,o),
(181,750,o),
(151,750,cs),
(114,750,o),
(90,732,o),
(90,702,cs),
(90,669,o),
(116,667,o),
(157,613,cs),
(182,580,o),
(188,505,o),
(188,421,cs),
(188,324,ls),
(188,240,o),
(182,165,o),
(157,132,cs),
(116,78,o),
(80,86,o),
(80,39,cs),
(80,13,o),
(104,-5,o),
(141,-5,cs),
(192,-5,o),
(219,3,o),
(261,3,cs),
(304,3,o),
(341,-5,o),
(381,-5,cs),
(418,-5,o),
(442,13,o),
(442,39,cs),
(442,86,o),
(406,78,o),
(365,132,cs)
);
}
);
};
layerId = "0B2EBDA7-DF2F-429B-AC9F-55076AE6C48F";
name = "Aug 2 18, 12:17";
shapes = (
{
closed = 1;
nodes = (
(1085,165,o),
(1046,241,o),
(1027,324,cs),
(1005,421,ls),
(986,504,o),
(966,580,o),
(991,613,cs),
(1032,667,o),
(1058,669,o),
(1058,702,cs),
(1058,732,o),
(1034,750,o),
(997,750,cs),
(956,750,o),
(930,742,o),
(887,742,cs),
(845,742,o),
(807,750,o),
(777,750,cs),
(740,750,o),
(716,732,o),
(716,702,cs),
(716,669,o),
(742,667,o),
(783,613,cs),
(808,580,o),
(840,504,o),
(859,421,cs),
(881,324,ls),
(900,241,o),
(927,165,o),
(902,132,cs),
(861,78,o),
(825,86,o),
(825,39,cs),
(825,13,o),
(849,-5,o),
(886,-5,cs),
(937,-5,o),
(964,3,o),
(1006,3,cs),
(1049,3,o),
(1086,-5,o),
(1126,-5,cs),
(1163,-5,o),
(1187,13,o),
(1187,39,cs),
(1187,86,o),
(1151,78,o),
(1110,132,cs)
);
},
{
closed = 1;
nodes = (
(256,165,o),
(283,241,o),
(300,324,cs),
(320,421,ls),
(337,504,o),
(366,580,o),
(391,613,cs),
(432,667,o),
(458,669,o),
(458,702,cs),
(458,732,o),
(434,750,o),
(397,750,cs),
(356,750,o),
(335,742,o),
(312,742,cs),
(290,742,o),
(257,750,o),
(227,750,cs),
(190,750,o),
(166,732,o),
(166,702,cs),
(166,669,o),
(192,667,o),
(233,613,cs),
(258,580,o),
(241,504,o),
(224,421,cs),
(204,324,ls),
(187,241,o),
(148,165,o),
(123,132,cs),
(82,78,o),
(46,86,o),
(46,39,cs),
(46,13,o),
(70,-5,o),
(107,-5,cs),
(158,-5,o),
(180,3,o),
(202,3,cs),
(225,3,o),
(257,-5,o),
(297,-5,cs),
(334,-5,o),
(358,13,o),
(358,39,cs),
(358,86,o),
(322,78,o),
(281,132,cs)
);
},
{
closed = 1;
nodes = (
(367,388,o),
(533,55,o),
(544,33,cs),
(555,11,o),
(564,-11,o),
(584,-11,cs),
(604,-11,o),
(613,7,o),
(625,33,cs),
(661,109,o),
(847,567,o),
(877,617,c),
(784,654,l),
(592,196,l),
(629,187,l),
(382,688,l),
(287,550,l)
);
}
);
width = 1200;
},
{
associatedMasterId = "A22087AE-1668-478C-9B8B-D37A40788B8E";
background = {
shapes = (
{
closed = 1;
nodes = (
(340,165,o),
(334,240,o),
(334,324,cs),
(334,421,ls),
(334,505,o),
(340,580,o),
(365,613,cs),
(406,667,o),
(432,669,o),
(432,702,cs),
(432,732,o),
(408,750,o),
(371,750,cs),
(330,750,o),
(304,742,o),
(261,742,cs),
(219,742,o),
(181,750,o),
(151,750,cs),
(114,750,o),
(90,732,o),
(90,702,cs),
(90,669,o),
(116,667,o),
(157,613,cs),
(182,580,o),
(188,505,o),
(188,421,cs),
(188,324,ls),
(188,240,o),
(182,165,o),
(157,132,cs),
(116,78,o),
(80,86,o),
(80,39,cs),
(80,13,o),
(104,-5,o),
(141,-5,cs),
(192,-5,o),
(219,3,o),
(261,3,cs),
(304,3,o),
(341,-5,o),
(381,-5,cs),
(418,-5,o),
(442,13,o),
(442,39,cs),
(442,86,o),
(406,78,o),
(365,132,cs)
);
}
);
};
layerId = "620F4A01-2A6D-4D29-8AA6-F15A53002D9B";
name = "Aug 2 18, 12:19";
shapes = (
{
closed = 1;
nodes = (
(1085,165,o),
(1046,241,o),
(1027,324,cs),
(1005,421,ls),
(986,504,o),
(966,580,o),
(991,613,cs),
(1032,667,o),
(1058,669,o),
(1058,702,cs),
(1058,732,o),
(1034,750,o),
(997,750,cs),
(956,750,o),
(930,742,o),
(887,742,cs),
(845,742,o),
(807,750,o),
(777,750,cs),
(740,750,o),
(716,732,o),
(716,702,cs),
(716,672,o),
(738,668,o),
(772,626,c),
(607,232,l),
(449,544,ls),
(438,565,o),
(413,612,o),
(421,639,cs),
(429,668,o),
(458,674,o),
(458,702,cs),
(458,732,o),
(434,750,o),
(397,750,cs),
(356,750,o),
(335,742,o),
(312,742,cs),
(290,742,o),
(257,750,o),
(227,750,cs),
(190,750,o),
(166,732,o),
(166,702,cs),
(166,669,o),
(192,667,o),
(233,613,cs),
(258,580,o),
(241,504,o),
(224,421,cs),
(204,324,ls),
(187,241,o),
(148,165,o),
(123,132,cs),
(82,78,o),
(46,86,o),
(46,39,cs),
(46,13,o),
(70,-5,o),
(107,-5,cs),
(158,-5,o),
(180,3,o),
(202,3,cs),
(225,3,o),
(257,-5,o),
(297,-5,cs),
(334,-5,o),
(358,13,o),
(358,39,cs),
(358,86,o),
(322,78,o),
(281,132,cs),
(256,165,o),
(283,241,o),
(300,324,cs),
(320,421,ls),
(323,435,o),
(326,450,o),
(330,463,c),
(415,292,o),
(535,52,o),
(544,33,cs),
(555,11,o),
(564,-11,o),
(584,-11,cs),
(604,-11,o),
(614,7,o),
(625,33,cs),
(803,452,ls),
(812,474,o),
(819,488,o),
(831,488,cs),
(842,488,o),
(849,465,o),
(857,430,cs),
(881,324,ls),
(900,241,o),
(927,165,o),
(902,132,cs),
(861,78,o),
(825,86,o),
(825,39,cs),
(825,13,o),
(849,-5,o),
(886,-5,cs),
(937,-5,o),
(964,3,o),
(1006,3,cs),
(1049,3,o),
(1086,-5,o),
(1126,-5,cs),
(1163,-5,o),
(1187,13,o),
(1187,39,cs),
(1187,86,o),
(1151,78,o),
(1110,132,cs)
);
}
);
width = 1200;
},
{
associatedMasterId = "A22087AE-1668-478C-9B8B-D37A40788B8E";
background = {
shapes = (
{
closed = 1;
nodes = (
(340,165,o),
(334,240,o),
(334,324,cs),
(334,421,ls),
(334,505,o),
(340,580,o),
(365,613,cs),
(406,667,o),
(432,669,o),
(432,702,cs),
(432,732,o),
(408,750,o),
(371,750,cs),
(330,750,o),
(304,742,o),
(261,742,cs),
(219,742,o),
(181,750,o),
(151,750,cs),
(114,750,o),
(90,732,o),
(90,702,cs),
(90,669,o),
(116,667,o),
(157,613,cs),
(182,580,o),
(188,505,o),
(188,421,cs),
(188,324,ls),
(188,240,o),
(182,165,o),
(157,132,cs),
(116,78,o),
(80,86,o),
(80,39,cs),
(80,13,o),
(104,-5,o),
(141,-5,cs),
(192,-5,o),
(219,3,o),
(261,3,cs),
(304,3,o),
(341,-5,o),
(381,-5,cs),
(418,-5,o),
(442,13,o),
(442,39,cs),
(442,86,o),
(406,78,o),
(365,132,cs)
);
}
);
};
layerId = "3B7BEC7E-DD6A-4230-928D-68801E2AB676";
name = "Aug 2 18, 12:21";
shapes = (
{
closed = 1;
nodes = (
(1085,165,o),
(1046,241,o),
(1027,324,cs),
(1005,421,ls),
(986,504,o),
(966,580,o),
(991,613,cs),
(1032,667,o),
(1098,669,o),
(1098,712,cs),
(1098,737,o),
(1084,750,o),
(1043,750,cs),
(998,750,o),
(953,750,o),
(937,750,cs),
(737,750,o),
(808,713,o),
(740,549,cs),
(607,232,l),
(459,544,ls),
(386,698,o),
(429,742,o),
(312,742,cs),
(290,742,o),
(217,750,o),
(187,750,cs),
(150,750,o),
(126,732,o),
(126,702,cs),
(126,659,o),
(192,667,o),
(233,613,cs),
(258,580,o),
(241,504,o),
(224,421,cs),
(204,324,ls),
(187,241,o),
(148,165,o),
(123,132,cs),
(82,78,o),
(46,86,o),
(46,39,cs),
(46,13,o),
(70,-5,o),
(107,-5,cs),
(158,-5,o),
(180,3,o),
(202,3,cs),
(225,3,o),
(257,-5,o),
(297,-5,cs),
(334,-5,o),
(358,13,o),
(358,39,cs),
(358,86,o),
(322,78,o),
(281,132,cs),
(256,165,o),
(283,241,o),
(300,324,cs),
(320,421,ls),
(323,435,o),
(326,450,o),
(330,463,c),
(415,292,o),
(535,52,o),
(544,33,cs),
(555,11,o),
(564,-11,o),
(584,-11,cs),
(604,-11,o),
(614,7,o),
(625,33,cs),
(803,452,ls),
(812,474,o),
(819,488,o),
(831,488,cs),
(842,488,o),
(849,465,o),
(857,430,cs),
(881,324,ls),
(900,241,o),
(927,165,o),
(902,132,cs),
(861,78,o),
(825,86,o),
(825,39,cs),
(825,13,o),
(849,-5,o),
(886,-5,cs),
(937,-5,o),
(964,3,o),
(1006,3,cs),
(1049,3,o),
(1086,-5,o),
(1126,-5,cs),
(1163,-5,o),
(1187,13,o),
(1187,39,cs),
(1187,86,o),
(1151,78,o),
(1110,132,cs)
);
}
);
width = 1200;
},
{
associatedMasterId = "A22087AE-1668-478C-9B8B-D37A40788B8E";
background = {
shapes = (
{
closed = 1;
nodes = (
(314,165,o),
(308,240,o),
(308,324,cs),
(308,421,ls),
(308,505,o),
(314,580,o),
(339,613,cs),
(380,667,o),
(406,669,o),
(406,702,cs),
(406,732,o),
(382,750,o),
(345,750,cs),
(304,750,o),
(278,742,o),
(235,742,cs),
(193,742,o),
(155,750,o),
(125,750,cs),
(88,750,o),
(64,732,o),
(64,702,cs),
(64,669,o),
(90,667,o),
(131,613,cs),
(156,580,o),
(162,505,o),
(162,421,cs),
(162,324,ls),
(162,240,o),
(156,165,o),
(131,132,cs),
(90,78,o),
(54,86,o),
(54,39,cs),
(54,13,o),
(78,-5,o),
(115,-5,cs),
(166,-5,o),
(193,3,o),
(235,3,cs),
(278,3,o),
(315,-5,o),
(355,-5,cs),
(392,-5,o),
(416,13,o),
(416,39,cs),
(416,86,o),
(380,78,o),
(339,132,cs)
);
}
);
};
layerId = "652A7192-B188-461F-8916-C5B87BAB1D91";
name = "Oct 8 19, 11:42";
shapes = (
{
closed = 1;
nodes = (
(1069,165,o),
(1034,241,o),
(1011,324,cs),
(984,421,ls),
(961,504,o),
(930,580,o),
(955,613,cs),
(996,667,o),
(1062,669,o),
(1062,712,cs),
(1062,737,o),
(1048,750,o),
(1007,750,cs),
(962,750,o),
(907,750,o),
(891,750,cs),
(691,750,o),
(754,717,o),
(694,549,cs),
(566,190,l),
(608,190,l),
(463,544,ls),
(398,702,o),
(423,742,o),
(306,742,cs),
(284,742,o),
(211,750,o),
(181,750,cs),
(144,750,o),
(120,732,o),
(120,702,cs),
(120,659,o),
(186,667,o),
(227,613,cs),
(252,580,o),
(231,502,o),
(207,421,cs),
(178,324,ls),
(154,243,o),
(122,165,o),
(97,132,cs),
(56,78,o),
(20,86,o),
(20,39,cs),
(20,13,o),
(44,-5,o),
(81,-5,cs),
(132,-5,o),
(154,3,o),
(176,3,cs),
(199,3,o),
(231,-5,o),
(271,-5,cs),
(308,-5,o),
(332,13,o),
(332,39,cs),
(332,86,o),
(296,78,o),
(255,132,cs),
(230,165,o),
(251,243,o),
(275,324,cs),
(324,492,l),
(518,33,ls),
(529,11,o),
(538,-11,o),
(558,-11,cs),
(578,-11,o),
(589,7,o),
(599,33,cs),
(771,462,ls),
(780,484,o),
(787,504,o),
(799,504,cs),
(810,504,o),
(815,485,o),
(824,450,cs),
(855,324,ls),
(875,241,o),
(901,165,o),
(876,132,cs),
(835,78,o),
(799,86,o),
(799,39,cs),
(799,13,o),
(823,-5,o),
(860,-5,cs),
(911,-5,o),
(938,3,o),
(980,3,cs),
(1023,3,o),
(1070,-5,o),
(1110,-5,cs),
(1147,-5,o),
(1171,13,o),
(1171,39,cs),
(1171,86,o),
(1135,78,o),
(1094,132,cs)
);
}
);
width = 1181;
}
);
unicode = 77;
},
{
color = 4;
glyphname = N;
kernLeft = N;
kernRight = N;
lastChange = "2019-12-04 10:07:11 +0000";
layers = (
{
anchors = (
{
name = bottom;
pos = (505,0);
},
{
name = top;
pos = (505,745);
}
);
layerId = "A22087AE-1668-478C-9B8B-D37A40788B8E";
shapes = (
{
closed = 1;
nodes = (
(848,-39,o),
(851,-15,o),
(851,22,cs),
(851,421,ls),
(851,505,o),
(857,580,o),
(882,613,cs),
(923,667,o),
(949,669,o),
(949,702,cs),
(949,732,o),
(925,750,o),
(888,750,cs),
(847,750,o),
(841,742,o),
(803,742,cs),
(766,742,o),
(748,750,o),
(718,750,cs),
(681,750,o),
(657,732,o),
(657,702,cs),
(657,669,o),
(683,667,o),
(724,613,cs),
(749,580,o),
(755,505,o),
(755,421,cs),
(755,259,ls),
(755,247,o),
(750,244,o),
(742,253,cs),
(369,711,ls),
(353,731,o),
(334,750,o),
(301,750,cs),
(260,750,o),
(254,742,o),
(216,742,cs),
(179,742,o),
(161,750,o),
(131,750,cs),
(94,750,o),
(70,732,o),
(70,702,cs),
(70,669,o),
(96,667,o),
(137,613,cs),
(162,580,o),
(168,505,o),
(168,421,cs),
(168,324,ls),
(168,240,o),
(162,165,o),
(137,132,cs),
(96,78,o),
(60,86,o),
(60,39,cs),
(60,13,o),
(84,-5,o),
(121,-5,cs),
(172,-5,o),
(179,3,o),
(216,3,cs),
(254,3,o),
(271,-5,o),
(311,-5,cs),
(348,-5,o),
(372,13,o),
(372,39,cs),
(372,86,o),
(336,78,o),
(295,132,cs),
(270,165,o),
(264,240,o),
(264,324,cs),
(264,421,ls),
(264,471,o),
(267,519,o),
(272,546,cs),
(274,561,o),
(279,561,o),
(288,550,cs),
(457,353,o),
(740,15,o),
(765,-14,cs),
(791,-45,o),
(811,-53,o),
(830,-46,cs)
);
}
);
width = 999;
}
);
unicode = 78;
},
{
glyphname = Eng;
kernLeft = N;
kernRight = N;
lastChange = "2019-12-04 10:07:11 +0000";
layers = (
{
anchors = (
{
name = bottom;
pos = (505,0);
},
{
name = top;
pos = (505,745);
}
);
layerId = "A22087AE-1668-478C-9B8B-D37A40788B8E";
shapes = (
{
closed = 1;
nodes = (
(825,-166,o),
(850,-114,o),
(851,19,cs),
(851,22,l),
(851,421,ls),
(851,505,o),
(857,580,o),
(882,613,cs),
(923,667,o),
(949,669,o),
(949,702,cs),
(949,732,o),
(925,750,o),
(888,750,cs),
(847,750,o),
(841,742,o),
(803,742,cs),
(766,742,o),
(748,750,o),
(718,750,cs),
(681,750,o),
(657,732,o),
(657,702,cs),
(657,669,o),
(683,667,o),
(724,613,cs),
(749,580,o),
(755,505,o),
(755,421,cs),
(755,259,ls),
(755,247,o),
(750,244,o),
(742,253,c),
(369,711,ls),
(353,731,o),
(334,750,o),
(301,750,cs),
(260,750,o),
(254,742,o),
(216,742,cs),
(179,742,o),
(161,750,o),
(131,750,cs),
(94,750,o),
(70,732,o),
(70,702,cs),
(70,669,o),
(96,667,o),
(137,613,cs),
(162,580,o),
(168,505,o),
(168,421,cs),
(168,324,ls),
(168,240,o),
(162,165,o),
(137,132,cs),
(96,78,o),
(60,86,o),
(60,39,cs),
(60,13,o),
(84,-5,o),
(121,-5,cs),
(172,-5,o),
(179,3,o),
(216,3,cs),
(254,3,o),
(271,-5,o),
(311,-5,cs),
(348,-5,o),
(372,13,o),
(372,39,cs),
(372,86,o),
(336,78,o),
(295,132,cs),
(270,165,o),
(264,240,o),
(264,324,cs),
(264,421,ls),
(264,471,o),
(267,519,o),
(272,546,c),
(274,561,o),
(279,561,o),
(288,550,cs),
(440,373,o),
(683,83,o),
(725,34,cs),
(762,-10,o),
(750,-61,o),
(693,-105,cs),
(641,-145,o),
(592,-133,o),
(585,-166,cs),
(578,-201,o),
(681,-247,o),
(774,-195,cs)
);
}
);
width = 979;
},
{
anchors = (
{
name = bottom;
pos = (505,0);
},
{
name = top;
pos = (505,745);
}
);
associatedMasterId = "A22087AE-1668-478C-9B8B-D37A40788B8E";
layerId = "B2757425-1C89-44C8-8E8C-89BF3A862D42";
name = "Oct 8 19, 11:46";
shapes = (
{
closed = 1;
nodes = (
(758,4,o),
(738,-71,o),
(693,-105,cs),
(641,-145,o),
(592,-133,o),
(585,-166,cs),
(578,-201,o),
(681,-247,o),
(774,-195,cs),
(826,-166,o),
(851,-113,o),
(851,23,c),
(758,101,l)
);
},
{
closed = 1;
nodes = (
(847,750,o),
(841,742,o),
(803,742,cs),
(766,742,o),
(748,750,o),
(718,750,cs),
(681,750,o),
(657,732,o),
(657,702,cs),
(657,669,o),
(683,667,o),
(724,613,cs),
(749,580,o),
(755,505,o),
(755,421,cs),
(755,259,ls),
(755,247,o),
(750,244,o),
(742,253,cs),
(369,711,ls),
(353,731,o),
(334,750,o),
(301,750,cs),
(260,750,o),
(254,742,o),
(216,742,cs),
(179,742,o),
(161,750,o),
(131,750,cs),
(94,750,o),
(70,732,o),
(70,702,cs),
(70,669,o),
(96,667,o),
(137,613,cs),
(162,580,o),
(168,505,o),
(168,421,cs),
(168,324,ls),
(168,240,o),
(162,165,o),
(137,132,cs),
(96,78,o),
(60,86,o),
(60,39,cs),
(60,13,o),
(84,-5,o),
(121,-5,cs),
(172,-5,o),
(179,3,o),
(216,3,cs),
(254,3,o),
(271,-5,o),
(311,-5,cs),
(348,-5,o),
(372,13,o),
(372,39,cs),
(372,86,o),
(336,78,o),
(295,132,cs),
(270,165,o),
(264,240,o),
(264,324,cs),
(264,421,ls),
(264,471,o),
(267,519,o),
(272,546,cs),
(274,561,o),
(279,561,o),
(288,550,cs),
(457,353,o),
(740,15,o),
(765,-14,cs),
(791,-45,o),
(811,-53,o),
(830,-46,cs),
(848,-39,o),
(851,-15,o),
(851,22,cs),
(851,421,ls),
(851,505,o),
(857,580,o),
(882,613,cs),
(923,667,o),
(949,669,o),
(949,702,cs),
(949,732,o),
(925,750,o),
(888,750,cs)
);
}
);
width = 979;
}
);
unicode = 330;
},
{
color = 4;
glyphname = O;
kernLeft = O;
kernRight = O;
lastChange = "2019-12-04 10:07:11 +0000";
layers = (
{
anchors = (
{
name = bottom;
pos = (441,0);
},
{
name = center;
pos = (441,373);
},
{
name = ogonek;
pos = (786,10);
},
{
name = top;
pos = (441,755);
},
{
name = topleft;
pos = (30,745);
},
{
name = topright;
pos = (852,745);
}
);
background = {
shapes = (
{
closed = 1;
nodes = (
(781,262,o),
(780,288,o),
(766,295,cs),
(743,306,o),
(729,290,o),
(705,256,cs),
(660,192,o),
(589,142,o),
(495,142,cs),
(333,142,o),
(210,273,o),
(210,437,cs),
(210,560,o),
(291,660,o),
(410,660,cs),
(502,660,o),
(563,610,o),
(615,527,cs),
(650,471,o),
(684,474,o),
(707,504,cs),
(726,529,o),
(745,664,o),
(743,695,cs),
(740,738,o),
(717,740,o),
(651,730,cs),
(582,720,o),
(559,760,o),
(437,760,cs),
(234,760,o),
(60,586,o),
(60,373,cs),
(60,160,o),
(224,-14,o),
(437,-14,cs),
(617,-14,o),
(716,101,o),
(768,230,cs)
);
}
);
};
layerId = "A22087AE-1668-478C-9B8B-D37A40788B8E";
shapes = (
{
closed = 1;
nodes = (
(669,-14,o),
(852,159,o),
(852,373,cs),
(852,596,o),
(669,760,o),
(441,760,cs),
(213,760,o),
(30,587,o),
(30,373,cs),
(30,150,o),
(213,-14,o),
(441,-14,cs)
);
},
{
closed = 1;
nodes = (
(318,107,o),
(216,286,o),
(216,452,cs),
(216,570,o),
(293,659,o),
(407,659,cs),
(564,659,o),
(666,481,o),
(666,315,cs),
(666,197,o),
(589,107,o),
(475,107,cs)
);
}
);
width = 882;
},
{
associatedMasterId = "A22087AE-1668-478C-9B8B-D37A40788B8E";
background = {
shapes = (
{
closed = 1;
nodes = (
(741,262,o),
(740,288,o),
(726,295,cs),
(703,306,o),
(689,290,o),
(665,256,cs),
(620,192,o),
(549,142,o),
(455,142,cs),
(293,142,o),
(170,273,o),
(170,437,cs),
(170,560,o),
(251,660,o),
(370,660,cs),
(462,660,o),
(523,610,o),
(575,527,cs),
(610,471,o),
(644,474,o),
(667,504,cs),
(686,529,o),
(705,664,o),
(703,695,cs),
(700,738,o),
(677,740,o),
(611,730,cs),
(542,720,o),
(519,760,o),
(397,760,cs),
(194,760,o),
(20,586,o),
(20,373,cs),
(20,160,o),
(184,-14,o),
(397,-14,cs),
(577,-14,o),
(676,101,o),
(728,230,cs)
);
}
);
};
layerId = "BE26FA35-EA22-415A-86D2-00F85A937B66";
name = "Aug 1 18, 18:37";
shapes = (
{
closed = 1;
nodes = (
(614,-14,o),
(787,160,o),
(787,373,cs),
(787,586,o),
(614,760,o),
(401,760,cs),
(188,760,o),
(15,586,o),
(15,373,cs),
(15,160,o),
(188,-14,o),
(401,-14,cs)
);
},
{
closed = 1;
nodes = (
(381,77,o),
(265,155,o),
(207,313,cs),
(148,471,o),
(187,605,o),
(305,647,cs),
(421,689,o),
(537,611,o),
(595,453,cs),
(654,295,o),
(615,161,o),
(497,119,cs)
);
}
);
width = 800;
},
{
anchors = (
{
name = bottom;
pos = (431,0);
},
{
name = center;
pos = (431,373);
},
{
name = ogonek;
pos = (776,10);
},
{
name = top;
pos = (431,755);
},
{
name = topleft;
pos = (20,745);
},
{
name = topright;
pos = (842,745);
}
);
associatedMasterId = "A22087AE-1668-478C-9B8B-D37A40788B8E";
background = {
shapes = (
{
closed = 1;
nodes = (
(771,262,o),
(770,288,o),
(756,295,cs),
(733,306,o),
(719,290,o),
(695,256,cs),
(650,192,o),
(579,142,o),
(485,142,cs),
(323,142,o),
(200,273,o),
(200,437,cs),
(200,560,o),
(281,660,o),
(400,660,cs),
(492,660,o),
(553,610,o),
(605,527,cs),
(640,471,o),
(674,474,o),
(697,504,cs),
(716,529,o),
(735,664,o),
(733,695,cs),
(730,738,o),
(707,740,o),
(641,730,cs),
(572,720,o),
(549,760,o),
(427,760,cs),
(224,760,o),
(50,586,o),
(50,373,cs),
(50,160,o),
(214,-14,o),
(427,-14,cs),
(607,-14,o),
(706,101,o),
(758,230,cs)
);
}
);
};
layerId = "19274AF8-431C-4071-A1EE-9115B24415BE";
name = "Jul 10 19, 10:01";
shapes = (
{
closed = 1;
nodes = (
(653,-29,o),
(832,151,o),
(832,373,cs),
(832,605,o),
(653,775,o),
(431,775,cs),
(209,775,o),
(30,595,o),
(30,373,cs),
(30,141,o),
(209,-29,o),
(431,-29,cs)
);
},
{
closed = 1;
nodes = (
(582,97,o),
(466,97,cs),
(305,97,o),
(201,283,o),
(201,454,cs),
(201,577,o),
(280,669,o),
(396,669,cs),
(557,669,o),
(661,484,o),
(661,313,cs),
(661,190,o)
);
}
);
width = 862;
}
);
unicode = 79;
},
{
glyphname = Oslash;
kernLeft = O;
kernRight = O;
lastChange = "2019-12-04 10:07:11 +0000";
layers = (
{
layerId = "A22087AE-1668-478C-9B8B-D37A40788B8E";
shapes = (
{
closed = 1;
nodes = (
(114,4,o),
(148,-4,o),
(179,27,cs),
(258,110,o),
(355,228,o),
(471,344,cs),
(589,462,o),
(709,559,o),
(789,643,cs),
(819,673,o),
(811,707,o),
(790,730,cs),
(770,751,o),
(735,755,o),
(705,725,cs),
(624,644,o),
(526,523,o),
(409,405,cs),
(292,288,o),
(175,191,o),
(94,110,cs),
(64,80,o),
(72,44,o),
(92,25,cs)
);
},
{
ref = O;
}
);
width = 882;
}
);
unicode = 216;
},
{
glyphname = OE;
kernLeft = O;
kernRight = E;
lastChange = "2019-12-04 10:07:11 +0000";
layers = (
{
anchors = (
{
name = bottom;
pos = (1251,0);
},
{
name = ogonek;
pos = (1561,10);
},
{
name = top;
pos = (1251,745);
},
{
name = topleft;
pos = (882,745);
}
);
layerId = "A22087AE-1668-478C-9B8B-D37A40788B8E";
shapes = (
{
closed = 1;
nodes = (
(1234,-14,o),
(1333,101,o),
(1385,230,cs),
(1398,262,o),
(1397,288,o),
(1383,295,cs),
(1360,306,o),
(1346,290,o),
(1322,256,cs),
(1277,192,o),
(1206,142,o),
(1112,142,cs),
(950,142,o),
(827,273,o),
(827,437,cs),
(827,560,o),
(908,660,o),
(1027,660,cs),
(1119,660,o),
(1180,610,o),
(1232,527,cs),
(1267,471,o),
(1301,474,o),
(1324,504,cs),
(1343,529,o),
(1362,664,o),
(1360,695,cs),
(1357,738,o),
(1334,740,o),
(1268,730,cs),
(1199,720,o),
(1176,760,o),
(1054,760,cs),
(851,760,o),
(677,586,o),
(677,373,cs),
(677,160,o),
(841,-14,o),
(1054,-14,cs)
);
},
{
closed = 1;
nodes = (
(1211,251,o),
(1217,309,o),
(1207,391,cs),
(1199,457,o),
(1170,519,o),
(1117,519,cs),
(1054,519,o),
(1086,435,o),
(911,448,cs),
(855,452,o),
(819,453,o),
(844,532,c),
(724,371,l),
(869,279,l),
(829,349,o),
(873,349,o),
(921,352,cs),
(1032,359,o),
(1074,339,o),
(1096,299,cs),
(1117,260,o),
(1144,231,o),
(1181,242,cs)
);
},
{
ref = O;
}
);
width = 1414;
}
);
metricLeft = O;
metricRight = E;
unicode = 338;
},
{
color = 4;
glyphname = P;
kernLeft = P;
kernRight = P;
lastChange = "2019-12-04 10:07:11 +0000";
layers = (
{
layerId = "A22087AE-1668-478C-9B8B-D37A40788B8E";
shapes = (
{
closed = 1;
nodes = (
(172,-5,o),
(199,3,o),
(241,3,cs),
(284,3,o),
(321,-5,o),
(361,-5,cs),
(398,-5,o),
(422,13,o),
(422,39,cs),
(422,86,o),
(386,78,o),
(345,132,cs),
(324,161,o),
(316,200,o),
(315,238,cs),
(314,276,o),
(331,288,o),
(390,282,cs),
(592,263,o),
(738,383,o),
(738,571,cs),
(738,700,o),
(647,764,o),
(560,764,cs),
(473,764,o),
(399,733,o),
(317,733,cs),
(275,733,o),
(161,750,o),
(131,750,cs),
(94,750,o),
(70,732,o),
(70,702,cs),
(70,669,o),
(96,667,o),
(137,613,cs),
(162,580,o),
(168,505,o),
(168,421,cs),
(168,324,ls),
(168,240,o),
(162,165,o),
(137,132,cs),
(96,78,o),
(60,86,o),
(60,39,cs),
(60,13,o),
(84,-5,o),
(121,-5,cs)
);
},
{
closed = 1;
nodes = (
(325,383,o),
(314,397,o),
(314,441,cs),
(314,551,o),
(325,634,o),
(459,658,cs),
(527,670,o),
(586,633,o),
(586,548,cs),
(586,411,o),
(446,344,o),
(353,374,cs)
);
}
);
width = 758;
},
{
associatedMasterId = "A22087AE-1668-478C-9B8B-D37A40788B8E";
layerId = "18E4F5EB-95F0-45F9-B769-94F3871BD225";
name = "Aug 24 19, 20:17";
shapes = (
{
closed = 1;
nodes = (
(331,288,o),
(390,282,cs),
(592,263,o),
(738,383,o),
(738,571,cs),
(738,700,o),
(647,764,o),
(560,764,cs),
(473,764,o),
(399,733,o),
(317,733,cs),
(275,733,o),
(161,750,o),
(131,750,cs),
(94,750,o),
(70,732,o),
(70,702,cs),
(70,669,o),
(96,667,o),
(137,613,cs),
(162,580,o),
(168,505,o),
(168,421,cs),
(168,324,ls),
(168,240,o),
(162,165,o),
(137,132,cs),
(96,78,o),
(60,86,o),
(60,39,cs),
(60,13,o),
(84,-5,o),
(121,-5,cs),
(172,-5,o),
(199,3,o),
(241,3,cs),
(284,3,o),
(321,-5,o),
(361,-5,cs),
(398,-5,o),
(422,13,o),
(422,39,cs),
(422,86,o),
(386,78,o),
(345,132,cs),
(324,161,o),
(316,200,o),
(315,238,cs),
(314,276,o)
);
},
{
closed = 1;
nodes = (
(314,421,ls),
(314,551,o),
(325,634,o),
(459,658,cs),
(527,670,o),
(586,633,o),
(586,548,cs),
(586,411,o),
(446,344,o),
(314,376,c)
);
}
);
width = 758;
}
);
unicode = 80;
},
{
color = 4;
glyphname = Thorn;
lastChange = "2019-12-04 10:07:11 +0000";
layers = (
{
anchors = (
{
name = bottom;
pos = (241,0);
},
{
name = ogonek;
pos = (450,10);
},
{
name = top;
pos = (241,745);
},
{
name = topleft;
pos = (0,745);
}
);
layerId = "A22087AE-1668-478C-9B8B-D37A40788B8E";
shapes = (
{
closed = 1;
nodes = (
(172,-5,o),
(199,3,o),
(241,3,cs),
(284,3,o),
(321,-5,o),
(361,-5,cs),
(398,-5,o),
(422,13,o),
(422,39,cs),
(422,86,o),
(386,78,o),
(345,132,cs),
(337,142,o),
(331,156,o),
(327,173,c),
(371,153,o),
(423,140,o),
(481,140,cs),
(634,139,o),
(736,232,o),
(736,372,cs),
(736,512,o),
(634,605,o),
(481,604,cs),
(423,604,o),
(370,591,o),
(326,569,c),
(331,588,o),
(337,602,o),
(345,613,cs),
(386,667,o),
(412,669,o),
(412,702,cs),
(412,732,o),
(388,750,o),
(351,750,cs),
(310,750,o),
(284,742,o),
(241,742,cs),
(199,742,o),
(161,750,o),
(131,750,cs),
(94,750,o),
(70,732,o),
(70,702,cs),
(70,669,o),
(96,667,o),
(137,613,cs),
(162,580,o),
(168,505,o),
(168,421,cs),
(168,324,ls),
(168,240,o),
(162,165,o),
(137,132,cs),
(96,78,o),
(60,86,o),
(60,39,cs),
(60,13,o),
(84,-5,o),
(121,-5,cs)
);
},
{
closed = 1;
nodes = (
(318,236,o),
(314,240,o),
(314,324,cs),
(314,421,ls),
(314,503,o),
(321,508,o),
(391,508,cs),
(479,508,o),
(535,462,o),
(535,372,cs),
(535,286,o),
(479,236,o),
(391,236,cs)
);
}
);
width = 756;
},
{
anchors = (
{
name = bottom;
pos = (241,0);
},
{
name = ogonek;
pos = (450,10);
},
{
name = top;
pos = (241,745);
},
{
name = topleft;
pos = (0,745);
}
);
associatedMasterId = "A22087AE-1668-478C-9B8B-D37A40788B8E";
layerId = "2D91297E-B677-45E8-8CB7-A41BA8B56833";
name = "Oct 8 19, 11:51";
shapes = (
{
closed = 1;
nodes = (
(634,139,o),
(736,232,o),
(736,372,cs),
(736,512,o),
(634,605,o),
(481,604,cs),
(306,603,o),
(185,489,o),
(185,372,cs),
(185,250,o),
(306,141,o),
(481,140,cs)
);
},
{
closed = 1;
nodes = (
(267,236,o),
(226,282,o),
(226,372,cs),
(226,458,o),
(267,508,o),
(391,508,cs),
(479,508,o),
(535,462,o),
(535,372,cs),
(535,286,o),
(479,236,o),
(391,236,cs)
);
},
{
closed = 1;
nodes = (
(320,165,o),
(314,240,o),
(314,324,cs),
(314,421,ls),
(314,505,o),
(320,580,o),
(345,613,cs),
(386,667,o),
(412,669,o),
(412,702,cs),
(412,732,o),
(388,750,o),
(351,750,cs),
(310,750,o),
(284,742,o),
(241,742,cs),
(199,742,o),
(161,750,o),
(131,750,cs),
(94,750,o),
(70,732,o),
(70,702,cs),
(70,669,o),
(96,667,o),
(137,613,cs),
(162,580,o),
(168,505,o),
(168,421,cs),
(168,324,ls),
(168,240,o),
(162,165,o),
(137,132,cs),
(96,78,o),
(60,86,o),
(60,39,cs),
(60,13,o),
(84,-5,o),
(121,-5,cs),
(172,-5,o),
(199,3,o),
(241,3,cs),
(284,3,o),
(321,-5,o),
(361,-5,cs),
(398,-5,o),
(422,13,o),
(422,39,cs),
(422,86,o),
(386,78,o),
(345,132,cs)
);
}
);
width = 756;
}
);
metricLeft = H;
unicode = 222;
},
{
color = 4;
glyphname = Q;
kernLeft = Q;
kernRight = Q;
lastChange = "2019-12-04 10:07:11 +0000";
layers = (
{
anchors = (
{
name = bottom;
pos = (441,0);
},
{
name = center;
pos = (441,373);
},
{
name = ogonek;
pos = (786,10);
},
{
name = top;
pos = (441,755);
},
{
name = topleft;
pos = (30,745);
},
{
name = topright;
pos = (852,745);
}
);
layerId = "A22087AE-1668-478C-9B8B-D37A40788B8E";
shapes = (
{
closed = 1;
nodes = (
(801,-188,o),
(833,-61,o),
(818,-35,cs),
(810,-21,o),
(769,-23,o),
(713,-25,cs),
(680,-26,o),
(584,-24,o),
(523,-19,cs),
(504,-17,o),
(486,-16,o),
(487,-8,cs),
(488,0,o),
(514,-3,o),
(563,6,cs),
(711,34,o),
(852,186,o),
(852,373,cs),
(852,596,o),
(669,760,o),
(441,760,cs),
(213,760,o),
(30,587,o),
(30,373,cs),
(30,222,o),
(114,98,o),
(281,34,cs),
(294,29,o),
(292,26,o),
(279,25,cs),
(223,20,o),
(199,13,o),
(171,0,cs),
(128,-19,o),
(109,-44,o),
(119,-69,cs),
(129,-94,o),
(161,-101,o),
(203,-90,cs),
(245,-79,o),
(310,-80,o),
(381,-102,cs),
(451,-124,o),
(620,-188,o),
(696,-188,cs)
);
},
{
closed = 1;
nodes = (
(318,107,o),
(216,286,o),
(216,452,cs),
(216,570,o),
(293,659,o),
(407,659,cs),
(564,659,o),
(666,481,o),
(666,315,cs),
(666,197,o),
(589,107,o),
(475,107,cs)
);
}
);
width = 882;
},
{
associatedMasterId = "A22087AE-1668-478C-9B8B-D37A40788B8E";
layerId = "DA744192-5B2F-4EA4-ACD8-1610B9897369";
name = "Aug 2 18, 11:55";
shapes = (
{
closed = 1;
nodes = (
(653,-29,o),
(832,151,o),
(832,373,cs),
(832,605,o),
(653,775,o),
(431,775,cs),
(209,775,o),
(30,595,o),
(30,373,cs),
(30,141,o),
(209,-29,o),
(431,-29,cs)
);
},
{
closed = 1;
nodes = (
(305,97,o),
(201,283,o),
(201,454,cs),
(201,577,o),
(280,669,o),
(396,669,cs),
(557,669,o),
(661,484,o),
(661,313,cs),
(661,190,o),
(582,97,o),
(466,97,cs)
);
},
{
closed = 1;
nodes = (
(311,297,o),
(413,-146,o),
(706,-146,cs),
(805,-146,o),
(809,-105,o),
(809,-87,cs),
(809,-69,o),
(795,-13,o),
(721,-13,cs),
(523,-13,o),
(431,209,o),
(431,500,cs),
(431,589,o),
(444,630,o),
(488,630,cs),
(577,630,o),
(661,466,o),
(661,313,c),
(785,638,o),
(488,710,o),
(365,710,c)
);
}
);
width = 862;
},
{
associatedMasterId = "A22087AE-1668-478C-9B8B-D37A40788B8E";
layerId = "1728E645-01AA-442B-8314-002BFA2993CF";
name = "Apr 30 19, 15:01";
shapes = (
{
closed = 1;
nodes = (
(653,-29,o),
(832,151,o),
(832,373,cs),
(832,605,o),
(653,775,o),
(431,775,cs),
(209,775,o),
(30,595,o),
(30,373,cs),
(30,141,o),
(209,-29,o),
(431,-29,cs)
);
},
{
closed = 1;
nodes = (
(305,97,o),
(201,283,o),
(201,454,cs),
(201,577,o),
(280,669,o),
(396,669,cs),
(557,669,o),
(661,484,o),
(661,313,cs),
(661,190,o),
(582,97,o),
(466,97,cs)
);
},
{
closed = 1;
nodes = (
(415,660,o),
(331,508,o),
(364,281,cs),
(396,61,o),
(549,-146,o),
(736,-146,cs),
(825,-146,o),
(864,-105,o),
(864,-60,cs),
(864,-32,o),
(850,-13,o),
(801,-13,cs),
(593,-13,o),
(499,161,o),
(472,328,cs),
(449,471,o),
(483,560,o),
(541,560,cs),
(597,560,o),
(661,439,o),
(661,313,c),
(785,638,o),
(568,660,o),
(554,660,cs)
);
}
);
width = 862;
},
{
associatedMasterId = "A22087AE-1668-478C-9B8B-D37A40788B8E";
layerId = "D2990162-1923-4160-BCD3-3BD03F421E02";
name = "Jul 10 19, 17:20";
shapes = (
{
closed = 1;
nodes = (
(738,-13,o),
(685,3,o),
(641,30,c),
(756,101,o),
(832,228,o),
(832,373,cs),
(832,605,o),
(653,775,o),
(431,775,cs),
(209,775,o),
(30,595,o),
(30,373,cs),
(30,141,o),
(209,-29,o),
(431,-29,cs),
(454,-29,o),
(477,-27,o),
(499,-23,c),
(564,-98,o),
(646,-146,o),
(736,-146,cs),
(825,-146,o),
(864,-105,o),
(864,-60,cs),
(864,-32,o),
(850,-13,o),
(801,-13,cs)
);
},
{
closed = 1;
nodes = (
(201,577,o),
(280,669,o),
(396,669,cs),
(429,669,o),
(460,661,o),
(488,647,c),
(390,606,o),
(337,469,o),
(364,281,cs),
(373,219,o),
(392,158,o),
(418,103,c),
(285,135,o),
(201,301,o),
(201,454,cs)
);
},
{
closed = 1;
nodes = (
(509,178,o),
(484,254,o),
(472,328,cs),
(449,471,o),
(483,570,o),
(541,570,cs),
(605,570,o),
(661,454,o),
(661,333,cs),
(661,224,o),
(619,150,o),
(552,117,c)
);
}
);
width = 854;
},
{
associatedMasterId = "A22087AE-1668-478C-9B8B-D37A40788B8E";
layerId = "AE1476E8-DD4B-4742-9D9E-491621800E92";
name = "Jul 10 19, 17:23";
shapes = (
{
closed = 1;
nodes = (
(130,-94,o),
(166,-100,o),
(203,-90,cs),
(245,-79,o),
(311,-98,o),
(381,-122,cs),
(451,-146,o),
(590,-198,o),
(666,-198,cs),
(771,-198,o),
(803,-61,o),
(788,-35,cs),
(780,-21,o),
(739,-23,o),
(683,-25,cs),
(627,-27,o),
(483,-17,o),
(417,10,cs),
(299,58,o),
(212,17,o),
(179,4,cs),
(130,-15,o),
(111,-50,o),
(119,-69,cs)
);
},
{
ref = O;
}
);
width = 882;
}
);
metricLeft = O;
metricRight = O;
unicode = 81;
},
{
color = 4;
glyphname = R;
kernLeft = R;
kernRight = R;
lastChange = "2019-12-04 10:07:11 +0000";
layers = (
{
anchors = (
{
name = bottom;
pos = (476,0);
},
{
name = top;
pos = (436,745);
}
);
layerId = "A22087AE-1668-478C-9B8B-D37A40788B8E";
shapes = (
{
closed = 1;
nodes = (
(786,-1,o),
(862,66,o),
(862,263,cs),
(862,345,o),
(820,387,o),
(753,387,cs),
(668,387,o),
(643,327,o),
(667,277,cs),
(713,183,o),
(741,94,o),
(703,82,cs),
(624,57,o),
(677,335,o),
(450,342,c),
(682,393,o),
(738,503,o),
(738,611,cs),
(738,700,o),
(647,764,o),
(560,764,cs),
(473,764,o),
(409,723,o),
(327,723,cs),
(285,723,o),
(161,750,o),
(131,750,cs),
(94,750,o),
(70,732,o),
(70,702,cs),
(70,669,o),
(96,667,o),
(137,613,cs),
(162,580,o),
(168,505,o),
(168,421,cs),
(168,324,ls),
(168,240,o),
(162,165,o),
(137,132,cs),
(96,78,o),
(60,86,o),
(60,39,cs),
(60,13,o),
(84,-5,o),
(121,-5,cs),
(172,-5,o),
(199,3,o),
(241,3,cs),
(284,3,o),
(321,-5,o),
(361,-5,cs),
(398,-5,o),
(422,13,o),
(422,39,cs),
(422,86,o),
(386,78,o),
(345,132,cs),
(324,161,o),
(316,220,o),
(315,258,cs),
(314,306,o),
(333,316,o),
(377,294,cs),
(502,233,o),
(452,-15,o),
(673,-6,cs)
);
},
{
closed = 1;
nodes = (
(319,400,o),
(314,404,o),
(314,421,cs),
(314,551,o),
(325,624,o),
(459,648,cs),
(527,660,o),
(586,633,o),
(586,578,cs),
(586,477,o),
(460,420,o),
(334,402,cs)
);
}
);
width = 872;
},
{
associatedMasterId = "A22087AE-1668-478C-9B8B-D37A40788B8E";
layerId = "E86768A2-BB9E-4EAE-B3F8-527B43F2EE1A";
name = "Jul 31 18, 11:35";
shapes = (
{
closed = 1;
nodes = (
(294,322,l),
(315,318,o),
(363,302,o),
(396,264,cs),
(474,174,o),
(494,0,o),
(663,0,cs),
(776,0,o),
(852,66,o),
(852,263,cs),
(852,345,o),
(810,387,o),
(743,387,cs),
(668,387,o),
(626,319,o),
(661,249,cs),
(698,175,o),
(742,102,o),
(683,102,cs),
(622,102,o),
(607,295,o),
(460,342,c),
(692,393,o),
(748,503,o),
(748,611,cs),
(748,700,o),
(657,764,o),
(570,764,cs),
(483,764,o),
(429,723,o),
(347,723,cs),
(336,723,o),
(283,688,o),
(271,688,c),
(341,543,l),
(365,608,o),
(413,638,o),
(469,648,cs),
(537,660,o),
(596,633,o),
(596,578,cs),
(596,468,o),
(447,420,o),
(331,388,c)
);
},
{
closed = 1;
nodes = (
(340,165,o),
(334,240,o),
(334,324,cs),
(334,421,ls),
(334,505,o),
(340,580,o),
(365,613,cs),
(406,667,o),
(432,669,o),
(432,702,cs),
(432,732,o),
(395,684,o),
(358,684,cs),
(317,684,o),
(390,723,o),
(347,723,cs),
(305,723,o),
(181,750,o),
(151,750,cs),
(114,750,o),
(90,732,o),
(90,702,cs),
(90,669,o),
(116,667,o),
(157,613,cs),
(182,580,o),
(188,505,o),
(188,421,cs),
(188,324,ls),
(188,240,o),
(182,165,o),
(157,132,cs),
(116,78,o),
(80,86,o),
(80,39,cs),
(80,13,o),
(104,-5,o),
(141,-5,cs),
(192,-5,o),
(219,3,o),
(261,3,cs),
(304,3,o),
(341,-5,o),
(381,-5,cs),
(418,-5,o),
(442,13,o),
(442,39,cs),
(442,86,o),
(406,78,o),
(365,132,cs)
);
}
);
width = 872;
},
{
associatedMasterId = "A22087AE-1668-478C-9B8B-D37A40788B8E";
layerId = "A7BE94E6-856B-4BBA-A1F0-2D6D6DEF901E";
name = "Jul 31 18, 11:39";
shapes = (
{
closed = 1;
nodes = (
(294,322,l),
(536,288,o),
(444,-16,o),
(693,-6,cs),
(806,-1,o),
(882,66,o),
(882,263,cs),
(882,345,o),
(840,387,o),
(773,387,cs),
(688,387,o),
(663,327,o),
(687,277,cs),
(733,183,o),
(751,114,o),
(713,102,cs),
(634,77,o),
(667,315,o),
(470,342,c),
(702,393,o),
(758,503,o),
(758,611,cs),
(758,700,o),
(667,764,o),
(580,764,cs),
(493,764,o),
(429,723,o),
(347,723,cs),
(336,723,o),
(283,688,o),
(271,688,c),
(341,543,l),
(365,608,o),
(423,638,o),
(479,648,cs),
(547,660,o),
(606,633,o),
(606,578,cs),
(606,468,o),
(457,410,o),
(321,398,c)
);
},
{
closed = 1;
nodes = (
(340,165,o),
(334,240,o),
(334,324,cs),
(334,421,ls),
(334,505,o),
(340,580,o),
(365,613,cs),
(406,667,o),
(432,669,o),
(432,702,cs),
(432,732,o),
(395,684,o),
(358,684,cs),
(317,684,o),
(390,723,o),
(347,723,cs),
(305,723,o),
(181,750,o),
(151,750,cs),
(114,750,o),
(90,732,o),
(90,702,cs),
(90,669,o),
(116,667,o),
(157,613,cs),
(182,580,o),
(188,505,o),
(188,421,cs),
(188,324,ls),
(188,240,o),
(182,165,o),
(157,132,cs),
(116,78,o),
(80,86,o),
(80,39,cs),
(80,13,o),
(104,-5,o),
(141,-5,cs),
(192,-5,o),
(219,3,o),
(261,3,cs),
(304,3,o),
(341,-5,o),
(381,-5,cs),
(418,-5,o),
(442,13,o),
(442,39,cs),
(442,86,o),
(406,78,o),
(365,132,cs)
);
}
);
width = 882;
}
);
unicode = 82;
},
{
color = 4;
glyphname = S;
kernLeft = S;
kernRight = S;
lastChange = "2019-10-18 10:04:57 +0000";
layers = (
{
anchors = (
{
name = bottom;
pos = (378,-12);
},
{
name = top;
pos = (396,745);
}
);
layerId = "A22087AE-1668-478C-9B8B-D37A40788B8E";
shapes = (
{
closed = 1;
nodes = (
(552,-14,o),
(745,63,o),
(745,237,cs),
(745,371,o),
(639,445,o),
(457,467,cs),
(271,489,o),
(219,512,o),
(219,557,cs),
(219,613,o),
(289,662,o),
(387,662,cs),
(498,662,o),
(549,619,o),
(581,545,cs),
(605,490,o),
(610,468,o),
(643,469,cs),
(678,470,o),
(688,501,o),
(694,559,cs),
(704,656,o),
(719,695,o),
(659,700,cs),
(574,707,o),
(545,755,o),
(398,755,cs),
(221,755,o),
(62,657,o),
(62,506,cs),
(62,365,o),
(161,312,o),
(390,283,cs),
(550,263,o),
(594,239,o),
(594,191,cs),
(594,143,o),
(545,90,o),
(419,90,cs),
(294,90,o),
(219,148,o),
(183,222,cs),
(151,289,o),
(142,313,o),
(109,314,cs),
(71,315,o),
(40,260,o),
(40,172,cs),
(40,75,o),
(65,59,o),
(113,38,cs),
(165,15,o),
(255,-14,o),
(379,-14,cs)
);
}
);
width = 775;
},
{
associatedMasterId = "A22087AE-1668-478C-9B8B-D37A40788B8E";
layerId = "FC4D0AB0-E60A-400C-AE14-CDB4ECCACC47";
name = "Jul 31 18, 13:09";
shapes = (
{
closed = 1;
nodes = (
(774,695,o),
(759,656,o),
(749,559,cs),
(743,501,o),
(733,470,o),
(698,469,cs),
(665,468,o),
(660,490,o),
(636,545,cs),
(604,619,o),
(563,662,o),
(432,662,cs),
(354,662,o),
(244,603,o),
(244,537,cs),
(244,481,o),
(309,468,o),
(502,458,cs),
(674,449,o),
(780,371,o),
(780,237,cs),
(780,73,o),
(597,-14,o),
(424,-14,cs),
(300,-14,o),
(210,-5,o),
(158,18,cs),
(110,39,o),
(96,76,o),
(85,172,cs),
(75,260,o),
(96,332,o),
(134,334,cs),
(167,336,o),
(168,310,o),
(186,258,cs),
(224,148,o),
(319,90,o),
(464,90,cs),
(590,90,o),
(659,143,o),
(659,191,cs),
(659,239,o),
(615,274,o),
(435,284,cs),
(215,296,o),
(117,375,o),
(117,506,cs),
(117,657,o),
(306,755,o),
(463,755,cs),
(610,755,o),
(629,707,o),
(714,700,cs)
);
}
);
width = 880;
},
{
associatedMasterId = "A22087AE-1668-478C-9B8B-D37A40788B8E";
layerId = "05C0B82F-EA8E-492E-95D4-9E4278C604FE";
name = "Jul 31 18, 13:13";
shapes = (
{
closed = 1;
nodes = (
(739,695,o),
(724,656,o),
(714,559,cs),
(708,501,o),
(698,470,o),
(663,469,cs),
(630,468,o),
(625,490,o),
(601,545,cs),
(569,619,o),
(518,662,o),
(407,662,cs),
(329,662,o),
(219,603,o),
(219,537,cs),
(219,481,o),
(285,487,o),
(477,467,cs),
(659,448,o),
(765,371,o),
(765,237,cs),
(765,63,o),
(572,-14,o),
(399,-14,cs),
(275,-14,o),
(185,15,o),
(133,38,cs),
(85,59,o),
(60,75,o),
(60,172,cs),
(60,260,o),
(91,325,o),
(129,324,cs),
(162,323,o),
(149,292,o),
(173,222,cs),
(199,148,o),
(294,90,o),
(439,90,cs),
(565,90,o),
(634,143,o),
(634,191,cs),
(634,239,o),
(590,263,o),
(410,283,cs),
(181,308,o),
(82,365,o),
(82,506,cs),
(82,657,o),
(281,755,o),
(438,755,cs),
(585,755,o),
(594,707,o),
(679,700,cs)
);
}
);
width = 815;
},
{
associatedMasterId = "A22087AE-1668-478C-9B8B-D37A40788B8E";
layerId = "C43BBB88-2A23-4BD8-A429-4F6A138598F4";
name = "Jul 10 19, 17:33";
shapes = (
{
closed = 1;
nodes = (
(719,695,o),
(704,656,o),
(694,559,cs),
(688,501,o),
(678,470,o),
(643,469,cs),
(610,468,o),
(605,490,o),
(581,545,cs),
(549,619,o),
(498,662,o),
(387,662,cs),
(289,662,o),
(199,603,o),
(199,537,cs),
(199,502,o),
(251,489,o),
(457,467,cs),
(639,448,o),
(745,371,o),
(745,237,cs),
(745,63,o),
(552,-14,o),
(379,-14,cs),
(255,-14,o),
(165,15,o),
(113,38,cs),
(65,59,o),
(40,75,o),
(40,172,cs),
(40,260,o),
(71,325,o),
(109,324,cs),
(142,323,o),
(129,292,o),
(153,222,cs),
(179,148,o),
(274,90,o),
(419,90,cs),
(545,90,o),
(614,143,o),
(614,191,cs),
(614,239,o),
(570,263,o),
(390,283,cs),
(161,308,o),
(62,365,o),
(62,506,cs),
(62,657,o),
(241,755,o),
(418,755,cs),
(565,755,o),
(574,707,o),
(659,700,cs)
);
}
);
width = 775;
}
);
unicode = 83;
},
{
color = 4;
glyphname = T;
kernLeft = T;
kernRight = T;
lastChange = "2019-12-04 10:07:11 +0000";
layers = (
{
anchors = (
{
name = bottom;
pos = (371,0);
},
{
name = center;
pos = (371,373);
},
{
name = top;
pos = (371,745);
}
);
background = {
shapes = (
{
closed = 1;
nodes = (
(781,446,o),
(859,490,o),
(859,611,cs),
(859,700,o),
(768,764,o),
(681,764,cs),
(594,764,o),
(540,713,o),
(458,713,cs),
(376,713,o),
(288,751,o),
(256,751,cs),
(234,751,o),
(215,727,o),
(215,700,cs),
(215,670,o),
(223,653,o),
(242,641,cs),
(271,623,o),
(298,604,o),
(298,465,cs),
(298,286,ls),
(298,190,o),
(283,147,o),
(270,124,cs),
(257,101,o),
(230,86,o),
(230,49,cs),
(230,2,o),
(278,-5,o),
(351,0,cs),
(421,5,o),
(503,-6,o),
(591,-6,cs),
(767,-6,o),
(883,119,o),
(883,231,cs),
(883,350,o),
(804,417,o),
(706,408,c)
);
},
{
closed = 1;
nodes = (
(490,61,o),
(455,106,cs),
(423,147,o),
(413,259,o),
(488,308,cs),
(558,354,o),
(638,364,o),
(681,339,cs),
(744,302,o),
(744,206,o),
(666,128,cs),
(605,67,o)
);
}
);
};
layerId = "A22087AE-1668-478C-9B8B-D37A40788B8E";
shapes = (
{
closed = 1;
nodes = (
(300,-5,o),
(344,0,o),
(369,0,cs),
(409,0,o),
(449,-5,o),
(489,-5,cs),
(533,-5,o),
(550,17,o),
(550,39,cs),
(550,86,o),
(514,78,o),
(473,132,cs),
(448,165,o),
(442,240,o),
(442,324,cs),
(441,548,ls),
(441,607,o),
(469,633,o),
(518,633,cs),
(568,633,o),
(601,619,o),
(636,555,cs),
(664,502,o),
(675,476,o),
(708,479,cs),
(746,482,o),
(747,553,o),
(737,641,cs),
(726,737,o),
(697,769,o),
(644,769,cs),
(591,769,o),
(522,735,o),
(371,735,cs),
(220,735,o),
(151,769,o),
(98,769,cs),
(45,769,o),
(16,737,o),
(5,641,cs),
(-5,553,o),
(-4,482,o),
(34,479,cs),
(67,476,o),
(78,502,o),
(106,555,cs),
(139,617,o),
(172,633,o),
(219,633,cs),
(272,633,o),
(297,605,o),
(297,548,cs),
(296,324,ls),
(296,240,o),
(290,165,o),
(265,132,cs),
(224,78,o),
(188,86,o),
(188,39,cs),
(188,17,o),
(205,-5,o),
(249,-5,cs)
);
}
);
width = 742;
},
{
associatedMasterId = "A22087AE-1668-478C-9B8B-D37A40788B8E";
background = {
shapes = (
{
closed = 1;
nodes = (
(781,446,o),
(859,490,o),
(859,611,cs),
(859,700,o),
(768,764,o),
(681,764,cs),
(594,764,o),
(540,713,o),
(458,713,cs),
(376,713,o),
(288,751,o),
(256,751,cs),
(234,751,o),
(215,727,o),
(215,700,cs),
(215,670,o),
(223,653,o),
(242,641,cs),
(271,623,o),
(298,604,o),
(298,465,cs),
(298,286,ls),
(298,190,o),
(283,147,o),
(270,124,cs),
(257,101,o),
(230,86,o),
(230,49,cs),
(230,2,o),
(278,-5,o),
(351,0,cs),
(421,5,o),
(503,-6,o),
(591,-6,cs),
(767,-6,o),
(883,119,o),
(883,231,cs),
(883,350,o),
(804,417,o),
(706,408,c)
);
},
{
closed = 1;
nodes = (
(490,61,o),
(455,106,cs),
(423,147,o),
(413,259,o),
(488,308,cs),
(558,354,o),
(638,364,o),
(681,339,cs),
(744,302,o),
(744,206,o),
(666,128,cs),
(605,67,o)
);
}
);
};
layerId = "F7BCDA32-E74E-41C3-B3D3-17E4346A95DF";
name = "Jul 31 18, 10:29";
shapes = (
{
closed = 1;
nodes = (
(300,0,o),
(344,0,o),
(369,0,c),
(369,654,l),
(214,632,l),
(278,634,o),
(297,601,o),
(297,548,cs),
(297,363,o),
(296,385,o),
(296,324,cs),
(296,240,o),
(290,165,o),
(265,132,cs),
(224,78,o),
(188,86,o),
(188,39,cs),
(188,17,o),
(205,0,o),
(249,0,cs)
);
},
{
closed = 1;
nodes = (
(533,0,o),
(550,17,o),
(550,39,cs),
(550,86,o),
(514,78,o),
(473,132,cs),
(448,165,o),
(442,240,o),
(442,324,cs),
(442,385,o),
(441,363,o),
(441,548,cs),
(441,601,o),
(460,634,o),
(524,632,c),
(369,654,l),
(369,0,l),
(394,0,o),
(438,0,o),
(489,0,cs)
);
},
{
closed = 1;
nodes = (
(67,476,o),
(78,502,o),
(106,555,cs),
(143,624,o),
(179,633,o),
(235,633,c),
(371,633,l),
(371,735,l),
(220,735,o),
(151,769,o),
(98,769,cs),
(45,769,o),
(16,737,o),
(5,641,cs),
(-5,553,o),
(-4,482,o),
(34,479,cs)
);
},
{
closed = 1;
nodes = (
(746,482,o),
(747,553,o),
(737,641,cs),
(726,737,o),
(697,769,o),
(644,769,cs),
(591,769,o),
(522,735,o),
(371,735,c),
(371,633,l),
(507,633,l),
(563,633,o),
(599,624,o),
(636,555,cs),
(664,502,o),
(675,476,o),
(708,479,cs)
);
}
);
width = 742;
}
);
unicode = 84;
},
{
glyphname = Tbar;
kernLeft = T;
kernRight = T;
lastChange = "2019-12-04 10:07:11 +0000";
layers = (
{
layerId = "A22087AE-1668-478C-9B8B-D37A40788B8E";
shapes = (
{
closed = 1;
nodes = (
(251,305,o),
(293,309,o),
(368,310,cs),
(444,311,o),
(488,304,o),
(554,306,cs),
(586,307,o),
(605,326,o),
(606,357,cs),
(607,386,o),
(585,404,o),
(553,404,cs),
(488,404,o),
(443,398,o),
(367,397,cs),
(292,396,o),
(250,401,o),
(185,401,cs),
(153,401,o),
(133,380,o),
(134,352,cs),
(135,322,o),
(153,302,o),
(187,303,cs)
);
},
{
ref = T;
}
);
width = 742;
}
);
unicode = 358;
},
{
color = 4;
glyphname = U;
kernLeft = U;
kernRight = U;
lastChange = "2019-10-18 10:09:31 +0000";
layers = (
{
anchors = (
{
name = bottom;
pos = (462,0);
},
{
name = ogonek;
pos = (848,10);
},
{
name = top;
pos = (462,745);
},
{
name = topright;
pos = (924,745);
}
);
layerId = "A22087AE-1668-478C-9B8B-D37A40788B8E";
shapes = (
{
closed = 1;
nodes = (
(718,-10,o),
(816,128,o),
(796,324,cs),
(779,484,o),
(777,561,o),
(817,613,cs),
(858,667,o),
(884,669,o),
(884,702,cs),
(884,732,o),
(860,750,o),
(823,750,cs),
(782,750,o),
(756,742,o),
(713,742,cs),
(671,742,o),
(633,750,o),
(603,750,cs),
(566,750,o),
(542,732,o),
(542,702,cs),
(542,669,o),
(568,667,o),
(609,613,cs),
(635,579,o),
(640,519,o),
(640,354,cs),
(640,176,o),
(591,94,o),
(463,94,cs),
(333,94,o),
(284,176,o),
(284,354,cs),
(284,515,o),
(288,578,o),
(315,613,cs),
(356,667,o),
(382,669,o),
(382,702,cs),
(382,732,o),
(358,750,o),
(321,750,cs),
(280,750,o),
(254,742,o),
(211,742,cs),
(169,742,o),
(131,750,o),
(101,750,cs),
(64,750,o),
(40,732,o),
(40,702,cs),
(40,669,o),
(66,667,o),
(107,613,cs),
(146,562,o),
(145,487,o),
(128,324,cs),
(108,128,o),
(208,-10,o),
(463,-10,cs)
);
}
);
width = 924;
}
);
unicode = 85;
},
{
glyphname = Uogonek;
kernLeft = U;
kernRight = U;
lastChange = "2019-12-04 10:07:11 +0000";
layers = (
{
layerId = "A22087AE-1668-478C-9B8B-D37A40788B8E";
shapes = (
{
closed = 1;
nodes = (
(500,-222,o),
(561,-174,o),
(583,-149,cs),
(590,-141,o),
(596,-133,o),
(593,-129,cs),
(589,-123,o),
(580,-123,o),
(567,-126,cs),
(542,-132,o),
(519,-134,o),
(500,-130,cs),
(470,-124,o),
(454,-101,o),
(460,-76,cs),
(468,-43,o),
(514,-11,o),
(556,-3,c),
(486,17,l),
(422,-9,o),
(372,-41,o),
(359,-99,cs),
(349,-144,o),
(375,-195,o),
(431,-207,cs)
);
},
{
ref = U;
}
);
width = 924;
}
);
unicode = 370;
},
{
color = 4;
glyphname = V;
kernLeft = V;
kernRight = V;
lastChange = "2019-12-04 10:07:11 +0000";
layers = (
{
layerId = "A22087AE-1668-478C-9B8B-D37A40788B8E";
shapes = (
{
closed = 1;
nodes = (
(483,-30,o),
(499,-10,o),
(529,47,c),
(660,324,ls),
(722,462,o),
(774,561,o),
(817,613,cs),
(860,665,o),
(894,669,o),
(894,702,cs),
(894,732,o),
(870,750,o),
(833,750,cs),
(792,750,o),
(766,742,o),
(723,742,cs),
(681,742,o),
(633,750,o),
(603,750,cs),
(566,750,o),
(542,732,o),
(542,702,cs),
(542,669,o),
(578,667,o),
(619,613,cs),
(645,579,o),
(616,498,o),
(552,354,cs),
(485,204,ls),
(479,190,o),
(474,190,o),
(467,203,cs),
(384,369,ls),
(317,502,o),
(282,576,o),
(305,613,cs),
(333,657,o),
(372,669,o),
(372,702,cs),
(372,732,o),
(348,750,o),
(311,750,cs),
(270,750,o),
(214,742,o),
(171,742,cs),
(129,742,o),
(91,750,o),
(61,750,cs),
(24,750,o),
(0,732,o),
(0,702,cs),
(0,669,o),
(26,667,o),
(67,613,cs),
(106,562,o),
(166,460,o),
(232,324,cs),
(370,40,ls),
(399,-19,o),
(418,-30,o),
(454,-30,cs)
);
}
);
width = 894;
},
{
associatedMasterId = "A22087AE-1668-478C-9B8B-D37A40788B8E";
layerId = "F8A65CBF-9045-463B-AF47-F1832A14264C";
name = "Oct 8 19, 11:55";
shapes = (
{
closed = 1;
nodes = (
(483,-30,o),
(499,-10,o),
(529,47,cs),
(660,324,ls),
(722,462,o),
(774,561,o),
(817,613,cs),
(860,665,o),
(894,669,o),
(894,702,cs),
(894,732,o),
(870,750,o),
(833,750,cs),
(792,750,o),
(766,742,o),
(723,742,cs),
(681,742,o),
(633,750,o),
(603,750,cs),
(566,750,o),
(542,732,o),
(542,702,cs),
(542,669,o),
(578,667,o),
(619,613,cs),
(645,579,o),
(617,498,o),
(552,354,cs),
(446,119,l),
(489,158,l),
(384,369,ls),
(318,502,o),
(282,576,o),
(305,613,cs),
(333,657,o),
(372,669,o),
(372,702,cs),
(372,732,o),
(348,750,o),
(311,750,cs),
(270,750,o),
(214,742,o),
(171,742,cs),
(129,742,o),
(91,750,o),
(61,750,cs),
(24,750,o),
(0,732,o),
(0,702,cs),
(0,669,o),
(26,667,o),
(67,613,cs),
(106,562,o),
(166,460,o),
(232,324,cs),
(370,40,ls),
(399,-19,o),
(418,-30,o),
(454,-30,cs)
);
}
);
width = 894;
}
);
unicode = 86;
},
{
color = 4;
glyphname = W;
kernLeft = W;
kernRight = W;
lastChange = "2019-12-04 10:07:11 +0000";
layers = (
{
anchors = (
{
name = bottom;
pos = (591,0);
},
{
name = top;
pos = (621,745);
}
);
background = {
shapes = (
{
closed = 1;
nodes = (
(393,-30,o),
(411,-11,o),
(439,47,cs),
(570,324,ls),
(635,461,o),
(684,561,o),
(727,613,cs),
(770,665,o),
(804,669,o),
(804,702,cs),
(804,732,o),
(780,750,o),
(743,750,cs),
(702,750,o),
(676,742,o),
(633,742,cs),
(591,742,o),
(543,750,o),
(513,750,cs),
(476,750,o),
(452,732,o),
(452,702,cs),
(452,669,o),
(488,667,o),
(529,613,cs),
(555,579,o),
(527,498,o),
(462,354,cs),
(356,119,l),
(399,158,l),
(294,369,ls),
(228,502,o),
(192,576,o),
(215,613,cs),
(243,657,o),
(282,669,o),
(282,702,cs),
(282,732,o),
(258,750,o),
(221,750,cs),
(180,750,o),
(124,742,o),
(81,742,cs),
(39,742,o),
(1,750,o),
(-29,750,cs),
(-66,750,o),
(-90,732,o),
(-90,702,cs),
(-90,669,o),
(-64,667,o),
(-23,613,cs),
(16,562,o),
(76,460,o),
(142,324,cs),
(280,40,ls),
(309,-19,o),
(328,-30,o),
(364,-30,cs)
);
},
{
closed = 1;
nodes = (
(606,575,o),
(633,498,o),
(658,416,cs),
(763,66,ls),
(782,2,o),
(808,-31,o),
(843,-30,cs),
(880,-29,o),
(898,-1,o),
(922,65,cs),
(1084,508,l),
(1212,196,ls),
(1277,38,o),
(1242,-2,o),
(1359,-2,cs),
(1414,-2,o),
(1425,212,o),
(1444,274,cs),
(1487,416,ls),
(1511,497,o),
(1543,575,o),
(1568,608,cs),
(1609,662,o),
(1645,654,o),
(1645,701,cs),
(1645,727,o),
(1621,745,o),
(1584,745,cs),
(1533,745,o),
(1511,737,o),
(1489,737,cs),
(1466,737,o),
(1434,745,o),
(1394,745,cs),
(1357,745,o),
(1333,727,o),
(1333,701,cs),
(1333,654,o),
(1369,662,o),
(1410,608,cs),
(1435,575,o),
(1414,497,o),
(1390,416,cs),
(1341,248,l),
(1147,707,ls),
(1137,730,o),
(1127,751,o),
(1107,751,cs),
(1087,751,o),
(1076,733,o),
(1066,707,cs),
(894,278,ls),
(885,256,o),
(878,236,o),
(866,236,cs),
(855,236,o),
(850,255,o),
(841,290,cs),
(810,416,ls),
(790,499,o),
(764,575,o),
(789,608,cs),
(830,662,o),
(866,654,o),
(866,701,cs),
(866,727,o),
(842,745,o),
(805,745,cs),
(754,745,o),
(727,737,o),
(685,737,cs),
(642,737,o),
(605,745,o),
(565,745,cs),
(528,745,o),
(504,727,o),
(504,701,cs),
(504,654,o),
(540,662,o),
(581,608,cs)
);
}
);
};
layerId = "A22087AE-1668-478C-9B8B-D37A40788B8E";
shapes = (
{
closed = 1;
nodes = (
(396,-28,o),
(413,-1,o),
(438,65,cs),
(590,462,ls),
(598,483,o),
(605,484,o),
(613,462,cs),
(762,66,ls),
(783,10,o),
(797,-30,o),
(841,-30,cs),
(884,-30,o),
(892,9,o),
(910,66,cs),
(1023,416,ls),
(1047,490,o),
(1079,575,o),
(1104,608,cs),
(1145,662,o),
(1181,654,o),
(1181,701,cs),
(1181,727,o),
(1157,745,o),
(1120,745,cs),
(1069,745,o),
(1047,737,o),
(1025,737,cs),
(1002,737,o),
(970,745,o),
(930,745,cs),
(893,745,o),
(869,727,o),
(869,701,cs),
(869,654,o),
(905,662,o),
(946,608,cs),
(971,575,o),
(955,496,o),
(926,416,cs),
(872,265,ls),
(864,243,o),
(857,243,o),
(849,265,cs),
(685,715,ls),
(670,755,o),
(651,764,o),
(614,753,cs),
(552,734,ls),
(524,726,o),
(522,698,o),
(537,669,cs),
(552,640,o),
(549,617,o),
(540,595,cs),
(410,278,ls),
(401,256,o),
(394,236,o),
(382,236,cs),
(371,236,o),
(366,256,o),
(355,290,cs),
(314,416,ls),
(288,497,o),
(260,575,o),
(285,608,cs),
(316,649,o),
(362,654,o),
(362,701,cs),
(362,727,o),
(338,745,o),
(301,745,cs),
(250,745,o),
(223,737,o),
(181,737,cs),
(138,737,o),
(101,745,o),
(61,745,cs),
(24,745,o),
(0,727,o),
(0,701,cs),
(0,654,o),
(36,662,o),
(77,608,cs),
(102,575,o),
(125,496,o),
(154,416,cs),
(279,66,ls),
(301,3,o),
(324,-31,o),
(359,-30,cs)
);
}
);
width = 1181;
},
{
associatedMasterId = "A22087AE-1668-478C-9B8B-D37A40788B8E";
layerId = "35390223-5551-45A4-9880-22D15E9CC0D7";
name = "Aug 7 18, 11:11";
shapes = (
{
closed = 1;
nodes = (
(453,-30,o),
(471,-11,o),
(499,47,cs),
(630,324,l),
(522,354,l),
(416,119,l),
(459,158,l),
(372,369,ls),
(316,506,o),
(282,576,o),
(305,613,cs),
(333,657,o),
(372,669,o),
(372,702,cs),
(372,732,o),
(348,750,o),
(311,750,cs),
(270,750,o),
(214,742,o),
(171,742,cs),
(129,742,o),
(91,750,o),
(61,750,cs),
(24,750,o),
(0,732,o),
(0,702,cs),
(0,669,o),
(26,667,o),
(67,613,cs),
(106,562,o),
(161,464,o),
(220,324,cs),
(340,40,ls),
(366,-21,o),
(388,-30,o),
(424,-30,cs)
);
},
{
closed = 1;
nodes = (
(940,-30,o),
(958,-11,o),
(986,47,cs),
(1117,324,ls),
(1182,461,o),
(1231,561,o),
(1274,613,cs),
(1317,665,o),
(1351,669,o),
(1351,702,cs),
(1351,732,o),
(1327,750,o),
(1290,750,cs),
(1249,750,o),
(1223,742,o),
(1180,742,cs),
(1138,742,o),
(1090,750,o),
(1060,750,cs),
(1023,750,o),
(999,732,o),
(999,702,cs),
(999,669,o),
(1035,667,o),
(1076,613,cs),
(1102,579,o),
(1074,498,o),
(1009,354,cs),
(903,119,l),
(946,158,l),
(841,369,l),
(689,324,l),
(827,40,ls),
(856,-19,o),
(875,-30,o),
(911,-30,cs)
);
}
);
width = 1200;
},
{
anchors = (
{
name = bottom;
pos = (591,0);
},
{
name = top;
pos = (621,745);
}
);
associatedMasterId = "A22087AE-1668-478C-9B8B-D37A40788B8E";
background = {
shapes = (
{
closed = 1;
nodes = (
(393,-30,o),
(411,-11,o),
(439,47,cs),
(570,324,ls),
(635,461,o),
(684,561,o),
(727,613,cs),
(770,665,o),
(804,669,o),
(804,702,cs),
(804,732,o),
(780,750,o),
(743,750,cs),
(702,750,o),
(676,742,o),
(633,742,cs),
(591,742,o),
(543,750,o),
(513,750,cs),
(476,750,o),
(452,732,o),
(452,702,cs),
(452,669,o),
(488,667,o),
(529,613,cs),
(555,579,o),
(527,498,o),
(462,354,cs),
(356,119,l),
(399,158,l),
(294,369,ls),
(228,502,o),
(192,576,o),
(215,613,cs),
(243,657,o),
(282,669,o),
(282,702,cs),
(282,732,o),
(258,750,o),
(221,750,cs),
(180,750,o),
(124,742,o),
(81,742,cs),
(39,742,o),
(1,750,o),
(-29,750,cs),
(-66,750,o),
(-90,732,o),
(-90,702,cs),
(-90,669,o),
(-64,667,o),
(-23,613,cs),
(16,562,o),
(76,460,o),
(142,324,cs),
(280,40,ls),
(309,-19,o),
(328,-30,o),
(364,-30,cs)
);
},
{
closed = 1;
nodes = (
(606,575,o),
(633,498,o),
(658,416,cs),
(763,66,ls),
(782,2,o),
(808,-31,o),
(843,-30,cs),
(880,-29,o),
(898,-1,o),
(922,65,cs),
(1084,508,l),
(1212,196,ls),
(1277,38,o),
(1242,-2,o),
(1359,-2,cs),
(1414,-2,o),
(1425,212,o),
(1444,274,cs),
(1487,416,ls),
(1511,497,o),
(1543,575,o),
(1568,608,cs),
(1609,662,o),
(1645,654,o),
(1645,701,cs),
(1645,727,o),
(1621,745,o),
(1584,745,cs),
(1533,745,o),
(1511,737,o),
(1489,737,cs),
(1466,737,o),
(1434,745,o),
(1394,745,cs),
(1357,745,o),
(1333,727,o),
(1333,701,cs),
(1333,654,o),
(1369,662,o),
(1410,608,cs),
(1435,575,o),
(1414,497,o),
(1390,416,cs),
(1341,248,l),
(1147,707,ls),
(1137,730,o),
(1127,751,o),
(1107,751,cs),
(1087,751,o),
(1076,733,o),
(1066,707,cs),
(894,278,ls),
(885,256,o),
(878,236,o),
(866,236,cs),
(855,236,o),
(850,255,o),
(841,290,cs),
(810,416,ls),
(790,499,o),
(764,575,o),
(789,608,cs),
(830,662,o),
(866,654,o),
(866,701,cs),
(866,727,o),
(842,745,o),
(805,745,cs),
(754,745,o),
(727,737,o),
(685,737,cs),
(642,737,o),
(605,745,o),
(565,745,cs),
(528,745,o),
(504,727,o),
(504,701,cs),
(504,654,o),
(540,662,o),
(581,608,cs)
);
}
);
};
layerId = "6D81821F-1860-4CFC-ACA1-076E1FA44C17";
name = "Oct 8 19, 11:56";
shapes = (
{
closed = 1;
nodes = (
(102,575,o),
(125,496,o),
(154,416,cs),
(279,66,ls),
(301,3,o),
(324,-31,o),
(359,-30,cs),
(396,-28,o),
(413,-1,o),
(438,65,cs),
(600,490,l),
(762,66,ls),
(783,10,o),
(797,-30,o),
(841,-30,cs),
(884,-30,o),
(892,9,o),
(910,66,cs),
(1023,416,ls),
(1047,490,o),
(1079,575,o),
(1104,608,cs),
(1145,662,o),
(1181,654,o),
(1181,701,cs),
(1181,727,o),
(1157,745,o),
(1120,745,cs),
(1069,745,o),
(1047,737,o),
(1025,737,cs),
(1002,737,o),
(970,745,o),
(930,745,cs),
(893,745,o),
(869,727,o),
(869,701,cs),
(869,654,o),
(905,662,o),
(946,608,cs),
(971,575,o),
(955,496,o),
(926,416,cs),
(839,175,l),
(882,175,l),
(685,715,ls),
(670,755,o),
(651,764,o),
(614,753,cs),
(552,734,ls),
(524,726,o),
(522,698,o),
(537,669,cs),
(552,640,o),
(549,617,o),
(540,595,cs),
(410,278,ls),
(401,256,o),
(394,236,o),
(382,236,cs),
(371,236,o),
(366,256,o),
(355,290,cs),
(314,416,ls),
(288,497,o),
(260,575,o),
(285,608,cs),
(316,649,o),
(362,654,o),
(362,701,cs),
(362,727,o),
(338,745,o),
(301,745,cs),
(250,745,o),
(223,737,o),
(181,737,cs),
(138,737,o),
(101,745,o),
(61,745,cs),
(24,745,o),
(0,727,o),
(0,701,cs),
(0,654,o),
(36,662,o),
(77,608,cs)
);
}
);
width = 1181;
}
);
unicode = 87;
},
{
color = 4;
glyphname = X;
kernLeft = X;
kernRight = X;
lastChange = "2019-12-04 10:07:11 +0000";
layers = (
{
layerId = "A22087AE-1668-478C-9B8B-D37A40788B8E";
shapes = (
{
closed = 1;
nodes = (
(797,-15,o),
(831,23,o),
(831,49,cs),
(831,86,o),
(799,85,o),
(733,137,cs),
(681,178,o),
(606,249,o),
(520,349,cs),
(496,377,o),
(496,388,o),
(518,411,cs),
(587,483,o),
(690,580,o),
(724,613,cs),
(773,660,o),
(811,669,o),
(811,702,cs),
(811,732,o),
(787,750,o),
(750,750,cs),
(720,750,o),
(702,742,o),
(660,742,cs),
(617,742,o),
(611,750,o),
(570,750,cs),
(533,750,o),
(509,732,o),
(509,702,cs),
(509,659,o),
(548,675,o),
(559,629,cs),
(567,596,o),
(506,528,o),
(450,471,cs),
(438,458,o),
(428,458,o),
(416,472,cs),
(369,529,o),
(314,597,o),
(322,629,cs),
(331,666,o),
(362,659,o),
(362,702,cs),
(362,732,o),
(338,750,o),
(301,750,cs),
(260,750,o),
(234,742,o),
(191,742,cs),
(149,742,o),
(101,750,o),
(71,750,cs),
(34,750,o),
(10,732,o),
(10,702,cs),
(10,669,o),
(48,660,o),
(97,613,cs),
(131,580,o),
(237,466,o),
(304,386,cs),
(325,362,o),
(332,348,o),
(300,314,cs),
(250,262,o),
(153,163,o),
(117,133,cs),
(71,95,o),
(30,86,o),
(30,39,cs),
(30,13,o),
(54,-5,o),
(91,-5,cs),
(131,-5,o),
(148,3,o),
(191,3,cs),
(233,3,o),
(250,-5,o),
(301,-5,cs),
(338,-5,o),
(362,13,o),
(362,39,cs),
(362,86,o),
(306,78,o),
(288,123,cs),
(275,157,o),
(322,210,o),
(373,261,cs),
(388,276,o),
(397,276,o),
(409,261,cs),
(452,208,o),
(494,151,o),
(523,113,cs),
(578,41,o),
(637,-15,o),
(730,-15,cs)
);
}
);
width = 841;
},
{
associatedMasterId = "A22087AE-1668-478C-9B8B-D37A40788B8E";
layerId = "044E1771-3302-45B5-90B3-D7BD8B7062D5";
name = "Aug 2 18, 12:35";
shapes = (
{
closed = 1;
nodes = (
(693,162,o),
(603,259,o),
(548,324,cs),
(466,421,ls),
(411,486,o),
(307,580,o),
(329,629,cs),
(350,675,o),
(389,659,o),
(389,702,cs),
(389,732,o),
(365,750,o),
(328,750,cs),
(287,750,o),
(241,742,o),
(198,742,cs),
(156,742,o),
(108,750,o),
(78,750,cs),
(41,750,o),
(17,732,o),
(17,702,cs),
(17,669,o),
(55,660,o),
(104,613,cs),
(138,580,o),
(225,486,o),
(280,421,cs),
(362,324,ls),
(417,259,o),
(509,171,o),
(490,123,cs),
(472,78,o),
(416,86,o),
(416,39,cs),
(416,13,o),
(440,-5,o),
(477,-5,cs),
(528,-5,o),
(575,3,o),
(617,3,cs),
(660,3,o),
(707,-5,o),
(747,-5,cs),
(784,-5,o),
(808,13,o),
(808,39,cs),
(808,86,o),
(762,88,o),
(721,132,cs)
);
}
);
width = 800;
},
{
associatedMasterId = "A22087AE-1668-478C-9B8B-D37A40788B8E";
layerId = "C189237B-A8E3-4939-A328-8A5995EDFE9D";
name = "Aug 2 18, 12:40";
shapes = (
{
closed = 1;
nodes = (
(528,-5,o),
(575,3,o),
(617,3,cs),
(660,3,o),
(707,-5,o),
(747,-5,cs),
(784,-5,o),
(808,13,o),
(808,39,cs),
(808,86,o),
(762,88,o),
(721,132,cs),
(693,162,o),
(603,259,o),
(548,324,cs),
(466,421,ls),
(411,486,o),
(310,588,o),
(329,629,cs),
(350,675,o),
(389,659,o),
(389,702,cs),
(389,732,o),
(365,750,o),
(328,750,cs),
(287,750,o),
(241,742,o),
(198,742,cs),
(156,742,o),
(108,750,o),
(78,750,cs),
(41,750,o),
(17,732,o),
(17,702,cs),
(17,669,o),
(55,660,o),
(104,613,cs),
(138,580,o),
(225,486,o),
(280,421,cs),
(362,324,ls),
(417,259,o),
(509,171,o),
(490,123,cs),
(472,78,o),
(416,86,o),
(416,39,cs),
(416,13,o),
(440,-5,o),
(477,-5,cs)
);
},
{
closed = 1;
nodes = (
(636,392,o),
(792,485,o),
(792,624,cs),
(792,713,o),
(731,754,o),
(650,754,cs),
(539,754,o),
(464,663,o),
(433,611,cs),
(416,582,o),
(407,556,o),
(419,544,cs),
(433,530,o),
(439,542,o),
(459,556,cs),
(506,589,o),
(553,609,o),
(585,609,cs),
(617,609,o),
(630,594,o),
(630,561,cs),
(630,498,o),
(565,428,o),
(432,394,c),
(465,346,l)
);
},
{
closed = 1;
nodes = (
(193,344,o),
(37,251,o),
(37,112,cs),
(37,23,o),
(98,-18,o),
(179,-18,cs),
(290,-18,o),
(365,73,o),
(396,125,cs),
(413,154,o),
(422,180,o),
(410,192,cs),
(396,206,o),
(389,194,o),
(370,180,cs),
(323,145,o),
(276,127,o),
(244,127,cs),
(212,127,o),
(199,142,o),
(199,175,cs),
(199,238,o),
(264,308,o),
(407,342,c),
(374,390,l)
);
}
);
width = 800;
},
{
associatedMasterId = "A22087AE-1668-478C-9B8B-D37A40788B8E";
layerId = "D4F55821-5FAB-43CE-9B5E-10F275AC50B0";
name = "Aug 2 18, 12:41";
shapes = (
{
closed = 1;
nodes = (
(558,-5,o),
(605,3,o),
(647,3,cs),
(690,3,o),
(737,-5,o),
(777,-5,cs),
(814,-5,o),
(838,13,o),
(838,39,cs),
(838,86,o),
(792,88,o),
(751,132,cs),
(723,162,o),
(617,262,o),
(558,324,cs),
(466,421,ls),
(407,483,o),
(290,588,o),
(309,629,cs),
(330,675,o),
(369,659,o),
(369,702,cs),
(369,732,o),
(345,750,o),
(308,750,cs),
(267,750,o),
(221,742,o),
(178,742,cs),
(136,742,o),
(88,750,o),
(58,750,cs),
(21,750,o),
(-3,732,o),
(-3,702,cs),
(-3,669,o),
(35,660,o),
(84,613,cs),
(118,580,o),
(221,483,o),
(280,421,cs),
(372,324,ls),
(431,262,o),
(539,171,o),
(520,123,cs),
(502,78,o),
(446,86,o),
(446,39,cs),
(446,13,o),
(470,-5,o),
(507,-5,cs)
);
},
{
closed = 1;
nodes = (
(325,-5,o),
(349,13,o),
(349,39,cs),
(349,86,o),
(293,78,o),
(275,123,cs),
(256,171,o),
(363,262,o),
(422,324,cs),
(515,421,ls),
(574,483,o),
(677,580,o),
(711,613,cs),
(760,660,o),
(798,669,o),
(798,702,cs),
(798,732,o),
(774,750,o),
(737,750,cs),
(707,750,o),
(689,742,o),
(647,742,cs),
(604,742,o),
(588,750,o),
(547,750,cs),
(510,750,o),
(486,732,o),
(486,702,cs),
(486,659,o),
(525,675,o),
(546,629,cs),
(565,588,o),
(448,483,o),
(389,421,cs),
(296,324,ls),
(237,262,o),
(132,162,o),
(104,132,cs),
(63,88,o),
(17,86,o),
(17,39,cs),
(17,13,o),
(41,-5,o),
(78,-5,cs),
(118,-5,o),
(135,3,o),
(178,3,cs),
(220,3,o),
(237,-5,o),
(288,-5,cs)
);
}
);
width = 800;
},
{
associatedMasterId = "A22087AE-1668-478C-9B8B-D37A40788B8E";
layerId = "F7E7FC90-B8D5-441F-A17F-2F274D44D779";
name = "Oct 8 19, 11:58";
shapes = (
{
closed = 1;
nodes = (
(578,41,o),
(637,-15,o),
(730,-15,cs),
(797,-15,o),
(831,23,o),
(831,49,cs),
(831,86,o),
(799,85,o),
(733,137,cs),
(681,178,o),
(606,249,o),
(551,314,cs),
(469,411,ls),
(414,476,o),
(311,585,o),
(322,629,cs),
(331,666,o),
(362,659,o),
(362,702,cs),
(362,732,o),
(338,750,o),
(301,750,cs),
(260,750,o),
(234,742,o),
(191,742,cs),
(149,742,o),
(101,750,o),
(71,750,cs),
(34,750,o),
(10,732,o),
(10,702,cs),
(10,669,o),
(48,660,o),
(97,613,cs),
(131,580,o),
(237,466,o),
(292,401,cs),
(374,304,ls),
(429,239,o),
(486,161,o),
(523,113,cs)
);
},
{
closed = 1;
nodes = (
(338,-5,o),
(362,13,o),
(362,39,cs),
(362,86,o),
(306,78,o),
(288,123,cs),
(269,171,o),
(376,262,o),
(435,324,cs),
(528,421,ls),
(587,483,o),
(690,580,o),
(724,613,cs),
(773,660,o),
(811,669,o),
(811,702,cs),
(811,732,o),
(787,750,o),
(750,750,cs),
(720,750,o),
(702,742,o),
(660,742,cs),
(617,742,o),
(611,750,o),
(570,750,cs),
(533,750,o),
(509,732,o),
(509,702,cs),
(509,659,o),
(548,675,o),
(559,629,cs),
(570,585,o),
(461,483,o),
(402,421,cs),
(309,324,ls),
(250,262,o),
(153,163,o),
(117,133,cs),
(71,95,o),
(30,86,o),
(30,39,cs),
(30,13,o),
(54,-5,o),
(91,-5,cs),
(131,-5,o),
(148,3,o),
(191,3,cs),
(233,3,o),
(250,-5,o),
(301,-5,cs)
);
}
);
width = 841;
}
);
unicode = 88;
},
{
color = 4;
glyphname = Y;
kernLeft = Y;
kernRight = Y;
lastChange = "2019-12-04 10:07:11 +0000";
layers = (
{
anchors = (
{
name = bottom;
pos = (359,0);
},
{
name = top;
pos = (389,745);
},
{
name = topleft;
pos = (-5,745);
}
);
background = {
shapes = (
{
closed = 1;
nodes = (
(432,165,o),
(426,240,o),
(426,324,cs),
(426,421,ls),
(426,505,o),
(432,580,o),
(457,613,cs),
(498,667,o),
(524,669,o),
(524,702,cs),
(524,732,o),
(500,750,o),
(463,750,cs),
(422,750,o),
(396,742,o),
(353,742,cs),
(311,742,o),
(273,750,o),
(243,750,cs),
(206,750,o),
(182,732,o),
(182,702,cs),
(182,669,o),
(208,667,o),
(249,613,cs),
(274,580,o),
(280,505,o),
(280,421,cs),
(280,324,ls),
(280,240,o),
(274,165,o),
(249,132,cs),
(208,78,o),
(172,86,o),
(172,39,cs),
(172,13,o),
(196,-5,o),
(233,-5,cs),
(284,-5,o),
(311,3,o),
(353,3,cs),
(396,3,o),
(433,-5,o),
(473,-5,cs),
(510,-5,o),
(534,13,o),
(534,39,cs),
(534,86,o),
(498,78,o),
(457,132,cs)
);
}
);
};
layerId = "A22087AE-1668-478C-9B8B-D37A40788B8E";
shapes = (
{
closed = 1;
nodes = (
(286,-5,o),
(339,3,o),
(373,3,cs),
(408,3,o),
(464,-5,o),
(493,-5,cs),
(530,-5,o),
(554,13,o),
(554,39,cs),
(554,86,o),
(518,78,o),
(477,132,cs),
(444,176,o),
(426,264,o),
(464,306,cs),
(651,509,o),
(733,615,o),
(738,678,cs),
(742,732,o),
(703,761,o),
(657,762,cs),
(621,763,o),
(591,751,o),
(567,708,cs),
(533,647,o),
(518,535,o),
(419,403,cs),
(408,389,o),
(401,390,o),
(395,405,cs),
(286,667,o),
(194,761,o),
(122,761,cs),
(55,761,o),
(21,736,o),
(3,716,cs),
(-16,695,o),
(-28,668,o),
(-14,640,cs),
(19,574,o),
(114,598,o),
(197,451,cs),
(250,357,o),
(299,268,o),
(299,214,cs),
(299,165,o),
(294,165,o),
(269,132,cs),
(228,78,o),
(192,86,o),
(192,39,cs),
(192,13,o),
(216,-5,o),
(253,-5,cs)
);
}
);
width = 728;
},
{
associatedMasterId = "A22087AE-1668-478C-9B8B-D37A40788B8E";
background = {
shapes = (
{
closed = 1;
nodes = (
(472,165,o),
(466,240,o),
(466,324,cs),
(466,421,ls),
(466,505,o),
(472,580,o),
(497,613,cs),
(538,667,o),
(564,669,o),
(564,702,cs),
(564,732,o),
(540,750,o),
(503,750,cs),
(462,750,o),
(436,742,o),
(393,742,cs),
(351,742,o),
(313,750,o),
(283,750,cs),
(246,750,o),
(222,732,o),
(222,702,cs),
(222,669,o),
(248,667,o),
(289,613,cs),
(314,580,o),
(320,505,o),
(320,421,cs),
(320,324,ls),
(320,240,o),
(314,165,o),
(289,132,cs),
(248,78,o),
(212,86,o),
(212,39,cs),
(212,13,o),
(236,-5,o),
(273,-5,cs),
(324,-5,o),
(351,3,o),
(393,3,cs),
(436,3,o),
(473,-5,o),
(513,-5,cs),
(550,-5,o),
(574,13,o),
(574,39,cs),
(574,86,o),
(538,78,o),
(497,132,cs)
);
}
);
};
layerId = "E6A3603F-9E23-4653-9BE4-A6B99B956D39";
name = "Aug 7 18, 11:48";
shapes = (
{
closed = 1;
nodes = (
(32,668,o),
(44,695,o),
(63,716,cs),
(81,736,o),
(115,761,o),
(182,761,cs),
(260,761,o),
(343,650,o),
(466,325,c),
(371,287,l),
(453,399,ls),
(584,578,o),
(573,647,o),
(597,708,cs),
(615,754,o),
(661,763,o),
(697,762,cs),
(743,761,o),
(772,732,o),
(768,678,cs),
(763,613,o),
(638,500,o),
(476,274,c),
(486,190,o),
(492,165,o),
(517,132,cs),
(558,78,o),
(594,86,o),
(594,39,cs),
(594,13,o),
(570,-5,o),
(533,-5,cs),
(504,-5,o),
(448,3,o),
(413,3,cs),
(379,3,o),
(326,-5,o),
(293,-5,cs),
(256,-5,o),
(232,13,o),
(232,39,cs),
(232,86,o),
(268,78,o),
(309,132,cs),
(334,165,o),
(339,165,o),
(339,214,cs),
(339,268,o),
(300,357,o),
(247,451,cs),
(217,505,o),
(169,570,o),
(127,588,cs),
(88,606,o),
(60,612,o),
(46,640,cs)
);
}
);
width = 748;
},
{
anchors = (
{
name = bottom;
pos = (359,0);
},
{
name = top;
pos = (389,745);
},
{
name = topleft;
pos = (-5,745);
}
);
associatedMasterId = "A22087AE-1668-478C-9B8B-D37A40788B8E";
background = {
shapes = (
{
closed = 1;
nodes = (
(432,165,o),
(426,240,o),
(426,324,cs),
(426,421,ls),
(426,505,o),
(432,580,o),
(457,613,cs),
(498,667,o),
(524,669,o),
(524,702,cs),
(524,732,o),
(500,750,o),
(463,750,cs),
(422,750,o),
(396,742,o),
(353,742,cs),
(311,742,o),
(273,750,o),
(243,750,cs),
(206,750,o),
(182,732,o),
(182,702,cs),
(182,669,o),
(208,667,o),
(249,613,cs),
(274,580,o),
(280,505,o),
(280,421,cs),
(280,324,ls),
(280,240,o),
(274,165,o),
(249,132,cs),
(208,78,o),
(172,86,o),
(172,39,cs),
(172,13,o),
(196,-5,o),
(233,-5,cs),
(284,-5,o),
(311,3,o),
(353,3,cs),
(396,3,o),
(433,-5,o),
(473,-5,cs),
(510,-5,o),
(534,13,o),
(534,39,cs),
(534,86,o),
(498,78,o),
(457,132,cs)
);
}
);
};
layerId = "22A8B9FB-96B7-4F99-ACF2-800A293C646A";
name = "Oct 8 19, 11:59";
shapes = (
{
closed = 1;
nodes = (
(-28,668,o),
(-16,695,o),
(3,716,cs),
(21,736,o),
(55,761,o),
(122,761,cs),
(200,761,o),
(303,650,o),
(426,325,c),
(331,287,l),
(416,399,ls),
(550,576,o),
(533,647,o),
(567,708,cs),
(591,751,o),
(621,763,o),
(657,762,cs),
(703,761,o),
(742,732,o),
(738,678,cs),
(733,613,o),
(647,514,o),
(436,274,c),
(446,190,o),
(452,165,o),
(477,132,cs),
(518,78,o),
(554,86,o),
(554,39,cs),
(554,13,o),
(530,-5,o),
(493,-5,cs),
(464,-5,o),
(408,3,o),
(373,3,cs),
(339,3,o),
(286,-5,o),
(253,-5,cs),
(216,-5,o),
(192,13,o),
(192,39,cs),
(192,86,o),
(228,78,o),
(269,132,cs),
(294,165,o),
(299,165,o),
(299,214,cs),
(299,268,o),
(250,357,o),
(197,451,cs),
(167,505,o),
(109,570,o),
(67,588,cs),
(28,605,o),
(0,612,o),
(-14,640,cs)
);
}
);
width = 728;
}
);
unicode = 89;
},
{
color = 4;
glyphname = Z;
kernLeft = Z;
kernRight = Z;
lastChange = "2019-12-04 10:07:11 +0000";
layers = (
{
anchors = (
{
name = bottom;
pos = (398,0);
},
{
name = top;
pos = (466,745);
}
);
layerId = "A22087AE-1668-478C-9B8B-D37A40788B8E";
shapes = (
{
closed = 1;
nodes = (
(596,0,ls),
(718,0,o),
(756,6,o),
(756,153,cs),
(756,190,o),
(758,244,o),
(732,254,cs),
(707,264,o),
(690,246,o),
(649,195,cs),
(580,109,o),
(491,96,o),
(397,96,cs),
(315,96,ls),
(288,96,o),
(281,106,o),
(299,129,cs),
(705,653,ls),
(730,685,o),
(744,705,o),
(737,724,cs),
(730,742,o),
(706,745,o),
(669,745,cs),
(330,745,ls),
(247,745,o),
(252,793,o),
(199,793,cs),
(164,793,o),
(136,758,o),
(104,689,cs),
(62,598,o),
(44,551,o),
(99,551,cs),
(132,551,o),
(154,577,o),
(208,618,cs),
(241,643,o),
(296,649,o),
(380,649,cs),
(449,649,ls),
(474,649,o),
(478,643,o),
(461,621,cs),
(72,104,ls),
(38,58,o),
(34,43,o),
(45,21,cs),
(58,-4,o),
(93,0,o),
(145,0,cs)
);
}
);
width = 796;
}
);
unicode = 90;
},
{
color = 4;
glyphname = E.ss01;
lastChange = "2019-12-04 10:07:11 +0000";
layers = (
{
anchors = (
{
name = bottom;
pos = (395,0);
},
{
name = ogonek;
pos = (727,10);
},
{
name = top;
pos = (395,745);
},
{
name = topleft;
pos = (0,745);
}
);
layerId = "A22087AE-1668-478C-9B8B-D37A40788B8E";
shapes = (
{
closed = 1;
nodes = (
(710,-6,o),
(750,25,o),
(750,122,cs),
(750,210,o),
(749,280,o),
(714,287,cs),
(681,294,o),
(661,261,o),
(629,208,cs),
(591,145,o),
(531,90,o),
(451,90,cs),
(396,90,o),
(355,102,o),
(333,133,cs),
(315,159,o),
(314,226,o),
(314,324,cs),
(314,347,o),
(322,355,o),
(343,355,cs),
(404,355,o),
(440,334,o),
(459,299,cs),
(480,260,o),
(507,231,o),
(544,242,cs),
(574,251,o),
(580,309,o),
(570,391,cs),
(562,457,o),
(533,519,o),
(480,519,cs),
(422,519,o),
(445,443,o),
(334,443,cs),
(319,443,o),
(314,453,o),
(314,467,cs),
(315,548,o),
(319,598,o),
(338,625,cs),
(357,652,o),
(394,663,o),
(449,663,cs),
(519,663,o),
(575,619,o),
(609,555,cs),
(637,502,o),
(648,476,o),
(681,479,cs),
(719,482,o),
(720,553,o),
(710,641,cs),
(699,737,o),
(670,769,o),
(617,769,cs),
(564,769,o),
(415,735,o),
(294,735,cs),
(222,735,o),
(161,750,o),
(131,750,cs),
(94,750,o),
(70,732,o),
(70,702,cs),
(70,669,o),
(96,667,o),
(137,613,cs),
(162,580,o),
(168,505,o),
(168,421,cs),
(168,324,ls),
(168,240,o),
(162,165,o),
(137,132,cs),
(96,78,o),
(60,86,o),
(60,39,cs),
(60,13,o),
(84,-5,o),
(121,-5,cs),
(172,-5,o),
(199,3,o),
(241,3,cs),
(362,3,o),
(604,-6,o),
(657,-6,cs)
);
}
);
width = 790;
},
{
associatedMasterId = "A22087AE-1668-478C-9B8B-D37A40788B8E";
layerId = "384A857D-B9A2-47C3-A94A-4EC87A642242";
name = "Aug 7 18, 11:04";
shapes = (
{
closed = 1;
nodes = (
(751,262,o),
(750,288,o),
(736,295,cs),
(713,306,o),
(699,290,o),
(675,256,cs),
(630,192,o),
(559,142,o),
(465,142,cs),
(303,142,o),
(180,273,o),
(180,437,cs),
(180,560,o),
(261,660,o),
(380,660,cs),
(472,660,o),
(533,610,o),
(585,527,cs),
(620,471,o),
(654,474,o),
(677,504,cs),
(696,529,o),
(715,664,o),
(713,695,cs),
(710,738,o),
(687,740,o),
(621,730,cs),
(552,720,o),
(529,760,o),
(407,760,cs),
(204,760,o),
(30,586,o),
(30,373,cs),
(30,160,o),
(194,-14,o),
(407,-14,cs),
(587,-14,o),
(686,101,o),
(738,230,cs)
);
},
{
closed = 1;
nodes = (
(564,251,o),
(570,309,o),
(560,391,cs),
(552,457,o),
(523,519,o),
(470,519,cs),
(407,519,o),
(439,434,o),
(264,448,cs),
(208,452,o),
(172,453,o),
(197,532,c),
(77,371,l),
(222,279,l),
(182,349,o),
(226,349,o),
(274,352,cs),
(385,358,o),
(427,339,o),
(449,299,cs),
(470,260,o),
(497,231,o),
(534,242,cs)
);
}
);
width = 767;
},
{
anchors = (
{
name = bottom;
pos = (415,0);
},
{
name = ogonek;
pos = (747,10);
},
{
name = top;
pos = (415,745);
},
{
name = topleft;
pos = (20,745);
}
);
associatedMasterId = "A22087AE-1668-478C-9B8B-D37A40788B8E";
layerId = "4C83F768-840E-43DA-8B98-234AF13F9665";
name = "Oct 8 19, 12:04";
shapes = (
{
closed = 1;
nodes = (
(730,-6,o),
(770,25,o),
(770,122,cs),
(770,210,o),
(769,280,o),
(734,287,cs),
(701,294,o),
(681,261,o),
(649,208,cs),
(611,145,o),
(551,90,o),
(471,90,cs),
(416,90,o),
(375,102,o),
(353,133,cs),
(335,159,o),
(334,226,o),
(334,324,cs),
(334,421,ls),
(334,529,o),
(335,593,o),
(358,625,cs),
(377,652,o),
(414,663,o),
(469,663,cs),
(539,663,o),
(595,619,o),
(629,555,cs),
(657,502,o),
(668,476,o),
(701,479,cs),
(739,482,o),
(740,553,o),
(730,641,cs),
(719,737,o),
(690,769,o),
(637,769,cs),
(584,769,o),
(435,735,o),
(314,735,cs),
(242,735,o),
(181,750,o),
(151,750,cs),
(114,750,o),
(90,732,o),
(90,702,cs),
(90,669,o),
(116,667,o),
(157,613,cs),
(182,580,o),
(188,505,o),
(188,421,cs),
(188,324,ls),
(188,240,o),
(182,165,o),
(157,132,cs),
(116,78,o),
(80,86,o),
(80,39,cs),
(80,13,o),
(104,-5,o),
(141,-5,cs),
(192,-5,o),
(219,3,o),
(261,3,cs),
(382,3,o),
(624,-6,o),
(677,-6,cs)
);
},
{
closed = 1;
nodes = (
(594,251,o),
(600,309,o),
(590,391,cs),
(582,457,o),
(553,519,o),
(500,519,cs),
(437,519,o),
(468,425,o),
(324,445,c),
(324,353,l),
(414,363,o),
(457,339,o),
(479,299,cs),
(500,260,o),
(527,231,o),
(564,242,cs)
);
}
);
width = 830;
}
);
},
{
color = 4;
glyphname = a;
kernLeft = a;
kernRight = a;
lastChange = "2022-03-25 11:42:12 +0000";
layers = (
{
anchors = (
{
name = bottom;
pos = (335,0);
},
{
name = ogonek;
pos = (595,10);
},
{
name = top;
pos = (335,550);
}
);
layerId = "A22087AE-1668-478C-9B8B-D37A40788B8E";
shapes = (
{
closed = 1;
nodes = (
(611,-7,o),
(650,33,o),
(650,66,cs),
(650,100,o),
(589,146,o),
(546,245,cs),
(508,333,o),
(502,375,o),
(535,429,cs),
(569,484,o),
(611,513,o),
(578,546,cs),
(546,578,o),
(429,528,o),
(354,478,c),
(483,469,l),
(414,539,o),
(356,575,o),
(250,575,cs),
(137,575,o),
(68,533,o),
(62,499,cs),
(57,474,o),
(74,455,o),
(116,456,cs),
(178,458,o),
(276,467,o),
(338,408,c),
(317,456,l),
(83,346,o),
(-24,80,o),
(80,3,cs),
(160,-56,o),
(393,58,o),
(446,249,c),
(389,252,l),
(403,79,o),
(487,-7,o),
(568,-7,cs)
);
},
{
closed = 1;
nodes = (
(205,183,o),
(218,234,o),
(264,291,cs),
(314,353,o),
(350,378,o),
(395,405,c),
(341,403,l),
(385,353,o),
(383,273,o),
(342,216,cs),
(302,161,o),
(260,144,o),
(233,163,cs)
);
}
);
width = 670;
}
);
unicode = 97;
},
{
glyphname = aogonek;
kernLeft = a;
kernRight = a;
lastChange = "2019-12-04 10:07:11 +0000";
layers = (
{
layerId = "A22087AE-1668-478C-9B8B-D37A40788B8E";
shapes = (
{
closed = 1;
nodes = (
(542,-217,o),
(603,-172,o),
(625,-147,cs),
(632,-139,o),
(638,-131,o),
(635,-127,cs),
(631,-121,o),
(622,-121,o),
(609,-124,cs),
(584,-130,o),
(561,-132,o),
(542,-128,cs),
(512,-122,o),
(496,-99,o),
(502,-74,cs),
(510,-41,o),
(556,-16,o),
(589,0,c),
(528,19,l),
(464,-7,o),
(404,-39,o),
(391,-97,cs),
(379,-152,o),
(417,-195,o),
(473,-205,cs)
);
},
{
ref = a;
}
);
width = 650;
}
);
unicode = 261;
},
{
color = 4;
glyphname = ae;
kernLeft = a;
kernRight = e;
lastChange = "2019-12-04 10:07:11 +0000";
layers = (
{
anchors = (
{
name = bottom;
pos = (335,0);
},
{
name = ogonek;
pos = (595,10);
},
{
name = top;
pos = (335,550);
}
);
layerId = "A22087AE-1668-478C-9B8B-D37A40788B8E";
shapes = (
{
closed = 1;
nodes = (
(160,-56,o),
(393,58,o),
(446,249,c),
(389,252,l),
(403,79,o),
(558,6,o),
(639,6,cs),
(682,6,o),
(650,33,o),
(650,66,cs),
(650,100,o),
(589,146,o),
(546,245,cs),
(508,333,o),
(502,375,o),
(535,429,cs),
(569,484,o),
(611,513,o),
(578,546,cs),
(574,550,o),
(511,471,o),
(436,421,c),
(483,469,l),
(414,539,o),
(356,575,o),
(250,575,cs),
(149,575,o),
(60,525,o),
(62,499,cs),
(64,474,o),
(81,455,o),
(116,456,cs),
(178,458,o),
(276,467,o),
(338,408,c),
(317,456,l),
(83,346,o),
(-24,80,o),
(80,3,cs)
);
},
{
closed = 1;
nodes = (
(205,183,o),
(218,234,o),
(264,291,cs),
(314,353,o),
(350,378,o),
(395,405,c),
(341,403,l),
(385,353,o),
(383,273,o),
(342,216,cs),
(302,161,o),
(260,144,o),
(233,163,cs)
);
},
{
closed = 1;
nodes = (
(773,-15,o),
(868,34,o),
(920,130,cs),
(933,154,o),
(935,166,o),
(920,177,cs),
(908,186,o),
(899,183,o),
(878,165,cs),
(812,108,o),
(635,91,o),
(563,225,cs),
(513,318,o),
(520,436,o),
(583,475,cs),
(656,520,o),
(726,470,o),
(726,381,c),
(518,349,ls),
(505,347,o),
(425,261,o),
(532,269,cs),
(801,288,ls),
(864,292,o),
(882,297,o),
(882,357,cs),
(882,501,o),
(798,566,o),
(665,566,cs),
(504,566,o),
(375,436,o),
(375,276,cs),
(375,108,o),
(504,-15,o),
(665,-15,cs)
);
}
);
width = 941;
}
);
metricLeft = a;
metricRight = e;
unicode = 230;
},
{
color = 4;
glyphname = b;
kernLeft = b;
kernRight = o;
lastChange = "2019-12-04 10:07:11 +0000";
layers = (
{
layerId = "A22087AE-1668-478C-9B8B-D37A40788B8E";
shapes = (
{
closed = 1;
nodes = (
(564,-15,o),
(693,108,o),
(693,276,cs),
(693,436,o),
(574,566,o),
(423,566,cs),
(284,566,o),
(245,457,o),
(224,400,c),
(199,328,o),
(153,292,o),
(153,276,cs),
(153,115,o),
(243,-15,o),
(403,-15,cs)
);
},
{
closed = 1;
nodes = (
(83,-21,o),
(119,-7,o),
(224,64,c),
(215,152,l),
(190,185,o),
(267,251,o),
(267,335,cs),
(267,459,ls),
(267,716,o),
(323,788,o),
(288,820,cs),
(251,854,o),
(199,801,o),
(134,777,cs),
(28,738,o),
(-13,745,o),
(4,692,cs),
(21,640,o),
(121,716,o),
(121,538,cs),
(121,335,ls),
(121,251,o),
(110,186,o),
(90,155,cs),
(39,75,o),
(4,58,o),
(44,18,cs)
);
},
{
closed = 1;
nodes = (
(329,81,o),
(274,179,o),
(268,284,cs),
(262,394,o),
(285,464,o),
(356,461,cs),
(451,457,o),
(498,340,o),
(502,241,cs),
(506,144,o),
(476,79,o),
(412,80,cs)
);
}
);
width = 718;
},
{
associatedMasterId = "A22087AE-1668-478C-9B8B-D37A40788B8E";
layerId = "C332EC2C-B9C3-4FA2-BA82-2BE05072E5F5";
name = "Jul 11 19, 12:15";
shapes = (
{
closed = 1;
nodes = (
(564,-15,o),
(693,108,o),
(693,276,cs),
(693,436,o),
(574,566,o),
(423,566,cs),
(284,566,o),
(245,457,o),
(224,400,c),
(199,328,o),
(153,292,o),
(153,276,cs),
(153,115,o),
(243,-15,o),
(403,-15,cs)
);
},
{
closed = 1;
nodes = (
(83,-21,o),
(119,-7,o),
(224,64,c),
(215,152,l),
(190,185,o),
(267,251,o),
(267,335,cs),
(267,502,l),
(121,381,l),
(121,335,ls),
(121,251,o),
(110,186,o),
(90,155,cs),
(39,75,o),
(4,58,o),
(44,18,cs)
);
},
{
closed = 1;
nodes = (
(329,81,o),
(274,179,o),
(268,284,cs),
(262,394,o),
(285,464,o),
(356,461,cs),
(451,457,o),
(498,340,o),
(502,241,cs),
(506,144,o),
(476,79,o),
(412,80,cs)
);
},
{
closed = 1;
nodes = (
(267,412,l),
(267,459,ls),
(267,716,o),
(323,788,o),
(288,820,cs),
(251,854,o),
(199,801,o),
(134,777,cs),
(28,738,o),
(-13,745,o),
(4,692,cs),
(21,640,o),
(121,716,o),
(121,538,cs),
(121,381,l)
);
}
);
width = 718;
}
);
metricRight = o;
unicode = 98;
},
{
color = 4;
glyphname = c;
kernLeft = o;
kernRight = c;
lastChange = "2019-12-04 10:07:11 +0000";
layers = (
{
anchors = (
{
name = bottom;
pos = (299,0);
},
{
name = top;
pos = (315,550);
}
);
background = {
shapes = (
{
closed = 1;
nodes = (
(746,262,o),
(745,288,o),
(731,295,cs),
(708,306,o),
(694,290,o),
(670,256,cs),
(625,192,o),
(554,142,o),
(460,142,cs),
(298,142,o),
(175,273,o),
(175,437,cs),
(175,560,o),
(256,660,o),
(375,660,cs),
(467,660,o),
(528,610,o),
(580,527,cs),
(615,471,o),
(649,474,o),
(672,504,cs),
(691,529,o),
(710,664,o),
(708,695,cs),
(705,738,o),
(682,740,o),
(616,730,cs),
(547,720,o),
(524,760,o),
(402,760,cs),
(199,760,o),
(25,586,o),
(25,373,cs),
(25,160,o),
(189,-14,o),
(402,-14,cs),
(582,-14,o),
(681,101,o),
(733,230,cs)
);
}
);
};
layerId = "A22087AE-1668-478C-9B8B-D37A40788B8E";
shapes = (
{
closed = 1;
nodes = (
(423,-15,o),
(517,34,o),
(570,130,cs),
(584,154,o),
(585,166,o),
(570,177,cs),
(558,186,o),
(549,183,o),
(528,165,cs),
(461,109,o),
(285,91,o),
(213,225,cs),
(163,318,o),
(168,434,o),
(225,471,cs),
(278,505,o),
(357,470,o),
(406,409,cs),
(446,358,o),
(471,317,o),
(498,328,cs),
(522,338,o),
(556,492,o),
(554,517,cs),
(551,549,o),
(534,550,o),
(483,543,cs),
(429,536,o),
(413,566,o),
(315,566,cs),
(154,566,o),
(25,436,o),
(25,276,cs),
(25,108,o),
(154,-15,o),
(315,-15,cs)
);
}
);
width = 597;
},
{
associatedMasterId = "A22087AE-1668-478C-9B8B-D37A40788B8E";
background = {
shapes = (
{
closed = 1;
nodes = (
(741,262,o),
(740,288,o),
(726,295,cs),
(703,306,o),
(689,290,o),
(665,256,cs),
(620,192,o),
(549,142,o),
(455,142,cs),
(293,142,o),
(170,273,o),
(170,437,cs),
(170,560,o),
(251,660,o),
(370,660,cs),
(462,660,o),
(523,610,o),
(575,527,cs),
(610,471,o),
(644,474,o),
(667,504,cs),
(686,529,o),
(705,664,o),
(703,695,cs),
(700,738,o),
(677,740,o),
(611,730,cs),
(542,720,o),
(519,760,o),
(397,760,cs),
(194,760,o),
(20,586,o),
(20,373,cs),
(20,160,o),
(184,-14,o),
(397,-14,cs),
(577,-14,o),
(676,101,o),
(728,230,cs)
);
}
);
};
layerId = "F148EBC9-3A75-4CA0-85CF-136B90750EF6";
name = "Mar 29 19, 16:36";
shapes = (
{
closed = 1;
nodes = (
(553,186,o),
(541,186,o),
(523,168,cs),
(456,99,o),
(280,91,o),
(208,225,cs),
(158,318,o),
(163,434,o),
(220,471,cs),
(273,505,o),
(382,470,o),
(450,385,cs),
(477,352,o),
(502,348,o),
(521,368,cs),
(538,385,o),
(551,492,o),
(549,516,cs),
(546,549,o),
(529,550,o),
(478,543,cs),
(424,536,o),
(408,566,o),
(310,566,cs),
(149,566,o),
(20,436,o),
(20,276,cs),
(20,108,o),
(149,-15,o),
(310,-15,cs),
(418,-15,o),
(512,34,o),
(565,130,cs),
(579,154,o),
(580,166,o),
(565,177,cs)
);
}
);
width = 596;
}
);
metricLeft = o;
unicode = 99;
},
{
color = 4;
glyphname = d;
kernLeft = o;
kernRight = d;
lastChange = "2019-10-22 14:36:47 +0000";
layers = (
{
layerId = "A22087AE-1668-478C-9B8B-D37A40788B8E";
shapes = (
{
closed = 1;
nodes = (
(475,-15,o),
(565,115,o),
(565,276,cs),
(565,292,o),
(519,328,o),
(494,400,c),
(473,457,o),
(434,566,o),
(295,566,cs),
(144,566,o),
(25,436,o),
(25,276,cs),
(25,108,o),
(154,-15,o),
(315,-15,cs)
);
},
{
closed = 1;
nodes = (
(277,89,o),
(219,187,o),
(212,292,cs),
(206,402,o),
(230,472,o),
(305,469,cs),
(405,466,o),
(455,348,o),
(459,249,cs),
(463,152,o),
(431,87,o),
(364,88,cs)
);
},
{
closed = 1;
nodes = (
(714,58,o),
(682,75,o),
(640,141,cs),
(611,186,o),
(597,251,o),
(597,335,cs),
(597,459,ls),
(597,716,o),
(656,788,o),
(621,820,cs),
(584,854,o),
(539,801,o),
(474,777,cs),
(368,738,o),
(327,745,o),
(344,692,cs),
(361,640,o),
(451,716,o),
(451,538,cs),
(451,335,ls),
(451,251,o),
(528,185,o),
(503,152,c),
(494,64,l),
(599,-7,o),
(635,-21,o),
(674,18,cs)
);
}
);
width = 691;
},
{
associatedMasterId = "A22087AE-1668-478C-9B8B-D37A40788B8E";
layerId = "63907B11-C521-477F-A809-0201359D8BAA";
name = "Mar 29 19, 17:00";
shapes = (
{
closed = 1;
nodes = (
(553,186,o),
(544,183,o),
(523,165,cs),
(456,109,o),
(280,91,o),
(208,225,cs),
(158,318,o),
(163,434,o),
(220,471,cs),
(273,505,o),
(352,470,o),
(401,409,cs),
(441,358,o),
(466,317,o),
(493,328,cs),
(517,338,o),
(551,492,o),
(549,517,cs),
(546,549,o),
(507,485,o),
(456,478,cs),
(402,471,o),
(408,566,o),
(310,566,cs),
(149,566,o),
(20,436,o),
(20,276,cs),
(20,108,o),
(149,-15,o),
(310,-15,cs),
(418,-15,o),
(512,34,o),
(565,130,cs),
(579,154,o),
(580,166,o),
(565,177,cs)
);
},
{
closed = 1;
nodes = (
(93,634,o),
(102,637,o),
(123,655,cs),
(189,712,o),
(366,729,o),
(438,595,cs),
(451,571,o),
(460,546,o),
(466,521,cs),
(470,503,o),
(471,487,o),
(456,478,cs),
(437,466,o),
(425,488,o),
(401,509,c),
(392,436,l),
(456,436,o),
(465,309,o),
(493,329,cs),
(566,381,o),
(626,447,o),
(626,544,cs),
(626,712,o),
(497,835,o),
(336,835,cs),
(228,835,o),
(133,786,o),
(81,690,cs),
(68,666,o),
(66,654,o),
(81,643,cs)
);
}
);
width = 600;
},
{
associatedMasterId = "A22087AE-1668-478C-9B8B-D37A40788B8E";
layerId = "18A1F2A9-FDBE-4D26-95B5-0A2C5A107A98";
name = "Mar 29 19, 17:03";
shapes = (
{
closed = 1;
nodes = (
(553,186,o),
(544,183,o),
(523,165,cs),
(456,109,o),
(280,91,o),
(208,225,cs),
(158,318,o),
(161,436,o),
(220,471,cs),
(420,590,o),
(353,225,o),
(503,258,cs),
(575,274,o),
(626,426,o),
(626,544,cs),
(626,712,o),
(497,835,o),
(336,835,cs),
(228,835,o),
(133,786,o),
(81,690,cs),
(68,666,o),
(66,654,o),
(81,643,cs),
(93,634,o),
(102,637,o),
(123,655,cs),
(189,712,o),
(406,729,o),
(478,595,cs),
(527,504,o),
(525,408,o),
(482,386,cs),
(408,350,o),
(461,566,o),
(282,566,cs),
(149,566,o),
(20,436,o),
(20,276,cs),
(20,108,o),
(149,-15,o),
(310,-15,cs),
(418,-15,o),
(512,34,o),
(565,130,cs),
(579,154,o),
(580,166,o),
(565,177,cs)
);
}
);
width = 600;
},
{
associatedMasterId = "A22087AE-1668-478C-9B8B-D37A40788B8E";
layerId = "DF7117A3-73F3-4D0D-A4EE-21CFDCCB1859";
name = "Mar 29 19, 17:05";
shapes = (
{
closed = 1;
nodes = (
(553,186,o),
(544,183,o),
(523,165,cs),
(456,109,o),
(280,91,o),
(208,225,cs),
(158,318,o),
(157,445,o),
(220,471,cs),
(377,536,o),
(251,188,o),
(459,188,cs),
(556,188,o),
(626,312,o),
(626,471,cs),
(626,712,o),
(497,835,o),
(336,835,cs),
(228,835,o),
(133,786,o),
(81,690,cs),
(68,666,o),
(66,654,o),
(81,643,cs),
(93,634,o),
(102,637,o),
(123,655,cs),
(189,712,o),
(406,729,o),
(478,595,cs),
(527,504,o),
(523,309,o),
(478,301,cs),
(412,289,o),
(521,566,o),
(282,566,cs),
(149,566,o),
(20,436,o),
(20,276,cs),
(20,108,o),
(149,-15,o),
(310,-15,cs),
(418,-15,o),
(512,34,o),
(565,130,cs),
(579,154,o),
(580,166,o),
(565,177,cs)
);
}
);
width = 600;
},
{
associatedMasterId = "A22087AE-1668-478C-9B8B-D37A40788B8E";
layerId = "9B05613E-396F-4062-AAC0-C2FAB1A30AB9";
name = "Mar 29 19, 17:06";
shapes = (
{
closed = 1;
nodes = (
(553,186,o),
(544,183,o),
(523,165,cs),
(456,109,o),
(280,91,o),
(208,225,cs),
(158,318,o),
(157,445,o),
(220,471,cs),
(377,536,o),
(208,188,o),
(410,188,cs),
(556,188,o),
(626,312,o),
(626,471,cs),
(626,712,o),
(497,835,o),
(336,835,cs),
(228,835,o),
(133,786,o),
(81,690,cs),
(68,666,o),
(66,654,o),
(81,643,cs),
(93,634,o),
(102,637,o),
(123,655,cs),
(189,712,o),
(406,729,o),
(478,595,cs),
(527,504,o),
(523,309,o),
(458,298,cs),
(358,280,o),
(521,566,o),
(282,566,cs),
(149,566,o),
(20,436,o),
(20,276,cs),
(20,108,o),
(149,-15,o),
(310,-15,cs),
(418,-15,o),
(512,34,o),
(565,130,cs),
(579,154,o),
(580,166,o),
(565,177,cs)
);
}
);
width = 600;
},
{
associatedMasterId = "A22087AE-1668-478C-9B8B-D37A40788B8E";
layerId = "80860378-4F94-4458-8315-6A23DC8F8F04";
name = "Mar 29 19, 17:07";
shapes = (
{
closed = 1;
nodes = (
(543,265,o),
(535,260,o),
(523,235,cs),
(457,98,o),
(280,91,o),
(208,225,cs),
(158,318,o),
(163,434,o),
(220,471,cs),
(273,505,o),
(352,480,o),
(401,409,cs),
(438,356,o),
(467,315,o),
(493,328,cs),
(559,361,o),
(626,461,o),
(626,544,cs),
(626,712,o),
(497,835,o),
(336,835,cs),
(228,835,o),
(133,786,o),
(81,690,cs),
(68,666,o),
(66,654,o),
(81,643,cs),
(93,634,o),
(102,637,o),
(123,655,cs),
(189,712,o),
(386,719,o),
(458,585,cs),
(479,546,o),
(485,485,o),
(456,478,cs),
(422,470,o),
(398,566,o),
(280,566,cs),
(149,566,o),
(20,436,o),
(20,276,cs),
(20,108,o),
(149,-15,o),
(310,-15,cs),
(468,-15,o),
(550,95,o),
(565,200,cs),
(569,228,o),
(574,265,o),
(555,265,cs)
);
}
);
width = 600;
}
);
metricLeft = "=o";
unicode = 100;
},
{
color = 4;
glyphname = eth;
lastChange = "2019-12-04 10:07:11 +0000";
layers = (
{
anchors = (
{
name = bottom;
pos = (323,0);
},
{
name = center;
pos = (323,275);
},
{
name = ogonek;
pos = (581,10);
},
{
name = top;
pos = (323,550);
},
{
name = topright;
pos = (626,550);
}
);
layerId = "A22087AE-1668-478C-9B8B-D37A40788B8E";
shapes = (
{
closed = 1;
nodes = (
(485,-15,o),
(606,112,o),
(621,269,cs),
(649,572,o),
(513,746,o),
(338,808,cs),
(265,834,o),
(211,832,o),
(205,796,cs),
(200,767,o),
(232,760,o),
(278,738,cs),
(370,694,o),
(440,623,o),
(467,531,c),
(424,553,o),
(375,565,o),
(323,565,cs),
(158,565,o),
(25,436,o),
(25,276,cs),
(25,108,o),
(158,-15,o),
(323,-15,cs)
);
},
{
closed = 1;
nodes = (
(344,70,o),
(253,158,o),
(211,255,cs),
(167,356,o),
(171,449,o),
(229,468,cs),
(310,495,o),
(409,386,o),
(446,294,cs),
(482,204,o),
(484,116,o),
(423,96,cs)
);
},
{
closed = 1;
nodes = (
(322,612,o),
(361,625,o),
(434,645,cs),
(507,665,o),
(551,671,o),
(614,689,cs),
(645,698,o),
(659,719,o),
(653,745,cs),
(647,769,o),
(623,779,o),
(592,771,cs),
(529,755,o),
(487,738,o),
(413,717,cs),
(341,697,o),
(300,689,o),
(237,673,cs),
(206,665,o),
(191,643,o),
(198,620,cs),
(206,595,o),
(228,583,o),
(260,593,cs)
);
}
);
width = 659;
},
{
anchors = (
{
name = bottom;
pos = (323,0);
},
{
name = center;
pos = (323,275);
},
{
name = ogonek;
pos = (581,10);
},
{
name = top;
pos = (323,550);
},
{
name = topright;
pos = (626,550);
}
);
associatedMasterId = "A22087AE-1668-478C-9B8B-D37A40788B8E";
layerId = "40ECB182-5126-4CD8-90B4-65F515CC7E9E";
name = "Jul 11 19, 16:41";
shapes = (
{
closed = 1;
nodes = (
(487,-15,o),
(621,115,o),
(621,276,cs),
(621,443,o),
(487,565,o),
(323,565,cs),
(158,565,o),
(25,436,o),
(25,276,cs),
(25,108,o),
(158,-15,o),
(323,-15,cs)
);
},
{
closed = 1;
nodes = (
(482,204,o),
(484,116,o),
(423,96,cs),
(344,70,o),
(253,158,o),
(211,255,cs),
(167,356,o),
(171,449,o),
(229,468,cs),
(310,495,o),
(409,386,o),
(446,294,cs)
);
},
{
closed = 1;
nodes = (
(621,274,l),
(622,561,o),
(451,721,o),
(260,753,cs),
(183,766,o),
(131,754,o),
(131,718,cs),
(131,688,o),
(164,687,o),
(213,673,cs),
(348,634,o),
(451,541,o),
(466,393,c)
);
}
);
width = 1229;
}
);
unicode = 240;
},
{
glyphname = dcroat;
kernLeft = o;
kernRight = d;
lastChange = "2019-12-04 10:07:11 +0000";
layers = (
{
layerId = "A22087AE-1668-478C-9B8B-D37A40788B8E";
shapes = (
{
closed = 1;
nodes = (
(475,-15,o),
(565,115,o),
(565,276,cs),
(565,292,o),
(519,328,o),
(494,400,c),
(473,457,o),
(434,566,o),
(295,566,cs),
(144,566,o),
(25,436,o),
(25,276,cs),
(25,108,o),
(154,-15,o),
(315,-15,cs)
);
},
{
closed = 1;
nodes = (
(277,89,o),
(219,187,o),
(212,292,cs),
(206,402,o),
(230,472,o),
(305,469,cs),
(405,466,o),
(455,348,o),
(459,249,cs),
(463,152,o),
(431,87,o),
(364,88,cs)
);
},
{
closed = 1;
nodes = (
(714,58,o),
(682,75,o),
(640,141,cs),
(611,186,o),
(597,251,o),
(597,335,cs),
(597,459,ls),
(597,716,o),
(656,788,o),
(621,820,cs),
(584,854,o),
(541,830,o),
(474,817,cs),
(386,800,o),
(348,798,o),
(344,772,cs),
(338,728,o),
(451,746,o),
(451,638,cs),
(451,335,ls),
(451,251,o),
(528,185,o),
(503,152,c),
(494,64,l),
(599,-7,o),
(635,-21,o),
(674,18,cs)
);
},
{
closed = 1;
nodes = (
(332,595,o),
(374,599,o),
(449,600,cs),
(525,601,o),
(569,594,o),
(635,596,cs),
(667,597,o),
(686,616,o),
(687,647,cs),
(688,676,o),
(666,694,o),
(634,694,cs),
(569,694,o),
(524,688,o),
(448,687,cs),
(373,686,o),
(331,691,o),
(266,691,cs),
(234,691,o),
(214,670,o),
(215,642,cs),
(216,612,o),
(234,592,o),
(268,593,cs)
);
}
);
width = 691;
}
);
unicode = 273;
},
{
color = 4;
glyphname = e;
kernLeft = o;
kernRight = e;
lastChange = "2019-12-04 10:07:11 +0000";
layers = (
{
anchors = (
{
name = bottom;
pos = (298,0);
},
{
name = ogonek;
pos = (532,10);
},
{
name = top;
pos = (298,550);
}
);
background = {
shapes = (
{
closed = 1;
nodes = (
(558,186,o),
(549,183,o),
(528,165,cs),
(461,109,o),
(285,91,o),
(213,225,cs),
(163,318,o),
(168,434,o),
(225,471,cs),
(278,505,o),
(357,470,o),
(406,409,cs),
(446,358,o),
(471,317,o),
(498,328,cs),
(522,338,o),
(556,492,o),
(554,517,cs),
(551,549,o),
(534,550,o),
(483,543,cs),
(429,536,o),
(413,566,o),
(315,566,cs),
(154,566,o),
(25,436,o),
(25,276,cs),
(25,108,o),
(154,-15,o),
(315,-15,cs),
(423,-15,o),
(517,34,o),
(570,130,cs),
(584,154,o),
(585,166,o),
(570,177,cs)
);
}
);
};
layerId = "A22087AE-1668-478C-9B8B-D37A40788B8E";
shapes = (
{
closed = 1;
nodes = (
(423,-15,o),
(517,34,o),
(570,130,cs),
(584,154,o),
(585,166,o),
(570,177,cs),
(558,186,o),
(549,183,o),
(528,165,cs),
(461,109,o),
(285,91,o),
(213,225,cs),
(163,318,o),
(170,436,o),
(233,475,cs),
(306,520,o),
(376,470,o),
(376,381,c),
(168,349,ls),
(155,347,o),
(75,261,o),
(182,269,cs),
(451,288,ls),
(514,292,o),
(532,297,o),
(532,357,cs),
(532,501,o),
(448,566,o),
(315,566,cs),
(154,566,o),
(25,436,o),
(25,276,cs),
(25,108,o),
(154,-15,o),
(315,-15,cs)
);
}
);
width = 591;
},
{
associatedMasterId = "A22087AE-1668-478C-9B8B-D37A40788B8E";
layerId = "AA5F1BFD-C4C3-49F0-8E76-EC0DBAFF724D";
name = "Mar 29 19, 16:47";
shapes = (
{
closed = 1;
nodes = (
(553,186,o),
(541,186,o),
(523,168,cs),
(456,99,o),
(280,91,o),
(208,225,cs),
(158,318,o),
(163,434,o),
(220,471,cs),
(273,505,o),
(391,484,o),
(391,421,cs),
(391,395,o),
(373,336,o),
(163,329,cs),
(149,329,o),
(119,258,o),
(178,258,cs),
(394,258,o),
(569,347,o),
(569,447,cs),
(569,489,o),
(548,491,o),
(498,503,cs),
(444,516,o),
(408,566,o),
(310,566,cs),
(149,566,o),
(20,436,o),
(20,276,cs),
(20,108,o),
(149,-15,o),
(310,-15,cs),
(418,-15,o),
(512,34,o),
(565,130,cs),
(579,154,o),
(580,166,o),
(565,177,cs)
);
}
);
width = 590;
},
{
associatedMasterId = "A22087AE-1668-478C-9B8B-D37A40788B8E";
layerId = "484E8BE8-9F77-4CB5-99C0-EC7D6F3D3A89";
name = "Mar 29 19, 16:50";
shapes = (
{
closed = 1;
nodes = (
(553,186,o),
(541,186,o),
(523,168,cs),
(456,99,o),
(280,91,o),
(208,225,cs),
(158,318,o),
(157,443,o),
(228,475,cs),
(307,510,o),
(371,440,o),
(371,377,cs),
(371,351,o),
(363,336,o),
(163,329,cs),
(150,329,o),
(70,259,o),
(177,259,cs),
(245,259,o),
(349,258,o),
(446,258,cs),
(509,258,o),
(527,267,o),
(527,327,cs),
(527,471,o),
(443,566,o),
(310,566,cs),
(149,566,o),
(20,436,o),
(20,276,cs),
(20,108,o),
(149,-15,o),
(310,-15,cs),
(418,-15,o),
(512,34,o),
(565,130,cs),
(579,154,o),
(580,166,o),
(565,177,cs)
);
}
);
width = 590;
},
{
associatedMasterId = "A22087AE-1668-478C-9B8B-D37A40788B8E";
background = {
shapes = (
{
closed = 1;
nodes = (
(553,186,o),
(544,183,o),
(523,165,cs),
(456,109,o),
(280,91,o),
(208,225,cs),
(158,318,o),
(163,434,o),
(220,471,cs),
(273,505,o),
(352,470,o),
(401,409,cs),
(441,358,o),
(466,317,o),
(493,328,cs),
(517,338,o),
(551,492,o),
(549,517,cs),
(546,549,o),
(529,550,o),
(478,543,cs),
(424,536,o),
(408,566,o),
(310,566,cs),
(149,566,o),
(20,436,o),
(20,276,cs),
(20,108,o),
(149,-15,o),
(310,-15,cs),
(418,-15,o),
(512,34,o),
(565,130,cs),
(579,154,o),
(580,166,o),
(565,177,cs)
);
}
);
};
layerId = "29CEA52B-84E6-4CC1-B761-1666D1081624";
name = "Mar 29 19, 16:54";
shapes = (
{
closed = 1;
nodes = (
(553,186,o),
(544,183,o),
(523,165,cs),
(456,109,o),
(280,91,o),
(208,225,cs),
(158,318,o),
(165,436,o),
(228,475,cs),
(301,520,o),
(371,470,o),
(371,381,c),
(163,379,ls),
(150,379,o),
(70,303,o),
(177,299,cs),
(446,288,ls),
(509,285,o),
(527,297,o),
(527,357,cs),
(527,501,o),
(443,566,o),
(310,566,cs),
(149,566,o),
(20,436,o),
(20,276,cs),
(20,108,o),
(149,-15,o),
(310,-15,cs),
(418,-15,o),
(512,34,o),
(565,130,cs),
(579,154,o),
(580,166,o),
(565,177,cs)
);
}
);
width = 590;
}
);
metricLeft = o;
unicode = 101;
},
{
glyphname = eogonek;
kernLeft = o;
kernRight = e;
lastChange = "2019-12-04 10:07:11 +0000";
layers = (
{
layerId = "A22087AE-1668-478C-9B8B-D37A40788B8E";
shapes = (
{
closed = 1;
nodes = (
(495,-192,o),
(543,-131,o),
(560,-102,cs),
(566,-92,o),
(569,-84,o),
(566,-80,cs),
(561,-74,o),
(552,-77,o),
(539,-83,cs),
(515,-94,o),
(494,-102,o),
(475,-101,cs),
(445,-99,o),
(424,-83,o),
(424,-58,cs),
(424,-24,o),
(464,15,o),
(509,54,c),
(491,112,l),
(375,10,o),
(331,-42,o),
(330,-101,cs),
(329,-148,o),
(366,-192,o),
(424,-192,cs)
);
},
{
ref = e;
}
);
width = 591;
}
);
unicode = 281;
},
{
color = 4;
glyphname = f;
kernLeft = f;
kernRight = f;
lastChange = "2019-12-04 10:07:11 +0000";
layers = (
{
layerId = "A22087AE-1668-478C-9B8B-D37A40788B8E";
shapes = (
{
closed = 1;
nodes = (
(152,-7,o),
(179,0,o),
(221,0,cs),
(264,0,o),
(301,-7,o),
(341,-7,cs),
(378,-7,o),
(402,11,o),
(402,37,cs),
(402,84,o),
(366,76,o),
(325,130,cs),
(300,163,o),
(294,240,o),
(294,324,cs),
(294,358,ls),
(294,524,o),
(298,697,o),
(379,697,cs),
(437,697,o),
(449,596,o),
(488,598,cs),
(528,601,o),
(523,645,o),
(528,702,cs),
(532,743,o),
(539,768,o),
(538,799,cs),
(537,820,o),
(527,829,o),
(503,829,cs),
(379,829,o),
(220,761,o),
(173,641,cs),
(134,541,o),
(113,519,o),
(69,501,cs),
(45,491,o),
(38,463,o),
(51,441,cs),
(79,394,o),
(148,462,o),
(148,293,cs),
(148,264,ls),
(148,180,o),
(142,163,o),
(117,130,cs),
(76,76,o),
(40,84,o),
(40,37,cs),
(40,11,o),
(64,-7,o),
(101,-7,cs)
);
},
{
closed = 1;
nodes = (
(468,400,o),
(477,433,o),
(506,488,cs),
(518,511,o),
(510,527,o),
(477,526,cs),
(165,517,l),
(156,422,l),
(383,406,ls)
);
}
);
width = 518;
}
);
unicode = 102;
},
{
color = 4;
glyphname = g;
kernLeft = g;
kernRight = g;
lastChange = "2019-12-04 10:07:11 +0000";
layers = (
{
anchors = (
{
name = bottom;
pos = (353,-250);
},
{
name = top;
pos = (303,550);
}
);
layerId = "A22087AE-1668-478C-9B8B-D37A40788B8E";
shapes = (
{
closed = 1;
nodes = (
(192,-288,o),
(438,-276,o),
(578,-152,cs),
(712,-34,o),
(697,85,o),
(657,106,cs),
(622,124,o),
(541,104,o),
(393,58,cs),
(272,20,o),
(216,32,o),
(192,57,cs),
(178,72,o),
(182,103,o),
(199,119,cs),
(207,126,o),
(218,133,o),
(242,126,c),
(106,196,l),
(136,174,o),
(126,163,o),
(110,149,cs),
(76,119,o),
(36,70,o),
(60,20,cs),
(135,-134,o),
(310,-93,o),
(463,-53,cs),
(520,-38,o),
(540,-51,o),
(540,-76,cs),
(540,-101,o),
(490,-172,o),
(353,-173,cs),
(255,-174,o),
(177,-141,o),
(143,-64,c),
(124,-52,l),
(45,-96,o),
(13,-204,o),
(107,-248,cs)
);
},
{
closed = 1;
nodes = (
(505,115,o),
(639,216,o),
(639,341,cs),
(639,470,o),
(505,565,o),
(340,565,cs),
(173,565,o),
(40,464,o),
(40,341,cs),
(40,210,o),
(173,115,o),
(340,115,cs)
);
},
{
closed = 1;
nodes = (
(356,180,o),
(285,249,o),
(253,324,cs),
(220,402,o),
(222,474,o),
(267,489,cs),
(329,510,o),
(406,426,o),
(435,354,cs),
(463,285,o),
(464,217,o),
(417,201,cs)
);
},
{
closed = 1;
nodes = (
(454,502,o),
(642,494,o),
(656,593,cs),
(672,703,o),
(540,716,o),
(528,702,cs),
(519,692,o),
(535,636,o),
(506,607,cs),
(482,583,o),
(427,565,o),
(340,565,c),
(340,547,l)
);
}
);
width = 695;
},
{
associatedMasterId = "A22087AE-1668-478C-9B8B-D37A40788B8E";
layerId = "317243A3-FC0D-48E7-8EC1-C7ED43F6E41B";
name = "Apr 5 19, 16:18";
shapes = (
{
closed = 1;
nodes = (
(392,115,o),
(512,216,o),
(512,341,cs),
(512,470,o),
(392,565,o),
(245,565,cs),
(96,565,o),
(-23,464,o),
(-23,341,cs),
(-23,210,o),
(96,115,o),
(245,115,cs)
);
},
{
closed = 1;
nodes = (
(261,180,o),
(190,249,o),
(158,324,cs),
(125,402,o),
(127,474,o),
(172,489,cs),
(234,510,o),
(311,426,o),
(340,354,cs),
(368,285,o),
(369,217,o),
(322,201,cs)
);
},
{
closed = 1;
nodes = (
(335,515,o),
(483,509,o),
(494,587,cs),
(507,674,o),
(403,684,o),
(393,673,cs),
(386,665,o),
(399,621,o),
(376,598,cs),
(357,579,o),
(314,565,o),
(245,565,c),
(245,551,l)
);
},
{
closed = 1;
nodes = (
(54,147,o),
(-14,85,o),
(14,20,cs),
(42,-45,o),
(202,-53,o),
(342,-53,cs),
(416,-53,o),
(472,-67,o),
(472,-84,cs),
(472,-101,o),
(407,-132,o),
(317,-132,cs),
(227,-132,o),
(153,-75,o),
(119,-16,c),
(92,-4,l),
(68,-38,o),
(9,-182,o),
(68,-239,cs),
(127,-296,o),
(402,-261,o),
(514,-123,cs),
(626,15,o),
(616,149,o),
(567,176,cs),
(518,203,o),
(358,111,o),
(288,88,cs),
(218,65,o),
(126,53,o),
(104,78,cs),
(86,99,o),
(102,144,o),
(128,160,c),
(93,178,l)
);
}
);
width = 600;
},
{
associatedMasterId = "A22087AE-1668-478C-9B8B-D37A40788B8E";
layerId = "DE90BEFA-2E59-4027-B1BC-2D6A4B62431A";
name = "Apr 5 19, 16:22";
shapes = (
{
closed = 1;
nodes = (
(445,115,o),
(565,216,o),
(565,341,cs),
(565,470,o),
(445,565,o),
(298,565,cs),
(149,565,o),
(30,464,o),
(30,341,cs),
(30,210,o),
(149,115,o),
(298,115,cs)
);
},
{
closed = 1;
nodes = (
(314,180,o),
(243,249,o),
(211,324,cs),
(178,402,o),
(180,474,o),
(225,489,cs),
(287,510,o),
(364,426,o),
(393,354,cs),
(421,285,o),
(422,217,o),
(375,201,cs)
);
},
{
closed = 1;
nodes = (
(388,515,o),
(536,509,o),
(547,587,cs),
(560,674,o),
(456,684,o),
(446,673,cs),
(439,665,o),
(452,621,o),
(429,598,cs),
(410,579,o),
(367,565,o),
(298,565,c),
(298,551,l)
);
},
{
closed = 1;
nodes = (
(87,147,o),
(19,85,o),
(47,20,cs),
(75,-45,o),
(255,-63,o),
(395,-53,cs),
(489,-46,o),
(515,-66,o),
(515,-91,cs),
(515,-116,o),
(479,-162,o),
(390,-162,cs),
(299,-162,o),
(186,-113,o),
(162,-34,c),
(135,-22,l),
(61,-86,o),
(32,-182,o),
(91,-239,cs),
(150,-296,o),
(419,-292,o),
(547,-168,cs),
(669,-50,o),
(665,72,o),
(620,106,cs),
(571,143,o),
(476,124,o),
(341,68,cs),
(233,23,o),
(189,32,o),
(167,57,cs),
(149,78,o),
(163,131,o),
(211,160,c),
(126,178,l)
);
}
);
width = 679;
},
{
associatedMasterId = "A22087AE-1668-478C-9B8B-D37A40788B8E";
layerId = "E6DB01FC-29C2-48FD-B086-66772A868295";
name = "Apr 5 19, 16:25";
shapes = (
{
closed = 1;
nodes = (
(445,115,o),
(565,216,o),
(565,341,cs),
(565,470,o),
(445,565,o),
(298,565,cs),
(149,565,o),
(30,464,o),
(30,341,cs),
(30,210,o),
(149,115,o),
(298,115,cs)
);
},
{
closed = 1;
nodes = (
(314,180,o),
(243,249,o),
(211,324,cs),
(178,402,o),
(180,474,o),
(225,489,cs),
(287,510,o),
(364,426,o),
(393,354,cs),
(421,285,o),
(422,217,o),
(375,201,cs)
);
},
{
closed = 1;
nodes = (
(388,515,o),
(536,509,o),
(547,587,cs),
(560,674,o),
(456,684,o),
(446,673,cs),
(439,665,o),
(452,621,o),
(429,598,cs),
(410,579,o),
(367,565,o),
(298,565,c),
(298,551,l)
);
},
{
closed = 1;
nodes = (
(87,147,o),
(19,85,o),
(47,20,cs),
(75,-45,o),
(275,-53,o),
(415,-53,cs),
(468,-53,o),
(485,-58,o),
(485,-73,cs),
(485,-98,o),
(459,-136,o),
(380,-136,cs),
(329,-136,o),
(186,-103,o),
(132,-24,c),
(105,-12,l),
(51,-76,o),
(62,-231,o),
(131,-253,cs),
(201,-275,o),
(419,-256,o),
(547,-132,cs),
(669,-14,o),
(655,82,o),
(610,116,cs),
(561,153,o),
(486,104,o),
(351,58,cs),
(240,20,o),
(189,32,o),
(167,57,cs),
(149,78,o),
(163,131,o),
(211,160,c),
(126,178,l)
);
}
);
width = 679;
},
{
associatedMasterId = "A22087AE-1668-478C-9B8B-D37A40788B8E";
layerId = "47D5C534-9116-40F1-839B-ABA96235D55D";
name = "Apr 5 19, 16:27";
shapes = (
{
closed = 1;
nodes = (
(445,115,o),
(565,216,o),
(565,341,cs),
(565,470,o),
(445,565,o),
(298,565,cs),
(149,565,o),
(30,464,o),
(30,341,cs),
(30,210,o),
(149,115,o),
(298,115,cs)
);
},
{
closed = 1;
nodes = (
(314,180,o),
(243,249,o),
(211,324,cs),
(178,402,o),
(180,474,o),
(225,489,cs),
(287,510,o),
(364,426,o),
(393,354,cs),
(421,285,o),
(422,217,o),
(375,201,cs)
);
},
{
closed = 1;
nodes = (
(388,515,o),
(536,509,o),
(547,587,cs),
(560,674,o),
(456,684,o),
(446,673,cs),
(439,665,o),
(452,621,o),
(429,598,cs),
(410,579,o),
(367,565,o),
(298,565,c),
(298,551,l)
);
},
{
closed = 1;
nodes = (
(87,147,o),
(19,85,o),
(47,20,cs),
(75,-45,o),
(275,-53,o),
(415,-53,cs),
(468,-53,o),
(485,-58,o),
(485,-73,cs),
(485,-98,o),
(439,-139,o),
(360,-139,cs),
(289,-139,o),
(186,-103,o),
(132,-24,c),
(105,-12,l),
(51,-76,o),
(58,-231,o),
(101,-253,cs),
(150,-278,o),
(419,-256,o),
(547,-132,cs),
(669,-14,o),
(665,135,o),
(610,146,cs),
(574,153,o),
(486,104,o),
(351,58,cs),
(240,20,o),
(189,32,o),
(167,57,cs),
(149,78,o),
(163,131,o),
(211,160,c),
(126,178,l)
);
}
);
width = 657;
},
{
associatedMasterId = "A22087AE-1668-478C-9B8B-D37A40788B8E";
layerId = "51A7818F-73FC-45E5-8E8F-903DB1A53CD9";
name = "Apr 5 19, 16:29";
shapes = (
{
closed = 1;
nodes = (
(463,115,o),
(597,216,o),
(597,341,cs),
(597,470,o),
(463,565,o),
(298,565,cs),
(131,565,o),
(-2,464,o),
(-2,341,cs),
(-2,210,o),
(131,115,o),
(298,115,cs)
);
},
{
closed = 1;
nodes = (
(314,180,o),
(243,249,o),
(211,324,cs),
(178,402,o),
(180,474,o),
(225,489,cs),
(287,510,o),
(364,426,o),
(393,354,cs),
(421,285,o),
(422,217,o),
(375,201,cs)
);
},
{
closed = 1;
nodes = (
(412,502,o),
(600,494,o),
(614,593,cs),
(630,703,o),
(498,716,o),
(486,702,cs),
(477,692,o),
(493,636,o),
(464,607,cs),
(440,583,o),
(385,565,o),
(298,565,c),
(298,547,l)
);
},
{
closed = 1;
nodes = (
(94,174,o),
(84,163,o),
(68,149,cs),
(34,119,o),
(-6,70,o),
(18,20,cs),
(49,-45,o),
(238,-53,o),
(371,-53,cs),
(430,-53,o),
(440,-74,o),
(438,-93,cs),
(435,-118,o),
(398,-159,o),
(311,-159,cs),
(233,-159,o),
(161,-113,o),
(111,-24,c),
(82,-12,l),
(23,-76,o),
(-29,-204,o),
(65,-248,cs),
(150,-288,o),
(426,-256,o),
(566,-132,cs),
(675,-36,o),
(638,65,o),
(599,88,cs),
(556,113,o),
(499,114,o),
(351,58,cs),
(232,13,o),
(174,32,o),
(150,57,cs),
(136,72,o),
(140,103,o),
(157,119,cs),
(165,126,o),
(176,133,o),
(200,126,c),
(64,196,l)
);
}
);
width = 657;
},
{
associatedMasterId = "A22087AE-1668-478C-9B8B-D37A40788B8E";
layerId = "A36FFA18-8E82-470F-B90D-0257BF381D5B";
name = "Apr 5 19, 16:31";
shapes = (
{
closed = 1;
nodes = (
(463,115,o),
(597,216,o),
(597,341,cs),
(597,470,o),
(463,565,o),
(298,565,cs),
(131,565,o),
(-2,464,o),
(-2,341,cs),
(-2,210,o),
(131,115,o),
(298,115,cs)
);
},
{
closed = 1;
nodes = (
(314,180,o),
(243,249,o),
(211,324,cs),
(178,402,o),
(180,474,o),
(225,489,cs),
(287,510,o),
(364,426,o),
(393,354,cs),
(421,285,o),
(422,217,o),
(375,201,cs)
);
},
{
closed = 1;
nodes = (
(412,502,o),
(600,494,o),
(614,593,cs),
(630,703,o),
(498,716,o),
(486,702,cs),
(477,692,o),
(493,636,o),
(464,607,cs),
(440,583,o),
(385,565,o),
(298,565,c),
(298,547,l)
);
},
{
closed = 1;
nodes = (
(94,174,o),
(84,163,o),
(68,149,cs),
(34,119,o),
(-6,70,o),
(18,20,cs),
(49,-45,o),
(238,-53,o),
(371,-53,cs),
(430,-53,o),
(440,-74,o),
(438,-93,cs),
(435,-118,o),
(398,-159,o),
(311,-159,cs),
(233,-159,o),
(161,-113,o),
(111,-24,c),
(82,-12,l),
(23,-76,o),
(-29,-204,o),
(65,-248,cs),
(150,-288,o),
(426,-256,o),
(566,-132,cs),
(700,-14,o),
(645,125,o),
(585,136,cs),
(546,143,o),
(499,104,o),
(351,58,cs),
(230,20,o),
(174,32,o),
(150,57,cs),
(136,72,o),
(140,103,o),
(157,119,cs),
(165,126,o),
(176,133,o),
(200,126,c),
(64,196,l)
);
}
);
width = 657;
},
{
anchors = (
{
name = bottom;
pos = (343,-250);
},
{
name = top;
pos = (293,550);
}
);
associatedMasterId = "A22087AE-1668-478C-9B8B-D37A40788B8E";
layerId = "CE49CC56-BA30-4C0B-BE99-A4D7E740DE5B";
name = "Aug 18 19, 18:16";
shapes = (
{
closed = 1;
nodes = (
(495,115,o),
(629,216,o),
(629,341,cs),
(629,470,o),
(495,565,o),
(330,565,cs),
(163,565,o),
(30,464,o),
(30,341,cs),
(30,210,o),
(163,115,o),
(330,115,cs)
);
},
{
closed = 1;
nodes = (
(346,180,o),
(275,249,o),
(243,324,cs),
(210,402,o),
(212,474,o),
(257,489,cs),
(319,510,o),
(396,426,o),
(425,354,cs),
(453,285,o),
(454,217,o),
(407,201,cs)
);
},
{
closed = 1;
nodes = (
(444,502,o),
(632,494,o),
(646,593,cs),
(662,703,o),
(530,716,o),
(518,702,cs),
(509,692,o),
(525,636,o),
(496,607,cs),
(472,583,o),
(417,565,o),
(330,565,c),
(330,547,l)
);
},
{
closed = 1;
nodes = (
(126,174,o),
(116,163,o),
(100,149,cs),
(66,119,o),
(26,70,o),
(50,20,cs),
(125,-134,o),
(300,-93,o),
(453,-53,cs),
(510,-38,o),
(530,-51,o),
(530,-76,cs),
(530,-101,o),
(480,-162,o),
(383,-163,cs),
(285,-164,o),
(203,-133,o),
(143,-64,c),
(114,-52,l),
(35,-96,o),
(3,-204,o),
(97,-248,cs),
(182,-288,o),
(428,-276,o),
(568,-152,cs),
(702,-34,o),
(687,85,o),
(647,106,cs),
(612,124,o),
(531,104,o),
(383,58,cs),
(262,20,o),
(206,32,o),
(182,57,cs),
(168,72,o),
(172,103,o),
(189,119,cs),
(197,126,o),
(208,133,o),
(232,126,c),
(96,196,l)
);
}
);
width = 685;
}
);
unicode = 103;
},
{
color = 4;
glyphname = h;
kernLeft = h;
kernRight = h;
lastChange = "2019-12-04 10:07:11 +0000";
layers = (
{
background = {
shapes = (
{
closed = 1;
nodes = (
(299,165,o),
(293,269,o),
(293,353,cs),
(293,450,ls),
(293,534,o),
(299,638,o),
(324,671,cs),
(365,725,o),
(391,727,o),
(391,760,cs),
(391,790,o),
(367,808,o),
(330,808,cs),
(289,808,o),
(263,800,o),
(220,800,cs),
(178,800,o),
(140,808,o),
(110,808,cs),
(73,808,o),
(49,790,o),
(49,760,cs),
(49,727,o),
(75,725,o),
(116,671,cs),
(141,638,o),
(147,534,o),
(147,450,cs),
(147,353,ls),
(147,269,o),
(141,165,o),
(116,132,cs),
(75,78,o),
(39,86,o),
(39,39,cs),
(39,13,o),
(63,-5,o),
(100,-5,cs),
(151,-5,o),
(178,3,o),
(220,3,cs),
(263,3,o),
(300,-5,o),
(340,-5,cs),
(377,-5,o),
(401,13,o),
(401,39,cs),
(401,86,o),
(365,78,o),
(324,132,cs)
);
}
);
};
layerId = "A22087AE-1668-478C-9B8B-D37A40788B8E";
shapes = (
{
closed = 1;
nodes = (
(161,-8,o),
(178,0,o),
(220,0,cs),
(263,0,o),
(280,-8,o),
(310,-8,cs),
(337,-8,o),
(359,10,o),
(361,36,cs),
(363,61,o),
(346,90,o),
(324,129,cs),
(265,234,o),
(275,393,o),
(381,438,cs),
(488,483,o),
(579,357,o),
(534,226,cs),
(488,93,o),
(427,83,o),
(429,36,cs),
(430,11,o),
(443,-8,o),
(480,-8,cs),
(521,-8,o),
(528,0,o),
(570,0,cs),
(613,0,o),
(655,-8,o),
(695,-8,cs),
(732,-8,o),
(753,10,o),
(756,36,cs),
(759,65,o),
(752,79,o),
(722,109,cs),
(679,152,o),
(672,187,o),
(692,333,cs),
(714,491,o),
(639,570,o),
(517,570,cs),
(417,570,o),
(340,525,o),
(293,438,c),
(293,470,ls),
(293,544,o),
(293,656,o),
(309,717,cs),
(319,755,o),
(326,782,o),
(306,809,cs),
(288,833,o),
(258,833,o),
(228,810,cs),
(196,786,o),
(178,756,o),
(143,730,cs),
(109,705,o),
(83,694,o),
(59,676,cs),
(38,660,o),
(28,638,o),
(41,616,cs),
(57,589,o),
(76,594,o),
(103,580,cs),
(147,558,o),
(147,504,o),
(147,420,cs),
(147,323,ls),
(147,236,o),
(141,162,o),
(116,129,cs),
(80,81,o),
(49,83,o),
(49,36,cs),
(49,10,o),
(73,-8,o),
(110,-8,cs)
);
}
);
width = 792;
},
{
associatedMasterId = "A22087AE-1668-478C-9B8B-D37A40788B8E";
background = {
shapes = (
{
closed = 1;
nodes = (
(340,165,o),
(334,269,o),
(334,353,cs),
(334,450,ls),
(334,534,o),
(340,638,o),
(365,671,cs),
(406,725,o),
(432,727,o),
(432,760,cs),
(432,790,o),
(408,808,o),
(371,808,cs),
(330,808,o),
(304,800,o),
(261,800,cs),
(219,800,o),
(181,808,o),
(151,808,cs),
(114,808,o),
(90,790,o),
(90,760,cs),
(90,727,o),
(116,725,o),
(157,671,cs),
(182,638,o),
(188,534,o),
(188,450,cs),
(188,353,ls),
(188,269,o),
(182,165,o),
(157,132,cs),
(116,78,o),
(80,86,o),
(80,39,cs),
(80,13,o),
(104,-5,o),
(141,-5,cs),
(192,-5,o),
(219,3,o),
(261,3,cs),
(304,3,o),
(341,-5,o),
(381,-5,cs),
(418,-5,o),
(442,13,o),
(442,39,cs),
(442,86,o),
(406,78,o),
(365,132,cs)
);
}
);
};
layerId = "6499F4E5-F893-48EE-966B-4F53B39AD967";
name = "Mar 29 19, 15:26";
shapes = (
{
closed = 1;
nodes = (
(344,168,o),
(334,239,o),
(334,323,cs),
(334,420,ls),
(334,504,o),
(334,646,o),
(350,707,cs),
(360,745,o),
(367,772,o),
(347,799,cs),
(329,823,o),
(299,823,o),
(269,800,cs),
(237,776,o),
(211,754,o),
(176,728,cs),
(142,703,o),
(108,686,o),
(84,668,cs),
(54,645,o),
(46,617,o),
(64,593,cs),
(84,566,o),
(106,580,o),
(144,570,cs),
(183,559,o),
(188,504,o),
(188,420,cs),
(188,323,ls),
(188,239,o),
(182,165,o),
(157,132,cs),
(116,78,o),
(80,86,o),
(80,39,cs),
(80,13,o),
(104,-5,o),
(141,-5,cs),
(192,-5,o),
(219,3,o),
(261,3,cs),
(304,3,o),
(341,-5,o),
(371,-5,cs),
(398,-5,o),
(412,13,o),
(412,39,cs),
(412,66,o),
(387,93,o),
(365,132,cs)
);
},
{
closed = 1;
nodes = (
(768,165,o),
(752,239,o),
(762,323,cs),
(780,471,o),
(680,550,o),
(558,550,cs),
(447,550,o),
(365,495,o),
(320,389,c),
(334,296,l),
(335,347,o),
(363,393,o),
(422,418,cs),
(529,463,o),
(659,340,o),
(593,166,cs),
(567,97,o),
(510,66,o),
(510,39,cs),
(510,13,o),
(514,-5,o),
(551,-5,cs),
(602,-5,o),
(629,3,o),
(671,3,cs),
(714,3,o),
(751,-5,o),
(791,-5,cs),
(828,-5,o),
(852,13,o),
(852,39,cs),
(852,86,o),
(834,78,o),
(793,132,cs)
);
}
);
width = 600;
},
{
associatedMasterId = "A22087AE-1668-478C-9B8B-D37A40788B8E";
background = {
shapes = (
{
closed = 1;
nodes = (
(340,165,o),
(334,269,o),
(334,353,cs),
(334,450,ls),
(334,534,o),
(340,638,o),
(365,671,cs),
(406,725,o),
(432,727,o),
(432,760,cs),
(432,790,o),
(408,808,o),
(371,808,cs),
(330,808,o),
(304,800,o),
(261,800,cs),
(219,800,o),
(181,808,o),
(151,808,cs),
(114,808,o),
(90,790,o),
(90,760,cs),
(90,727,o),
(116,725,o),
(157,671,cs),
(182,638,o),
(188,534,o),
(188,450,cs),
(188,353,ls),
(188,269,o),
(182,165,o),
(157,132,cs),
(116,78,o),
(80,86,o),
(80,39,cs),
(80,13,o),
(104,-5,o),
(141,-5,cs),
(192,-5,o),
(219,3,o),
(261,3,cs),
(304,3,o),
(341,-5,o),
(381,-5,cs),
(418,-5,o),
(442,13,o),
(442,39,cs),
(442,86,o),
(406,78,o),
(365,132,cs)
);
}
);
};
layerId = "4B2949F2-4C90-4DBE-9D6E-E3CAC98990EB";
name = "Mar 29 19, 15:27";
shapes = (
{
closed = 1;
nodes = (
(768,165,o),
(752,279,o),
(762,363,cs),
(780,511,o),
(680,590,o),
(558,590,cs),
(458,590,o),
(381,545,o),
(334,458,c),
(334,490,ls),
(334,564,o),
(334,706,o),
(350,767,cs),
(360,805,o),
(367,832,o),
(347,859,cs),
(329,883,o),
(299,883,o),
(269,860,cs),
(237,836,o),
(211,814,o),
(176,788,cs),
(142,763,o),
(108,746,o),
(84,728,cs),
(54,705,o),
(46,677,o),
(64,653,cs),
(84,626,o),
(106,640,o),
(144,630,cs),
(183,620,o),
(188,504,o),
(188,420,cs),
(188,323,ls),
(188,239,o),
(182,165,o),
(157,132,cs),
(116,78,o),
(80,86,o),
(80,39,cs),
(80,13,o),
(104,-5,o),
(141,-5,cs),
(192,-5,o),
(219,3,o),
(261,3,cs),
(304,3,o),
(341,-5,o),
(371,-5,cs),
(398,-5,o),
(412,13,o),
(412,39,cs),
(412,66,o),
(387,93,o),
(365,132,cs),
(309,229,o),
(316,413,o),
(422,458,cs),
(529,503,o),
(659,380,o),
(593,166,cs),
(571,96,o),
(510,66,o),
(510,39,cs),
(510,13,o),
(514,-5,o),
(551,-5,cs),
(602,-5,o),
(629,3,o),
(671,3,cs),
(714,3,o),
(751,-5,o),
(791,-5,cs),
(828,-5,o),
(852,13,o),
(852,39,cs),
(852,86,o),
(834,78,o),
(793,132,cs)
);
}
);
width = 600;
},
{
associatedMasterId = "A22087AE-1668-478C-9B8B-D37A40788B8E";
background = {
shapes = (
{
closed = 1;
nodes = (
(340,165,o),
(334,269,o),
(334,353,cs),
(334,450,ls),
(334,534,o),
(340,638,o),
(365,671,cs),
(406,725,o),
(432,727,o),
(432,760,cs),
(432,790,o),
(408,808,o),
(371,808,cs),
(330,808,o),
(304,800,o),
(261,800,cs),
(219,800,o),
(181,808,o),
(151,808,cs),
(114,808,o),
(90,790,o),
(90,760,cs),
(90,727,o),
(116,725,o),
(157,671,cs),
(182,638,o),
(188,534,o),
(188,450,cs),
(188,353,ls),
(188,269,o),
(182,165,o),
(157,132,cs),
(116,78,o),
(80,86,o),
(80,39,cs),
(80,13,o),
(104,-5,o),
(141,-5,cs),
(192,-5,o),
(219,3,o),
(261,3,cs),
(304,3,o),
(341,-5,o),
(381,-5,cs),
(418,-5,o),
(442,13,o),
(442,39,cs),
(442,86,o),
(406,78,o),
(365,132,cs)
);
}
);
};
layerId = "62B45548-C4B1-4944-86C7-BC31D77BD355";
name = "Mar 29 19, 15:32";
shapes = (
{
closed = 1;
nodes = (
(738,165,o),
(717,200,o),
(736,353,cs),
(754,500,o),
(680,570,o),
(558,570,cs),
(458,570,o),
(381,525,o),
(334,438,c),
(334,470,ls),
(334,544,o),
(334,656,o),
(350,717,cs),
(360,755,o),
(367,782,o),
(347,809,cs),
(329,833,o),
(299,833,o),
(269,810,cs),
(237,786,o),
(211,764,o),
(176,738,cs),
(142,713,o),
(108,696,o),
(84,678,cs),
(63,662,o),
(49,638,o),
(62,616,cs),
(78,589,o),
(117,594,o),
(144,580,cs),
(188,558,o),
(188,504,o),
(188,420,cs),
(188,323,ls),
(188,239,o),
(182,165,o),
(157,132,cs),
(116,78,o),
(80,86,o),
(80,39,cs),
(80,13,o),
(104,-5,o),
(141,-5,cs),
(192,-5,o),
(219,3,o),
(261,3,cs),
(304,3,o),
(341,-5,o),
(371,-5,cs),
(398,-5,o),
(412,13,o),
(412,39,cs),
(412,66,o),
(387,93,o),
(365,132,cs),
(309,229,o),
(316,393,o),
(422,438,cs),
(529,483,o),
(630,360,o),
(563,166,cs),
(539,96,o),
(480,66,o),
(480,39,cs),
(480,13,o),
(484,-5,o),
(521,-5,cs),
(572,-5,o),
(599,3,o),
(641,3,cs),
(684,3,o),
(721,-5,o),
(761,-5,cs),
(798,-5,o),
(819,13,o),
(822,39,cs),
(826,68,o),
(804,78,o),
(763,132,cs)
);
}
);
width = 600;
},
{
associatedMasterId = "A22087AE-1668-478C-9B8B-D37A40788B8E";
background = {
shapes = (
{
closed = 1;
nodes = (
(340,165,o),
(334,269,o),
(334,353,cs),
(334,450,ls),
(334,534,o),
(340,638,o),
(365,671,cs),
(406,725,o),
(432,727,o),
(432,760,cs),
(432,790,o),
(408,808,o),
(371,808,cs),
(330,808,o),
(304,800,o),
(261,800,cs),
(219,800,o),
(181,808,o),
(151,808,cs),
(114,808,o),
(90,790,o),
(90,760,cs),
(90,727,o),
(116,725,o),
(157,671,cs),
(182,638,o),
(188,534,o),
(188,450,cs),
(188,353,ls),
(188,269,o),
(182,165,o),
(157,132,cs),
(116,78,o),
(80,86,o),
(80,39,cs),
(80,13,o),
(104,-5,o),
(141,-5,cs),
(192,-5,o),
(219,3,o),
(261,3,cs),
(304,3,o),
(341,-5,o),
(381,-5,cs),
(418,-5,o),
(442,13,o),
(442,39,cs),
(442,86,o),
(406,78,o),
(365,132,cs)
);
}
);
};
layerId = "D2BBCCDB-EA92-44D0-9F1D-FDF2ED37FDCA";
name = "Mar 29 19, 15:36";
shapes = (
{
closed = 1;
nodes = (
(708,165,o),
(692,200,o),
(711,353,cs),
(729,500,o),
(680,570,o),
(558,570,cs),
(458,570,o),
(381,525,o),
(334,438,c),
(334,470,ls),
(334,544,o),
(334,656,o),
(350,717,cs),
(360,755,o),
(367,782,o),
(347,809,cs),
(329,833,o),
(299,833,o),
(269,810,cs),
(237,786,o),
(219,756,o),
(184,730,cs),
(150,705,o),
(124,694,o),
(100,676,cs),
(79,660,o),
(69,638,o),
(82,616,cs),
(98,589,o),
(117,594,o),
(144,580,cs),
(188,558,o),
(188,504,o),
(188,420,cs),
(188,323,ls),
(188,239,o),
(182,165,o),
(157,132,cs),
(121,84,o),
(90,86,o),
(90,39,cs),
(90,13,o),
(114,-5,o),
(151,-5,cs),
(202,-5,o),
(219,3,o),
(261,3,cs),
(304,3,o),
(321,-5,o),
(351,-5,cs),
(378,-5,o),
(400,13,o),
(402,39,cs),
(404,64,o),
(387,93,o),
(365,132,cs),
(306,237,o),
(316,393,o),
(422,438,cs),
(529,483,o),
(600,360,o),
(533,166,cs),
(509,96,o),
(468,86,o),
(470,39,cs),
(471,14,o),
(484,-5,o),
(521,-5,cs),
(562,-5,o),
(569,3,o),
(611,3,cs),
(654,3,o),
(681,-5,o),
(721,-5,cs),
(758,-5,o),
(779,13,o),
(782,39,cs),
(785,68,o),
(774,78,o),
(733,132,cs)
);
}
);
width = 879;
}
);
unicode = 104;
},
{
glyphname = hbar;
kernLeft = h;
kernRight = h;
lastChange = "2019-12-04 10:07:11 +0000";
layers = (
{
anchors = (
{
name = _top;
pos = (214,362);
},
{
name = top;
pos = (214,627);
}
);
layerId = "A22087AE-1668-478C-9B8B-D37A40788B8E";
shapes = (
{
closed = 1;
nodes = (
(161,-8,o),
(178,0,o),
(220,0,cs),
(263,0,o),
(280,-8,o),
(310,-8,cs),
(337,-8,o),
(359,10,o),
(361,36,cs),
(363,61,o),
(346,90,o),
(324,129,cs),
(265,234,o),
(275,393,o),
(381,438,cs),
(488,483,o),
(579,357,o),
(534,226,cs),
(488,93,o),
(427,83,o),
(429,36,cs),
(430,11,o),
(443,-8,o),
(480,-8,cs),
(521,-8,o),
(528,0,o),
(570,0,cs),
(613,0,o),
(655,-8,o),
(695,-8,cs),
(732,-8,o),
(753,10,o),
(756,36,cs),
(759,65,o),
(752,79,o),
(722,109,cs),
(679,152,o),
(672,187,o),
(692,333,cs),
(714,491,o),
(639,570,o),
(517,570,cs),
(417,570,o),
(340,525,o),
(293,438,c),
(293,470,ls),
(293,544,o),
(293,656,o),
(309,717,cs),
(319,755,o),
(326,782,o),
(306,809,cs),
(288,833,o),
(258,833,o),
(228,810,cs),
(196,786,o),
(183,778,o),
(143,760,cs),
(109,745,o),
(83,744,o),
(59,726,cs),
(38,710,o),
(28,688,o),
(41,666,cs),
(56,640,o),
(76,640,o),
(112,627,cs),
(150,613,o),
(147,504,o),
(147,420,cs),
(147,323,ls),
(147,236,o),
(141,162,o),
(116,129,cs),
(80,81,o),
(49,83,o),
(49,36,cs),
(49,10,o),
(73,-8,o),
(110,-8,cs)
);
},
{
closed = 1;
nodes = (
(165,486,o),
(204,503,o),
(275,527,cs),
(347,551,o),
(391,558,o),
(453,580,cs),
(484,591,o),
(496,615,o),
(487,645,cs),
(479,672,o),
(453,683,o),
(423,673,cs),
(361,652,o),
(320,634,o),
(248,610,cs),
(176,586,o),
(135,579,o),
(73,558,cs),
(43,548,o),
(30,522,o),
(39,496,cs),
(49,467,o),
(73,454,o),
(105,465,cs)
);
}
);
width = 792;
},
{
anchors = (
{
name = _top;
pos = (214,362);
},
{
name = top;
pos = (214,627);
}
);
associatedMasterId = "A22087AE-1668-478C-9B8B-D37A40788B8E";
layerId = "70643A2C-8873-48EB-AFD9-7619AFF532ED";
name = "Jul 11 19, 12:52";
shapes = (
{
closed = 1;
nodes = (
(49,558,o),
(41,532,o),
(53,503,cs),
(66,473,o),
(83,455,o),
(104,463,cs),
(148,480,o),
(175,493,o),
(226,509,cs),
(278,525,o),
(320,532,o),
(364,548,cs),
(386,556,o),
(392,580,o),
(381,611,cs),
(370,642,o),
(352,657,o),
(330,650,cs),
(284,635,o),
(247,617,o),
(196,600,cs),
(145,583,o),
(114,578,o),
(69,564,cs)
);
},
{
closed = 1;
nodes = (
(679,152,o),
(672,187,o),
(692,333,cs),
(714,491,o),
(639,570,o),
(517,570,cs),
(417,570,o),
(340,525,o),
(293,438,c),
(293,470,ls),
(293,544,o),
(293,656,o),
(309,717,cs),
(319,755,o),
(326,782,o),
(306,809,cs),
(288,833,o),
(258,833,o),
(228,810,cs),
(196,786,o),
(183,778,o),
(143,760,cs),
(109,745,o),
(83,744,o),
(59,726,cs),
(38,710,o),
(28,688,o),
(41,666,cs),
(56,640,o),
(76,640,o),
(112,627,cs),
(150,613,o),
(147,504,o),
(147,420,cs),
(147,323,ls),
(147,236,o),
(141,162,o),
(116,129,cs),
(80,81,o),
(49,83,o),
(49,36,cs),
(49,10,o),
(73,-8,o),
(110,-8,cs),
(161,-8,o),
(178,0,o),
(220,0,cs),
(263,0,o),
(280,-8,o),
(310,-8,cs),
(337,-8,o),
(359,10,o),
(361,36,cs),
(363,61,o),
(346,90,o),
(324,129,cs),
(265,234,o),
(275,393,o),
(381,438,cs),
(488,483,o),
(579,357,o),
(534,226,cs),
(488,93,o),
(427,83,o),
(429,36,cs),
(430,11,o),
(443,-8,o),
(480,-8,cs),
(521,-8,o),
(528,0,o),
(570,0,cs),
(613,0,o),
(655,-8,o),
(695,-8,cs),
(732,-8,o),
(753,10,o),
(756,36,cs),
(759,65,o),
(752,79,o),
(722,109,cs)
);
}
);
width = 792;
}
);
unicode = 295;
},
{
color = 4;
glyphname = i;
kernLeft = i;
kernRight = i;
lastChange = "2019-10-23 14:04:01 +0000";
layers = (
{
background = {
shapes = (
{
closed = 1;
nodes = (
(304,288,cs),
(304,400,o),
(379,491,o),
(341,544,cs),
(303,597,o),
(274,579,o),
(204,536,cs),
(131,492,o),
(94,494,o),
(70,476,cs),
(49,460,o),
(39,438,o),
(52,416,cs),
(80,369,o),
(158,367,o),
(158,283,cs),
(158,199,o),
(152,162,o),
(127,129,cs),
(91,81,o),
(60,86,o),
(60,39,cs),
(60,13,o),
(84,-8,o),
(121,-8,cs),
(172,-8,o),
(189,0,o),
(231,0,cs),
(274,0,o),
(291,-8,o),
(321,-8,cs),
(348,-8,o),
(370,10,o),
(372,36,cs),
(374,61,o),
(357,90,o),
(335,129,cs),
(315,165,o),
(304,198,o)
);
}
);
};
layerId = "A22087AE-1668-478C-9B8B-D37A40788B8E";
shapes = (
{
ref = idotless;
},
{
pos = (60,645);
ref = period;
scale = (0.9573,0.9573);
}
);
width = 439;
},
{
annotations = (
{
pos = (323.169,391.276);
type = Text;
}
);
associatedMasterId = "A22087AE-1668-478C-9B8B-D37A40788B8E";
background = {
shapes = (
{
closed = 1;
nodes = (
(298,288,cs),
(298,400,o),
(373,491,o),
(335,544,cs),
(297,597,o),
(268,579,o),
(198,536,cs),
(125,492,o),
(88,494,o),
(64,476,cs),
(43,460,o),
(33,438,o),
(46,416,cs),
(74,369,o),
(152,367,o),
(152,283,cs),
(152,199,o),
(146,162,o),
(121,129,cs),
(85,81,o),
(54,86,o),
(54,39,cs),
(54,13,o),
(78,-8,o),
(115,-8,cs),
(166,-8,o),
(183,0,o),
(225,0,cs),
(268,0,o),
(285,-8,o),
(315,-8,cs),
(342,-8,o),
(364,10,o),
(366,36,cs),
(368,61,o),
(351,90,o),
(329,129,cs),
(309,165,o),
(298,198,o)
);
}
);
};
layerId = "4EB54008-87E7-464F-9FF4-7A0CAE04F423";
name = "Mar 29 19, 16:03";
shapes = (
{
closed = 1;
nodes = (
(298,288,cs),
(298,348,o),
(312,396,o),
(339,436,cs),
(360,468,o),
(363,499,o),
(345,524,cs),
(326,551,o),
(298,559,o),
(218,526,cs),
(139,494,o),
(98,494,o),
(74,476,cs),
(53,460,o),
(43,438,o),
(56,416,cs),
(84,369,o),
(152,367,o),
(152,263,cs),
(152,199,o),
(146,162,o),
(121,129,cs),
(85,81,o),
(34,86,o),
(34,39,cs),
(34,13,o),
(58,-8,o),
(95,-8,cs),
(146,-8,o),
(183,0,o),
(225,0,cs),
(268,0,o),
(305,-8,o),
(335,-8,cs),
(365,-8,o),
(392,10,o),
(393,43,cs),
(395,81,o),
(355,95,o),
(329,129,cs),
(303,163,o),
(298,198,o)
);
}
);
width = 600;
},
{
annotations = (
{
pos = (323.169,391.276);
type = Text;
}
);
associatedMasterId = "A22087AE-1668-478C-9B8B-D37A40788B8E";
background = {
shapes = (
{
closed = 1;
nodes = (
(298,288,cs),
(298,400,o),
(373,491,o),
(335,544,cs),
(297,597,o),
(268,579,o),
(198,536,cs),
(125,492,o),
(88,494,o),
(64,476,cs),
(43,460,o),
(33,438,o),
(46,416,cs),
(74,369,o),
(152,367,o),
(152,283,cs),
(152,199,o),
(146,162,o),
(121,129,cs),
(85,81,o),
(54,86,o),
(54,39,cs),
(54,13,o),
(78,-8,o),
(115,-8,cs),
(166,-8,o),
(183,0,o),
(225,0,cs),
(268,0,o),
(285,-8,o),
(315,-8,cs),
(342,-8,o),
(364,10,o),
(366,36,cs),
(368,61,o),
(351,90,o),
(329,129,cs),
(309,165,o),
(298,198,o)
);
}
);
};
layerId = "22857114-61BA-47F5-B771-5A619B995C3D";
name = "Mar 29 19, 16:05";
shapes = (
{
closed = 1;
nodes = (
(298,288,cs),
(298,374,o),
(313,422,o),
(339,462,cs),
(360,494,o),
(363,525,o),
(345,550,cs),
(326,577,o),
(298,585,o),
(218,552,cs),
(139,519,o),
(98,520,o),
(74,502,cs),
(53,486,o),
(43,464,o),
(56,442,cs),
(84,395,o),
(152,393,o),
(152,263,cs),
(152,199,o),
(146,162,o),
(121,129,cs),
(85,81,o),
(34,86,o),
(34,39,cs),
(34,13,o),
(58,-8,o),
(95,-8,cs),
(146,-8,o),
(183,0,o),
(225,0,cs),
(268,0,o),
(305,-8,o),
(335,-8,cs),
(365,-8,o),
(392,10,o),
(393,43,cs),
(395,81,o),
(355,95,o),
(329,129,cs),
(303,163,o),
(298,198,o)
);
},
{
pos = (46,645);
ref = period;
scale = (0.9573,0.9573);
}
);
width = 600;
}
);
unicode = 105;
},
{
glyphname = idotless;
kernLeft = i;
kernRight = i;
lastChange = "2019-12-04 10:07:11 +0000";
layers = (
{
anchors = (
{
name = bottom;
pos = (220,0);
},
{
name = ogonek;
pos = (395,10);
},
{
name = top;
pos = (220,550);
}
);
layerId = "A22087AE-1668-478C-9B8B-D37A40788B8E";
shapes = (
{
closed = 1;
nodes = (
(152,-8,o),
(189,0,o),
(231,0,cs),
(274,0,o),
(311,-8,o),
(341,-8,cs),
(371,-8,o),
(398,10,o),
(399,43,cs),
(401,81,o),
(361,95,o),
(335,129,cs),
(309,163,o),
(304,198,o),
(304,288,cs),
(304,364,o),
(313,392,o),
(323,432,cs),
(332,470,o),
(344,519,o),
(316,545,cs),
(292,567,o),
(264,564,o),
(194,522,cs),
(149,495,o),
(104,480,o),
(80,462,cs),
(59,446,o),
(49,424,o),
(62,402,cs),
(90,355,o),
(158,383,o),
(158,263,cs),
(158,199,o),
(152,162,o),
(127,129,cs),
(91,81,o),
(40,86,o),
(40,39,cs),
(40,13,o),
(64,-8,o),
(101,-8,cs)
);
}
);
width = 439;
}
);
unicode = 305;
},
{
glyphname = iogonek;
kernLeft = i;
kernRight = i;
lastChange = "2019-12-04 10:07:11 +0000";
layers = (
{
layerId = "A22087AE-1668-478C-9B8B-D37A40788B8E";
shapes = (
{
closed = 1;
nodes = (
(263,-220,o),
(324,-172,o),
(346,-147,cs),
(353,-139,o),
(359,-131,o),
(356,-127,cs),
(352,-121,o),
(343,-121,o),
(330,-124,cs),
(305,-130,o),
(282,-132,o),
(263,-128,cs),
(233,-122,o),
(217,-99,o),
(223,-74,cs),
(231,-41,o),
(277,-10,o),
(341,-8,c),
(249,19,l),
(185,-7,o),
(135,-39,o),
(122,-97,cs),
(112,-142,o),
(138,-193,o),
(194,-205,cs)
);
},
{
ref = idotless;
},
{
pos = (42,645);
ref = period;
scale = (0.9573,0.9573);
}
);
width = 439;
}
);
unicode = 303;
},
{
color = 4;
glyphname = j;
kernLeft = j;
kernRight = j;
lastChange = "2019-12-04 10:07:11 +0000";
layers = (
{
layerId = "A22087AE-1668-478C-9B8B-D37A40788B8E";
shapes = (
{
closed = 1;
nodes = (
(177,-208,o),
(312,-98,o),
(315,-48,cs),
(318,-5,o),
(294,28,o),
(294,208,cs),
(294,364,o),
(303,392,o),
(313,432,cs),
(322,470,o),
(334,519,o),
(306,545,cs),
(282,567,o),
(254,564,o),
(184,522,cs),
(139,495,o),
(94,480,o),
(70,462,cs),
(49,446,o),
(39,424,o),
(52,402,cs),
(80,355,o),
(148,383,o),
(148,123,cs),
(148,-21,o),
(105,-91,o),
(77,-121,cs),
(41,-159,o),
(0,-174,o),
(0,-221,cs),
(0,-247,o),
(37,-274,o),
(71,-258,cs)
);
},
{
pos = (42,645);
ref = period;
scale = (0.9573,0.9573);
}
);
width = 403;
}
);
unicode = 106;
},
{
color = 4;
glyphname = k;
kernLeft = k;
kernRight = k;
lastChange = "2019-12-04 10:07:11 +0000";
layers = (
{
anchors = (
{
name = bottom;
pos = (458,0);
},
{
name = top;
pos = (377,800);
}
);
layerId = "A22087AE-1668-478C-9B8B-D37A40788B8E";
shapes = (
{
closed = 1;
nodes = (
(142,-5,o),
(169,3,o),
(211,3,cs),
(254,3,o),
(291,-5,o),
(331,-5,cs),
(368,-5,o),
(392,13,o),
(392,39,cs),
(392,86,o),
(356,78,o),
(315,132,cs),
(290,165,o),
(284,240,o),
(284,324,cs),
(284,448,ls),
(284,633,o),
(292,661,o),
(302,701,cs),
(311,739,o),
(323,788,o),
(295,814,cs),
(271,836,o),
(243,833,o),
(173,791,cs),
(128,764,o),
(83,749,o),
(59,731,cs),
(38,715,o),
(28,693,o),
(41,671,cs),
(69,624,o),
(138,652,o),
(138,443,cs),
(138,324,ls),
(138,240,o),
(132,165,o),
(107,132,cs),
(66,78,o),
(30,86,o),
(30,39,cs),
(30,13,o),
(54,-5,o),
(91,-5,cs)
);
},
{
closed = 1;
nodes = (
(718,-15,o),
(763,3,o),
(763,32,cs),
(763,64,o),
(740,59,o),
(691,97,cs),
(652,127,o),
(597,179,o),
(564,231,cs),
(481,360,l),
(361,281,l),
(389,237,o),
(459,115,o),
(486,80,cs),
(539,12,o),
(580,-15,o),
(669,-15,cs)
);
},
{
closed = 1;
nodes = (
(263,212,o),
(337,246,o),
(375,273,cs),
(465,337,ls),
(516,373,o),
(605,426,o),
(642,449,cs),
(687,477,o),
(715,481,o),
(718,514,cs),
(720,536,o),
(704,558,o),
(667,558,cs),
(627,558,o),
(603,550,o),
(560,550,cs),
(518,550,o),
(470,558,o),
(440,558,cs),
(412,558,o),
(389,536,o),
(389,514,cs),
(389,472,o),
(442,482,o),
(450,448,cs),
(458,415,o),
(387,367,o),
(349,346,cs),
(322,332,o),
(308,325,o),
(298,329,cs),
(287,333,o),
(284,343,o),
(284,371,c),
(246,197,l),
(315,132,l)
);
}
);
width = 753;
}
);
unicode = 107;
},
{
color = 4;
glyphname = l;
kernLeft = l;
kernRight = l;
lastChange = "2019-12-04 10:07:11 +0000";
layers = (
{
anchors = (
{
name = bottom;
pos = (214,-10);
},
{
name = center;
pos = (214,400);
},
{
name = top;
pos = (214,800);
},
{
name = topright;
pos = (407,800);
}
);
background = {
shapes = (
{
closed = 1;
nodes = (
(674,152,o),
(667,187,o),
(687,333,cs),
(709,491,o),
(634,570,o),
(512,570,cs),
(412,570,o),
(335,525,o),
(288,438,c),
(288,470,ls),
(288,544,o),
(288,656,o),
(304,717,cs),
(314,755,o),
(321,782,o),
(301,809,cs),
(283,833,o),
(253,833,o),
(223,810,cs),
(191,786,o),
(173,756,o),
(138,730,cs),
(104,705,o),
(78,694,o),
(54,676,cs),
(33,660,o),
(23,638,o),
(36,616,cs),
(52,589,o),
(71,594,o),
(98,580,cs),
(142,558,o),
(142,504,o),
(142,420,cs),
(142,323,ls),
(142,236,o),
(136,162,o),
(111,129,cs),
(75,81,o),
(44,83,o),
(44,36,cs),
(44,10,o),
(68,-8,o),
(105,-8,cs),
(156,-8,o),
(173,0,o),
(215,0,cs),
(258,0,o),
(275,-8,o),
(305,-8,cs),
(332,-8,o),
(354,10,o),
(356,36,cs),
(358,61,o),
(341,90,o),
(319,129,cs),
(260,234,o),
(270,393,o),
(376,438,cs),
(483,483,o),
(574,357,o),
(529,226,cs),
(483,93,o),
(422,83,o),
(424,36,cs),
(425,11,o),
(438,-8,o),
(475,-8,cs),
(516,-8,o),
(523,0,o),
(565,0,cs),
(608,0,o),
(650,-8,o),
(690,-8,cs),
(727,-8,o),
(748,10,o),
(751,36,cs),
(754,65,o),
(747,79,o),
(717,109,cs)
);
}
);
};
layerId = "A22087AE-1668-478C-9B8B-D37A40788B8E";
shapes = (
{
closed = 1;
nodes = (
(147,-5,o),
(174,3,o),
(216,3,cs),
(259,3,o),
(296,-5,o),
(336,-5,cs),
(373,-5,o),
(397,13,o),
(397,39,cs),
(397,86,o),
(361,78,o),
(320,132,cs),
(295,165,o),
(289,240,o),
(289,324,cs),
(289,448,ls),
(289,633,o),
(297,661,o),
(307,701,cs),
(316,739,o),
(328,788,o),
(300,814,cs),
(276,836,o),
(248,833,o),
(178,791,cs),
(133,764,o),
(88,749,o),
(64,731,cs),
(43,715,o),
(33,693,o),
(46,671,cs),
(74,624,o),
(143,652,o),
(143,443,cs),
(143,324,ls),
(143,240,o),
(137,165,o),
(112,132,cs),
(71,78,o),
(35,86,o),
(35,39,cs),
(35,13,o),
(59,-5,o),
(96,-5,cs)
);
}
);
width = 427;
}
);
unicode = 108;
},
{
glyphname = lslash;
kernLeft = l;
kernRight = l;
lastChange = "2019-12-04 10:07:11 +0000";
layers = (
{
anchors = (
{
name = _top;
pos = (214,800);
},
{
name = top;
pos = (214,1065);
}
);
layerId = "A22087AE-1668-478C-9B8B-D37A40788B8E";
shapes = (
{
closed = 1;
nodes = (
(148,299,o),
(179,328,o),
(240,371,cs),
(302,415,o),
(342,435,o),
(395,474,cs),
(421,493,o),
(426,520,o),
(408,546,cs),
(392,569,o),
(365,573,o),
(339,554,cs),
(286,515,o),
(252,487,o),
(190,443,cs),
(128,399,o),
(91,379,o),
(38,342,cs),
(12,324,o),
(7,295,o),
(23,273,cs),
(41,248,o),
(68,243,o),
(95,262,cs)
);
},
{
ref = l;
}
);
width = 427;
}
);
unicode = 322;
},
{
color = 4;
glyphname = m;
kernLeft = n;
kernRight = n;
lastChange = "2019-12-04 10:07:11 +0000";
layers = (
{
layerId = "A22087AE-1668-478C-9B8B-D37A40788B8E";
shapes = (
{
closed = 1;
nodes = (
(166,-8,o),
(183,0,o),
(225,0,cs),
(268,0,o),
(285,-8,o),
(315,-8,cs),
(342,-8,o),
(364,10,o),
(366,36,cs),
(368,61,o),
(351,90,o),
(329,129,cs),
(270,234,o),
(280,393,o),
(386,438,cs),
(493,483,o),
(573,361,o),
(525,229,cs),
(476,93,o),
(425,83,o),
(427,36,cs),
(428,11,o),
(441,-8,o),
(478,-8,cs),
(519,-8,o),
(536,0,o),
(578,0,cs),
(621,0,o),
(643,-8,o),
(683,-8,cs),
(720,-8,o),
(741,10,o),
(744,36,cs),
(747,65,o),
(730,79,o),
(711,109,cs),
(645,213,o),
(648,378,o),
(754,423,cs),
(861,468,o),
(942,361,o),
(897,229,cs),
(851,93,o),
(800,83,o),
(802,36,cs),
(803,11,o),
(816,-8,o),
(853,-8,cs),
(894,-8,o),
(917,0,o),
(959,0,cs),
(1002,0,o),
(1018,-8,o),
(1058,-8,cs),
(1095,-8,o),
(1116,10,o),
(1119,36,cs),
(1122,65,o),
(1115,79,o),
(1085,109,cs),
(1042,152,o),
(1035,172,o),
(1055,318,cs),
(1077,476,o),
(1012,555,o),
(890,555,cs),
(799,555,o),
(727,518,o),
(680,461,c),
(666,533,o),
(605,593,o),
(512,593,cs),
(422,593,o),
(345,525,o),
(298,438,c),
(298,550,o),
(316,588,o),
(301,609,cs),
(284,633,o),
(252,635,o),
(223,610,cs),
(196,586,o),
(179,571,o),
(151,554,cs),
(115,532,o),
(88,524,o),
(64,506,cs),
(43,490,o),
(33,468,o),
(46,446,cs),
(74,399,o),
(152,437,o),
(152,323,cs),
(152,239,o),
(146,162,o),
(121,129,cs),
(85,81,o),
(54,86,o),
(54,39,cs),
(54,13,o),
(78,-8,o),
(115,-8,cs)
);
}
);
width = 1155;
},
{
associatedMasterId = "A22087AE-1668-478C-9B8B-D37A40788B8E";
layerId = "36AF6BF7-749C-4CB4-806E-798EBE9FFDDF";
name = "Jul 10 19, 11:58";
shapes = (
{
closed = 1;
nodes = (
(1042,152,o),
(1035,187,o),
(1055,333,cs),
(1077,491,o),
(1012,570,o),
(890,570,cs),
(799,570,o),
(727,533,o),
(680,461,c),
(666,533,o),
(605,593,o),
(512,593,cs),
(422,593,o),
(345,525,o),
(298,438,c),
(298,550,o),
(316,588,o),
(301,609,cs),
(284,633,o),
(252,635,o),
(223,610,cs),
(196,586,o),
(179,571,o),
(151,554,cs),
(115,532,o),
(88,524,o),
(64,506,cs),
(43,490,o),
(33,468,o),
(46,446,cs),
(74,399,o),
(152,437,o),
(152,323,cs),
(152,239,o),
(146,162,o),
(121,129,cs),
(85,81,o),
(54,86,o),
(54,39,cs),
(54,13,o),
(78,-8,o),
(115,-8,cs),
(166,-8,o),
(183,0,o),
(225,0,cs),
(268,0,o),
(285,-8,o),
(315,-8,cs),
(342,-8,o),
(364,10,o),
(366,36,cs),
(368,61,o),
(351,90,o),
(329,129,cs),
(270,234,o),
(280,393,o),
(386,438,cs),
(493,483,o),
(573,361,o),
(525,229,cs),
(476,93,o),
(425,83,o),
(427,36,cs),
(428,11,o),
(441,-8,o),
(478,-8,cs),
(519,-8,o),
(536,0,o),
(578,0,cs),
(621,0,o),
(643,-8,o),
(683,-8,cs),
(720,-8,o),
(741,10,o),
(744,36,cs),
(747,65,o),
(730,79,o),
(711,109,cs),
(645,213,o),
(648,393,o),
(754,438,cs),
(861,483,o),
(942,361,o),
(897,229,cs),
(851,93,o),
(800,83,o),
(802,36,cs),
(803,11,o),
(816,-8,o),
(853,-8,cs),
(894,-8,o),
(917,0,o),
(959,0,cs),
(1002,0,o),
(1018,-8,o),
(1058,-8,cs),
(1095,-8,o),
(1116,10,o),
(1119,36,cs),
(1122,65,o),
(1115,79,o),
(1085,109,cs)
);
}
);
width = 1155;
}
);
metricRight = "=n";
unicode = 109;
},
